<?xml version="1.0" encoding="UTF-8"?>
<svg id="Layer_2" data-name="Layer 2" xmlns="http://www.w3.org/2000/svg" viewBox="0 0 263.74 26.93">
  <defs>
    <style>
      .cls-1 {
        fill: #fff;
      }
    </style>
  </defs>
  <g id="Layer_1-2" data-name="Layer 1">
    <g>
      <path class="cls-1" d="M87.18,4.1c.34,0,.61.27.61.61s-.27.62-.61.62-.61-.28-.61-.62.28-.61.61-.61Z"/>
      <path class="cls-1" d="M64.83,4.1c.34,0,.61.27.61.61s-.28.62-.61.62-.62-.28-.62-.62.28-.61.62-.61Z"/>
      <path class="cls-1" d="M42.49,4.1c.34,0,.62.27.62.61s-.28.62-.62.62-.61-.28-.61-.62.27-.61.61-.61Z"/>
      <path class="cls-1" d="M20.14,4.1c.34,0,.61.27.61.61s-.28.62-.61.62-.61-.28-.61-.62.27-.61.61-.61Z"/>
      <g>
        <g>
          <polygon class="cls-1" points="0 .37 25.15 .37 25.15 8.01 17.93 8.01 17.93 26.47 7.43 26.47 7.43 8.01 0 8.01 0 .37 0 .37"/>
          <polygon class="cls-1" points="37.88 10.98 32.57 26.47 22.5 26.47 32.47 .37 43.4 .37 53.47 26.47 43.29 26.47 37.88 10.98 37.88 10.98"/>
          <polygon class="cls-1" points="51.14 .37 76.29 .37 76.29 8.01 69.07 8.01 69.07 26.47 58.57 26.47 58.57 8.01 51.14 8.01 51.14 .37 51.14 .37"/>
          <polygon class="cls-1" points="89.02 10.98 83.72 26.47 73.64 26.47 83.5 .37 94.54 .37 104.62 26.47 94.43 26.47 89.02 10.98 89.02 10.98"/>
        </g>
        <path class="cls-1" d="M233.29,15.9c1.61.47,2.41,1.64,2.99,4.33.69,3.28,1.39,5.5,1.73,6.2h4.84c-.46-1.05-1.15-3.97-1.97-7.25-.68-2.57-1.72-4.44-3.68-5.15v-.11c2.53-.81,4.73-3.16,4.73-6.55,0-2.22-.81-4.09-2.2-5.26-1.49-1.29-3.56-1.99-6.44-2.1v3.62c2.41.35,3.91,1.64,3.91,4.21,0,2.22-1.49,3.86-3.91,4.21v3.86ZM224.54,26.43h4.72v-10.76h2.41c.57,0,1.15,0,1.62.23v-3.86c-.46,0-.81.12-1.28.12h-2.75V3.86c.46-.12,1.49-.24,2.98-.24h1.04V0h-1.5c-2.76,0-5.41.23-7.25.47v25.96Z"/>
        <path class="cls-1" d="M246.94,25.19c1.38.93,4.26,1.74,7.03,1.74,6.67,0,9.77-3.71,9.77-7.89,0-3.72-2.18-6.03-6.67-7.77-3.45-1.28-4.95-2.2-4.95-4.18,0-1.62,1.27-3.25,4.26-3.25,2.42,0,4.26.81,5.18,1.28l1.15-3.83c-1.38-.7-3.46-1.27-6.21-1.27-5.65,0-9.21,3.24-9.21,7.43,0,3.83,2.77,6.15,7.03,7.66,3.34,1.16,4.6,2.32,4.6,4.3,0,2.08-1.72,3.59-4.72,3.59-2.41,0-4.72-.81-6.22-1.74l-1.03,3.94Z"/>
        <path class="cls-1" d="M140.19,15.79c-.14-3.38-.41-7.44-.41-10.96h0c-.94,3.25-2.03,6.76-3.11,10.01h0l-3.92,11.36h-3.66l-3.38-11.23h0c-1.08-3.25-2.03-6.9-2.71-10.14h-.13c-.13,3.38-.27,7.57-.4,11.23h0l-.54,10.41h-4.46l1.63-26.1h6.35l3.38,10.55h0c.94,2.97,1.76,6.08,2.43,9.06h.13c.68-2.84,1.63-6.09,2.57-9.2h0l3.65-10.41h6.23l1.48,26.1h-4.73l-.4-10.68h0Z"/>
        <path class="cls-1" d="M161.73,26.86c7.07-.1,12.25-5.07,12.25-13.62,0-7.5-4.44-13.2-12.05-13.2h-.21v3.8h0c4.75,0,7.18,4.65,7.18,9.5,0,5.49-2.53,9.72-7.18,9.72h0v3.8ZM161.62,26.86h.11v-3.8h0c-4.54,0-7.18-4.34-7.18-9.51s2.43-9.71,7.18-9.71V.04c-7.18.11-12.15,5.7-12.15,13.62s4.65,13.2,11.93,13.2h.1Z"/>
        <path class="cls-1" d="M208.11,26.86c7.07-.1,12.24-5.07,12.24-13.62,0-7.5-4.43-13.2-12.03-13.2h-.21v3.8h0c4.75,0,7.17,4.65,7.17,9.5,0,5.49-2.53,9.72-7.17,9.72h0v3.8ZM208,26.86h.11v-3.8h0c-4.55,0-7.19-4.34-7.19-9.51s2.42-9.71,7.19-9.71V.04c-7.19.11-12.16,5.7-12.16,13.62s4.65,13.2,11.94,13.2h.1Z"/>
        <polygon class="cls-1" points="182.75 26.44 187.5 26.44 187.5 4.47 194.89 4.47 194.89 .46 175.25 .46 175.25 4.47 182.75 4.47 182.75 26.44"/>
      </g>
    </g>
  </g>
</svg>