<svg width="49" height="23" viewBox="0 0 49 23" fill="none" xmlns="http://www.w3.org/2000/svg">
<path d="M17.7452 12.9579C18.317 12.5941 19.509 11.1947 19.5768 11.0735C19.6447 10.9522 19.8869 10.7096 19.635 10.4671C19.383 10.2245 19.131 10.3458 18.8112 10.523C18.5011 10.6443 17.1734 11.6145 16.6695 12.0437C16.1655 12.4075 14.9057 13.499 14.9057 13.499C14.9057 13.499 14.2079 14.0494 14.4599 14.3479C14.7118 14.6464 14.9638 14.5345 15.2836 14.4132C15.6616 14.2919 17.1831 13.3217 17.7452 12.9579ZM45.7623 19.824C45.9562 19.8799 46.3923 20.0105 46.3923 20.4303C46.3923 20.4303 45.9465 21.2793 45.8205 21.3446C45.6267 21.4006 45.3166 21.4006 44.6866 21.158C44.0567 20.9155 40.9652 20.1878 40.1415 20.0012C39.3177 19.8146 37.4958 19.5161 37.4958 19.5161C37.4958 19.5161 37.2438 19.3948 36.8659 19.9452C36.4879 20.5516 35.2862 22.1935 35.2862 22.1935C35.2474 22.3334 35.1214 22.4361 34.9761 22.4361C34.7241 22.4361 33.7744 22.3708 33.3964 22.1935C33.0185 22.0163 32.8925 22.0069 33.1444 21.6431C33.3964 21.2793 34.2202 19.6374 34.5981 19.3389C34.9082 19.0403 34.3461 19.0963 34.1523 19.0403C33.9585 18.9844 30.3049 18.7978 29.2292 18.8538C28.1535 18.8538 24.3739 18.8538 22.9784 18.975C21.5926 19.031 16.6695 19.5254 15.3418 19.7027C14.0141 19.9452 8.71301 20.6169 8.02494 20.7942C7.33687 20.9714 5.88319 21.158 5.88319 21.158C5.39863 21.2606 4.89469 21.2233 4.42952 21.0367C3.73175 20.7382 2.59789 20.3091 3.54762 20.0012C4.49735 19.6934 9.22665 18.7885 10.6803 18.6019C12.134 18.3593 16.7373 17.753 18.6271 17.6877C20.5169 17.6223 25.7598 17.3238 27.7174 17.3238C29.675 17.3238 32.3207 17.4451 33.5224 17.5664C34.6563 17.6223 35.4122 17.6876 35.6642 17.753C35.9161 17.8183 35.9161 17.6317 36.1681 17.3891C36.4201 17.1466 37.1178 16.2323 37.1178 16.2323C37.1178 16.2323 37.3698 15.8685 36.8659 16.1764C36.4201 16.4749 35.6641 16.4749 35.2862 16.1764C34.9082 15.8125 34.7823 15.5047 34.5884 15.626C34.1814 15.8405 33.7647 16.0271 33.3286 16.1764C32.9506 16.2976 31.3128 16.6615 30.3631 16.0551C29.4133 15.3834 29.3552 15.1409 29.2292 14.8423C29.1032 14.4225 29.0354 14.4225 28.7253 14.5998C28.4055 14.777 27.3394 15.3274 26.8936 15.514C26.4963 15.7379 26.0311 15.8219 25.566 15.7566C24.936 15.7006 24.2383 15.514 23.9281 15.0289C23.6762 14.5438 23.618 14.18 23.2982 14.4225C22.9784 14.6651 21.2146 15.6353 20.2746 15.8778C19.3248 16.1857 19.0729 16.2417 18.5689 16.1857C17.9972 16.1297 17.4351 15.8778 17.2412 15.5793C17.0474 15.2808 16.9893 15.2155 16.7373 15.3368C16.4853 15.5233 15.7876 16.0084 15.2836 16.0084C14.7797 15.9525 13.452 15.6446 12.7639 14.3666C12.0758 13.0885 12.5701 12.5474 13.2097 11.8757C13.8396 11.2694 14.9735 10.2992 14.9735 10.2992C14.9735 10.2992 16.4272 9.26365 16.8633 9.0864C17.3672 8.84385 18.1231 8.41472 18.6271 8.41472C19.3152 8.33076 20.0032 8.52666 20.5265 8.96512C21.2243 9.51553 21.6604 10.0566 21.7283 10.2992C21.7961 10.5417 22.1062 11.2694 21.6023 11.8198C21.0983 12.3702 19.6447 13.6389 19.6447 13.6389C19.6447 13.6389 19.0729 13.9468 19.3248 14.3106C19.5768 14.6744 20.5265 14.068 20.8367 13.8908C21.1468 13.6482 22.7943 12.3142 23.2982 11.8851C23.8022 11.4 26.9615 8.42405 27.2716 8.11619C27.5236 7.80834 30.179 5.31752 30.5472 5.07497C30.9252 4.83242 31.0512 4.64584 31.8071 4.77644C32.2044 4.84174 32.5824 4.96302 32.9409 5.14027C32.9409 5.14027 33.6968 5.44812 33.0669 5.86792C32.4951 6.28773 30.4794 7.92961 29.9754 8.41472C29.4715 8.89982 28.0178 10.2992 27.5817 10.7843C27.1359 11.3906 25.8761 12.9113 25.6919 13.1538C25.4981 13.4617 25.3721 13.7602 25.6919 14.0027C26.0117 14.1893 26.5738 14.0027 27.1456 13.5176C27.7174 13.0325 29.4812 11.6332 30.053 11.0268C30.6829 10.4204 33.9682 7.44451 34.2783 7.13666C34.5981 6.8941 36.1099 5.73732 36.1099 5.73732C36.1099 5.73732 36.3038 5.49477 36.7399 5.49477C37.176 5.49477 37.6218 5.55074 37.8737 5.68135L38.6296 6.04517C38.6296 6.04517 38.9398 6.16645 38.4358 6.53028C37.9319 6.8941 35.1602 8.95579 34.4624 9.74875C33.7065 10.5417 32.2529 12.1183 31.6811 12.79C31.1093 13.5176 30.7313 13.8255 31.1771 14.3106C31.6229 14.7957 32.1269 14.6744 32.3788 14.6184C33.0088 14.2733 33.5806 13.8441 34.0845 13.3404C34.7144 12.734 36.6042 10.7283 36.8659 10.5417C37.0597 10.2992 37.8156 9.62747 37.8156 9.62747C37.8156 9.62747 37.9416 9.32895 38.3874 9.32895C38.8332 9.32895 39.0173 9.38492 39.4631 9.45023C39.841 9.5062 40.7229 9.69278 40.2868 10.1779C39.7829 10.663 38.5812 11.8757 38.3292 12.1183C38.0773 12.4168 37.0694 13.5176 36.8755 13.8162C36.6817 14.1147 36.4298 14.4878 36.6817 14.6651C36.9337 14.8423 37.6315 14.6091 38.2614 14.236C39.1336 13.7882 39.938 13.2378 40.6551 12.5941C41.4789 11.8664 42.7968 10.7096 42.7968 10.7096C42.7968 10.7096 43.0488 10.2245 43.9986 10.4111C44.9483 10.6537 45.2003 10.7096 45.2003 10.7096C45.2003 10.7096 45.9562 10.8962 45.4522 11.316C44.9483 11.7358 43.3105 13.2004 42.6806 13.7415C42.0506 14.3479 40.093 16.2323 39.7732 16.5962C39.4534 16.96 38.5134 17.8089 38.8913 17.8742C39.2693 17.9395 42.1766 18.4246 42.8065 18.6112C43.3008 18.975 45.5782 19.7027 45.7623 19.824ZM13.1419 4.70181C12.5798 4.62718 12.008 4.62718 11.4362 4.70181C10.4865 4.82309 7.71482 5.06564 7.21088 5.30819C6.70694 5.55074 6.26115 5.00034 6.07702 4.82309C5.82505 4.63651 5.32111 4.09543 5.32111 4.09543C5.32111 4.09543 5.06914 3.78758 5.51493 3.6663C6.01887 3.54503 8.85838 3.1159 9.74028 2.99462C10.6222 2.93865 14.9154 2.68677 16.1171 2.68677C17.2509 2.68677 21.2243 2.92932 22.3 3.17187C22.3 3.17187 22.4939 3.1159 22.7458 3.601C22.8621 3.90885 22.93 4.24469 22.9396 4.57121C22.9396 4.57121 23.1335 4.93503 22.4357 4.87906C21.612 4.82309 20.4199 4.75779 19.5962 4.69248C18.7724 4.62718 16.8245 4.5059 16.5047 4.5059C16.2527 4.5059 16.1268 4.5059 16.0008 4.74846C15.8069 4.99101 15.051 5.96121 14.8669 6.20377C14.6828 6.44632 13.859 7.48183 13.1613 8.39606C12.4635 9.31029 11.5816 10.4577 10.7675 11.6145C10.0116 12.8273 9.31387 13.9188 9.00375 14.4132C8.80993 14.7024 8.64518 15.0103 8.49981 15.3274C8.44166 15.4487 8.37382 15.6353 7.99587 15.6353C7.61791 15.6353 5.9801 15.5793 5.9801 15.5793C5.9801 15.5793 5.28234 15.6353 5.72813 14.9076C6.17393 14.1147 7.11397 12.6034 7.49193 12.053C7.86988 11.4466 9.95348 8.71324 10.3896 8.22814C10.7482 7.79901 13.1419 4.70181 13.1419 4.70181Z" fill="#ED1C24"/>
<path d="M17.4933 12.3514C18.0651 11.9876 19.2668 10.5882 19.3249 10.467C19.3831 10.3457 19.6447 10.1031 19.3831 9.86058C19.1214 9.61803 18.8791 9.73931 18.5593 9.91656C18.2492 10.0378 16.9215 11.0733 16.4176 11.4372C15.9136 11.801 14.6538 12.8925 14.6538 12.8925C14.6538 12.8925 13.956 13.4429 14.2177 13.7414C14.4794 14.0399 14.7216 13.928 15.0414 13.8067C15.4097 13.6854 16.9312 12.7152 17.4933 12.3514ZM15.8555 2.0896H15.5454C14.0336 2.0896 10.3703 2.33215 9.54655 2.39745C8.66466 2.45343 5.82514 2.94786 5.3212 3.06914C4.81726 3.19041 5.06923 3.48894 5.06923 3.48894C5.06923 3.48894 5.57317 4.03934 5.82514 4.21659C6.07711 4.40317 6.45507 4.94425 6.95901 4.70169C7.53079 4.45914 10.3025 4.21659 11.1844 4.09532C11.7464 4.02068 12.3182 4.02068 12.89 4.09532C12.89 4.09532 10.4963 7.12721 10.1183 7.67762C9.74038 8.16272 7.65677 10.8961 7.21098 11.5025C6.83303 12.1088 5.82514 13.6295 5.37935 14.3571C5.0014 15.0848 5.68947 15.0288 5.68947 15.0288C5.68947 15.0288 7.32728 15.0848 7.70523 15.0848C8.01535 15.0848 8.08318 14.8422 8.15102 14.7209C8.29639 14.4038 8.46114 14.1052 8.65496 13.8067C8.97477 13.3216 9.66285 12.2301 10.4188 11.008C11.1747 9.78595 12.1244 8.6385 12.8125 7.72426C13.5005 6.81003 14.3243 5.78385 14.5181 5.5413C14.7119 5.29874 15.4679 4.32854 15.652 4.08599C15.8361 3.84344 15.904 3.84343 16.1559 3.84343C16.4757 3.84343 18.4237 3.96471 19.2474 4.03001C20.1293 4.09532 21.331 4.15129 22.0869 4.21659C22.8428 4.28189 22.5909 3.90874 22.5909 3.90874C22.6199 3.59155 22.5521 3.27437 22.397 2.99451C22.1451 2.5094 21.9512 2.56537 21.9512 2.56537C20.9627 2.27618 16.9894 2.0896 15.8555 2.0896ZM45.5105 19.2175C45.7043 19.3388 46.1404 19.46 46.0823 19.8239C46.0823 19.8239 45.7043 20.6728 45.5105 20.7381C45.3166 20.8034 45.0065 20.7941 44.3766 20.5515C43.7467 20.309 40.6552 19.5813 39.8314 19.3947C39.0755 19.2735 37.2439 18.9749 37.2439 18.9749C37.2439 18.9749 36.9919 18.8537 36.614 19.46C36.236 20.0104 35.0343 21.7083 35.0343 21.7083C34.9956 21.8482 34.8696 21.9508 34.7145 21.9508C34.4625 21.9508 33.5128 21.8949 33.1348 21.7083C32.7569 21.5217 32.6309 21.5217 32.8829 21.1579C33.1349 20.7941 33.9586 19.1522 34.3366 18.8537C34.7145 18.5551 34.1427 18.6111 33.9586 18.5551C33.7648 18.5551 30.1112 18.3126 29.0355 18.3685C27.9598 18.3685 24.1802 18.3685 22.7847 18.4898C21.3892 18.6111 16.4079 19.0402 15.148 19.2175C13.8204 19.4041 8.51929 20.1317 7.83122 20.309C7.13345 20.4302 5.68947 20.6728 5.68947 20.6728C5.20491 20.7754 4.70097 20.7381 4.23579 20.5515C3.53803 20.253 2.40416 19.8239 3.35389 19.516C4.30363 19.2082 9.03292 18.3032 10.4866 18.1167C11.9403 17.9301 16.5436 17.2677 18.4334 17.2024C20.3231 17.0812 25.566 16.8386 27.514 16.8386C29.4716 16.8386 32.1173 16.9599 33.319 17.0812C34.4528 17.1371 35.2088 17.2024 35.4607 17.2677C35.7127 17.333 35.7127 17.1465 35.9647 16.9039C36.2166 16.6614 36.9144 15.7471 36.9144 15.7471C36.9144 15.7471 37.1664 15.4393 36.6624 15.6912C36.1585 15.9897 35.4607 15.9897 35.0828 15.6352C34.7048 15.2714 34.5788 15.0288 34.385 15.0848C34.1912 15.1407 33.5031 15.5046 33.1252 15.6352C32.7472 15.7658 31.1675 16.1203 30.2178 15.4486C29.2681 14.8422 29.2099 14.5344 29.0839 14.2918C28.958 13.9933 28.8901 13.9933 28.58 14.1705C28.2602 14.4131 27.1942 14.8982 26.7484 15.0848C26.3413 15.2993 25.8859 15.402 25.4207 15.3833C24.7908 15.3273 24.093 15.1407 23.7829 14.6556C23.4728 14.1705 23.4631 13.8067 23.153 14.0493C22.8428 14.2918 21.0693 15.262 20.1293 15.5046C19.0536 15.6258 18.8016 15.7471 18.2977 15.6258C17.7259 15.5046 17.1638 15.318 16.97 15.0195C16.7762 14.7209 16.718 14.6556 16.466 14.8329C16.2141 15.0101 15.5163 15.5046 15.0124 15.4393C14.5084 15.374 13.1807 15.0754 12.4248 13.7974C11.7271 12.5193 12.231 11.9782 12.8609 11.3719C13.4909 10.7002 14.6926 9.79528 14.6926 9.79528C14.6926 9.79528 16.1462 8.82507 16.5823 8.58252C17.0863 8.33997 17.8422 7.91084 18.3461 7.91084C18.8501 7.91084 19.5478 7.91084 20.2359 8.46125C20.924 9.01165 21.3116 9.55273 21.4376 9.79528C21.4958 9.98186 21.8156 10.7655 21.3116 11.3159C20.8077 11.8663 19.4219 13.135 19.4219 13.135C19.4219 13.135 18.8501 13.4429 19.102 13.8627C19.354 14.2265 20.3037 13.6201 20.5557 13.3776C20.8755 13.191 22.5133 11.801 23.0173 11.3719C23.5212 10.8868 26.6805 7.91084 26.9907 7.66829C27.2426 7.36043 29.8883 4.86962 30.3341 4.62706C30.7121 4.38451 30.838 4.20726 31.594 4.32854C31.9913 4.39384 32.3693 4.51512 32.7278 4.69237C32.7278 4.69237 33.4837 4.99089 32.8538 5.42002C32.282 5.90512 30.2663 7.48171 29.7623 7.96681C29.2584 8.45192 27.8144 9.85125 27.3783 10.3364C26.8744 10.8215 25.6145 12.3421 25.4207 12.6406C25.2269 12.9391 25.1009 13.247 25.4207 13.4895C25.7405 13.7321 26.3026 13.4895 26.8744 13.0044C27.4461 12.5193 29.2099 11.12 29.7817 10.5136C30.3535 9.90723 33.6969 6.9313 34.0071 6.68875C34.3172 6.4462 35.8387 5.23344 35.8387 5.23344C35.8387 5.23344 36.0325 4.99089 36.4686 4.99089C36.9047 4.99089 37.3505 5.04686 37.6025 5.17747L38.3584 5.5413C38.3584 5.5413 38.6782 5.66257 38.1646 6.0264C37.6509 6.39023 34.8793 8.45192 34.1233 9.24487C33.4256 10.0378 31.9138 11.6144 31.3517 12.2768C30.7799 13.0044 30.4019 13.3683 30.8477 13.7974C31.2838 14.2825 31.7975 14.1612 32.0494 14.0959C32.3014 14.0306 33.1833 13.4242 33.7551 12.8178C34.385 12.2115 36.2748 10.2617 36.5268 10.0192C36.7206 9.77662 37.4765 9.10494 37.4765 9.10494C37.4765 9.10494 37.6025 8.80641 38.0483 8.80641C38.4941 8.80641 38.6782 8.86239 39.124 8.92769C39.502 9.04897 40.3838 9.17024 39.9477 9.65535C39.4438 10.1404 38.2421 11.2972 37.9901 11.5958C37.7382 11.8943 36.7303 12.9951 36.5365 13.2936C36.3426 13.5921 36.1003 13.9653 36.3426 14.1426C36.5849 14.3198 37.2924 14.0866 37.9223 13.7134C38.8139 13.275 39.6376 12.7246 40.3838 12.0715C41.2076 11.3439 42.5256 10.1871 42.5256 10.1871C42.5256 10.1871 42.7194 9.70199 43.7273 9.88857C44.677 10.0751 44.929 10.1871 44.929 10.1871C44.929 10.1871 45.6849 10.3737 45.181 10.7935C44.677 11.2133 43.0392 12.6126 42.3996 13.219C41.7697 13.7694 39.8121 15.7098 39.4923 16.0736C39.1724 16.4375 38.2324 17.2864 38.6104 17.3517C38.9883 17.417 41.886 17.9581 42.5256 18.1447C43.1071 18.3592 45.3166 19.1522 45.5105 19.2175Z" fill="black"/>
</svg>
