<svg width="36" height="36" viewBox="0 0 36 36" fill="none" xmlns="http://www.w3.org/2000/svg">
<g clip-path="url(#clip0_389_689)">
<g clip-path="url(#clip1_389_689)">
<g clip-path="url(#clip2_389_689)">
<path d="M7.56352 22.7493C7.56352 24.8307 5.86319 26.5311 3.78176 26.5311C1.70032 26.5311 0 24.8307 0 22.7493C0 20.6679 1.70032 18.9675 3.78176 18.9675H7.56352V22.7493Z" fill="#E01E5A"/>
<path d="M9.46912 22.7493C9.46912 20.6679 11.1694 18.9675 13.2508 18.9675C15.3323 18.9675 17.0326 20.6679 17.0326 22.7493V32.2184C17.0326 34.2998 15.3323 36.0001 13.2508 36.0001C11.1694 36.0001 9.46912 34.2998 9.46912 32.2184V22.7493Z" fill="#E01E5A"/>
<path d="M13.2508 7.56352C11.1694 7.56352 9.46912 5.86319 9.46912 3.78176C9.46912 1.70032 11.1694 0 13.2508 0C15.3323 0 17.0326 1.70032 17.0326 3.78176V7.56352H13.2508Z" fill="#36C5F0"/>
<path d="M13.2509 9.46924C15.3323 9.46924 17.0326 11.1696 17.0326 13.251C17.0326 15.3324 15.3323 17.0328 13.2509 17.0328H3.78176C1.70032 17.0328 0 15.3324 0 13.251C0 11.1696 1.70032 9.46924 3.78176 9.46924H13.2509Z" fill="#36C5F0"/>
<path d="M28.4366 13.251C28.4366 11.1696 30.1369 9.46924 32.2184 9.46924C34.2998 9.46924 36.0001 11.1696 36.0001 13.251C36.0001 15.3324 34.2998 17.0328 32.2184 17.0328H28.4366V13.251Z" fill="#2EB67D"/>
<path d="M26.531 13.2509C26.531 15.3323 24.8307 17.0326 22.7493 17.0326C20.6678 17.0326 18.9675 15.3323 18.9675 13.2509V3.78176C18.9675 1.70032 20.6678 0 22.7493 0C24.8307 0 26.531 1.70032 26.531 3.78176V13.2509Z" fill="#2EB67D"/>
<path d="M22.7493 28.4365C24.8307 28.4365 26.531 30.1368 26.531 32.2183C26.531 34.2997 24.8307 36 22.7493 36C20.6678 36 18.9675 34.2997 18.9675 32.2183V28.4365H22.7493Z" fill="#ECB22E"/>
<path d="M22.7493 26.5311C20.6678 26.5311 18.9675 24.8307 18.9675 22.7493C18.9675 20.6679 20.6678 18.9675 22.7493 18.9675H32.2183C34.2997 18.9675 36.0001 20.6679 36.0001 22.7493C36.0001 24.8307 34.2997 26.5311 32.2183 26.5311H22.7493Z" fill="#ECB22E"/>
</g>
</g>
</g>
<defs>
<clipPath id="clip0_389_689">
<rect width="36" height="36" fill="white"/>
</clipPath>
<clipPath id="clip1_389_689">
<rect width="36" height="36" fill="white"/>
</clipPath>
<clipPath id="clip2_389_689">
<rect width="36" height="36" fill="white"/>
</clipPath>
</defs>
</svg>
