<svg width="36" height="41" viewBox="0 0 36 41" fill="none" xmlns="http://www.w3.org/2000/svg">
<g clip-path="url(#clip0_389_757)">
<path d="M31.4669 8.05116C31.4386 7.84616 31.2588 7.73271 31.1101 7.72021C30.9618 7.70785 27.8222 7.47547 27.8222 7.47547C27.8222 7.47547 25.6418 5.31385 25.4025 5.07459C25.163 4.83547 24.6953 4.9082 24.5138 4.96156C24.4871 4.96942 24.0374 5.108 23.2936 5.33786C22.5652 3.24489 21.2797 1.32154 19.0183 1.32154C18.9559 1.32154 18.8916 1.32407 18.8274 1.32772C18.1842 0.478375 17.3875 0.109375 16.6993 0.109375C11.4314 0.109375 8.91456 6.68552 8.12545 10.0273C6.07844 10.6607 4.62424 11.111 4.43849 11.1693C3.29589 11.5272 3.25975 11.5631 3.10972 12.6382C2.99681 13.4522 0.00714111 36.5398 0.00714111 36.5398L23.3033 40.8985L35.9259 38.1717C35.9259 38.1717 31.4947 8.25616 31.4669 8.05116ZM22.006 5.7355L20.0348 6.34474C20.0355 6.20602 20.0362 6.06954 20.0362 5.92028C20.0362 4.61952 19.8554 3.57219 19.5653 2.74194C20.7305 2.88797 21.5066 4.2119 22.006 5.7355ZM18.1198 2.99987C18.4438 3.81047 18.6544 4.97377 18.6544 6.54357C18.6544 6.62388 18.6537 6.69732 18.653 6.77159C17.371 7.16811 15.978 7.59861 14.5819 8.03052C15.3658 5.00944 16.8352 3.55029 18.1198 2.99987ZM16.5547 1.52036C16.782 1.52036 17.0111 1.59745 17.2303 1.74811C15.542 2.54143 13.7323 4.53948 12.9681 8.52954L9.75007 9.52477C10.6452 6.48136 12.7708 1.52036 16.5547 1.52036Z" fill="#95BF46"/>
<path d="M31.1101 7.7201C30.9618 7.70775 27.8222 7.47536 27.8222 7.47536C27.8222 7.47536 25.6418 5.31374 25.4024 5.07448C25.3129 4.98546 25.1921 4.93982 25.0658 4.92017L23.3044 40.8981L35.9259 38.1716C35.9259 38.1716 31.4947 8.25605 31.4668 8.05105C31.4386 7.84605 31.2587 7.7326 31.1101 7.7201Z" fill="#5E8E3E"/>
<path d="M19.0183 14.6848L17.4619 19.308C17.4619 19.308 16.0983 18.5812 14.4267 18.5812C11.9761 18.5812 11.8528 20.1169 11.8528 20.5038C11.8528 22.6153 17.3647 23.4244 17.3647 28.3702C17.3647 32.2614 14.8932 34.7671 11.5607 34.7671C7.56177 34.7671 5.51672 32.2818 5.51672 32.2818L6.58748 28.749C6.58748 28.749 8.68961 30.5512 10.4634 30.5512C11.6225 30.5512 12.0939 29.64 12.0939 28.9741C12.0939 26.2198 7.57189 26.097 7.57189 21.5711C7.57189 17.7619 10.3099 14.0757 15.8367 14.0757C17.9663 14.0757 19.0183 14.6848 19.0183 14.6848Z" fill="white"/>
</g>
<defs>
<clipPath id="clip0_389_757">
<rect width="36" height="41" fill="white"/>
</clipPath>
</defs>
</svg>
