<svg width="47" height="36" viewBox="0 0 47 36" fill="none" xmlns="http://www.w3.org/2000/svg">
<g clip-path="url(#clip0_389_746)">
<path d="M4.02857 31.44C4.40158 31.785 4.80444 32.1 5.2073 32.4C7.11714 33.78 9.44476 34.785 12.0409 35.385C14.846 36.015 17.7556 36.135 20.6054 35.865C21.8886 35.745 23.1568 35.535 24.4251 35.265C26.126 34.905 27.7971 34.395 29.4086 33.78C30.2292 33.465 31.0498 33.12 31.8406 32.745C33.7206 31.86 35.526 30.81 37.2121 29.595C37.779 29.175 38.346 28.755 38.8832 28.29C39.5397 27.735 40.1813 27.165 40.793 26.55C41.3003 26.04 41.7778 25.53 42.2403 24.975C42.6282 24.525 43.0013 24.045 43.3594 23.565C45.0156 21.3 46.1495 18.885 46.6568 16.47C47.179 14.04 47.0597 11.445 46.1644 9.15001C45.9108 8.52001 45.6124 7.90501 45.2692 7.32001C44.7917 6.54001 44.2397 5.82001 43.613 5.16001C43.3892 4.93501 43.1505 4.74001 42.9267 4.53001C42.673 4.30501 42.4194 4.09501 42.1508 3.88501C41.5987 3.45001 41.0168 3.06001 40.42 2.71501C38.719 1.72501 36.8241 1.03501 34.8994 0.600006C32.3181 0.0150061 29.6473 -0.119994 27.0213 0.0750061C25.574 0.180006 24.1267 0.390006 22.7092 0.705006C20.9635 1.08001 19.2327 1.59001 17.5616 2.23501C16.7708 2.53501 16.0248 2.86501 15.2787 3.21001C12.787 4.36501 10.5489 5.74501 8.59428 7.32001C8.16158 7.66501 7.75873 8.01001 7.34095 8.38501C7.10222 8.59501 6.86349 8.80501 6.63968 9.03001C5.98317 9.66001 5.37142 10.29 4.7746 10.98C4.3419 11.49 3.92412 12.015 3.52126 12.57C2.07396 14.595 0.925074 16.875 0.35809 19.32C-0.193973 21.765 -0.134291 24.33 0.731106 26.67C0.805709 26.85 0.880312 27.03 0.954916 27.21C1.17873 27.735 1.4473 28.245 1.76063 28.74C2.07396 29.235 2.41714 29.715 2.79015 30.165C3.17809 30.615 3.58095 31.05 4.02857 31.44Z" fill="#CE0000"/>
<path d="M39.5397 11.8501C39.4949 11.8201 39.4203 11.8201 39.286 11.8351C39.0473 11.8651 37.5702 12.0151 36.9286 12.0751C36.66 12.1051 36.5406 12.2101 36.4213 12.4201C36.3019 12.6151 33.0492 18.1951 33.0492 18.1951C33.0492 18.1951 35.526 4.75506 35.6006 4.38006C35.6902 3.91506 35.6006 3.81006 35.2425 3.81006C34.8695 3.81006 33.1835 4.00506 32.9298 4.03506C32.6016 4.08006 32.4822 4.18506 32.4076 4.60506C32.3479 4.92006 28.7222 24.8101 28.6625 25.1701C28.5581 25.7401 28.573 25.7551 29.0803 25.6651C29.3787 25.6201 30.8111 25.3801 31.4229 25.2901C31.6019 25.2601 31.7063 25.2601 31.766 24.9751C31.8257 24.6901 32.9298 18.8551 32.9298 18.8551C32.9298 18.8551 34.7949 24.1951 34.8844 24.4201C34.959 24.6301 35.0187 24.7051 35.2873 24.6601C35.9587 24.5551 37.4956 24.3001 37.6448 24.2701C37.9133 24.2251 37.9581 24.1501 37.8835 23.9251C37.8089 23.6851 35.899 18.1651 35.899 18.1651C35.899 18.1651 39.4203 12.3451 39.5546 12.1051C39.6143 12.0001 39.6143 11.8951 39.5397 11.8501Z" fill="white"/>
<path d="M28.2746 13.32C27.8121 13.14 26.8571 12.855 25.7232 12.99C24.0222 13.185 22.8286 13.935 22.2168 15.105C21.5902 16.29 21.6946 17.61 21.9035 18.27C22.1124 18.93 22.6495 19.695 23.3956 20.34C25.0368 21.795 24.9921 22.92 24.7533 23.4C24.4698 23.985 23.6492 24.45 22.5302 24.21C21.4111 23.97 21.053 23.235 21.053 23.235C21.053 23.235 20.5009 25.17 20.3965 25.545C20.2473 26.055 20.307 26.205 20.7844 26.4C21.4111 26.655 22.6197 26.94 24.5743 26.55C25.9171 26.295 27.1108 25.23 27.6927 24.12C28.2895 22.98 28.6625 20.745 26.7825 19.05C25.2606 17.67 25.0965 17.43 24.9324 17.13C24.634 16.59 24.8727 15.945 25.1562 15.6C25.4098 15.285 25.7381 15.135 26.2752 15.165C26.8124 15.195 27.7673 15.915 27.7673 15.915C27.7673 15.915 28.4536 13.98 28.4984 13.815C28.5879 13.59 28.5283 13.41 28.2746 13.32Z" fill="white"/>
<path d="M17.9644 6.95996C17.9197 6.35996 17.4422 6.47996 17.2184 6.91496C16.4873 8.38496 6.56507 28.455 6.4457 28.71C6.26666 29.07 6.41586 29.13 6.75904 29.085C7.01269 29.055 9.20602 28.71 9.86253 28.605C10.0863 28.575 10.1609 28.53 10.2355 28.365C10.2654 28.275 11.8321 24.66 11.8321 24.66L16.2038 23.985C16.2038 23.985 16.2486 26.76 16.2486 27.24C16.2486 27.45 16.2635 27.585 16.6365 27.525C17.0543 27.465 18.7701 27.195 19.0089 27.15C19.4416 27.075 19.4863 26.97 19.4565 26.58C19.4416 26.31 18.0838 8.36996 17.9644 6.95996ZM13.0108 21.795L16.1889 14.445L16.2187 21.3L13.0108 21.795Z" fill="white"/>
</g>
<defs>
<clipPath id="clip0_389_746">
<rect width="47" height="36" fill="white"/>
</clipPath>
</defs>
</svg>
