<svg width="68" height="15" viewBox="0 0 68 15" fill="none" xmlns="http://www.w3.org/2000/svg">
<g clip-path="url(#clip0_389_674)">
<path fill-rule="evenodd" clip-rule="evenodd" d="M55.3646 4.49811C55.6246 4.93832 55.7096 5.43915 55.7377 6.00221L55.7746 6.75268V12.0005L55.8123 12.7517C55.8877 13.9786 56.8095 14.8858 58.069 14.963L58.8303 15V6.75268L58.868 6.00221C58.8993 5.44545 58.9836 4.93517 59.2475 4.49181C59.5164 4.03707 59.9025 3.65978 60.367 3.39783C60.8315 3.13587 61.358 2.99848 61.8937 2.99944C62.4294 3.0004 62.9553 3.13967 63.4188 3.40328C63.8823 3.66689 64.267 4.04556 64.5343 4.50126C64.7942 4.94146 64.8753 5.45175 64.9065 6.00221L64.9442 6.75032V12.0005L64.982 12.7517C65.0606 13.9849 65.9751 14.8921 67.2387 14.963L68 15V6.00221C68 4.41115 67.3563 2.88522 66.2104 1.75996C65.0645 0.634687 63.5102 0.00220351 61.8893 0.00157708C61.0218 0.000679006 60.164 0.181521 59.3734 0.532021C58.5827 0.882522 57.8774 1.39461 57.3045 2.03407C56.7313 1.39486 56.0259 0.882897 55.2353 0.532293C54.4448 0.181689 53.5871 0.000496502 52.7196 0.000789443C51.4505 0.000789443 50.2728 0.378782 49.2972 1.03161C48.702 0.379569 47.3702 0.000789443 46.6057 0.000789443V15L47.3702 14.963C48.649 14.8803 49.5732 13.9975 49.6229 12.7517L49.6639 12.0005V6.75268L49.7016 6.00221C49.7337 5.436 49.8139 4.93832 50.0746 4.49496C50.3438 4.0405 50.7297 3.6633 51.1938 3.40103C51.658 3.13876 52.1841 3.00059 52.7196 3.00032C53.2556 3.00043 53.7821 3.13887 54.2463 3.40176C54.7106 3.66465 55.0962 4.04274 55.3646 4.49811ZM3.05576 14.9638L3.8203 15H15.2804L15.2427 14.2519C15.1392 13.0187 14.2495 12.1178 12.9892 12.0375L12.2246 12.0005H5.34938L14.5158 2.99953L14.4781 2.25221C14.4188 1.00641 13.4914 0.106313 12.2246 0.0378009L11.4601 0.00393932L0 0.000789443L0.0377056 0.751262C0.137986 1.97265 1.04051 2.89243 2.29041 2.96331L3.05576 3.00032H9.93101L0.764541 12.0013L0.802246 12.7517C0.877657 13.9881 1.7866 14.8835 3.05576 14.963V14.9638ZM43.6061 2.1963C44.3157 2.89268 44.8786 3.71946 45.2626 4.62941C45.6467 5.53936 45.8443 6.51466 45.8443 7.49961C45.8443 8.48455 45.6467 9.45985 45.2626 10.3698C44.8786 11.2798 44.3157 12.1065 43.6061 12.8029C42.1725 14.209 40.2288 14.9989 38.2022 14.9989C36.1756 14.9989 34.2319 14.209 32.7982 12.8029C29.8147 9.87427 29.8147 5.12495 32.7982 2.1963C33.5072 1.50014 34.3489 0.947876 35.2753 0.571034C36.2016 0.194193 37.1946 0.000155458 38.1974 1.80791e-06C39.2018 -0.000682696 40.1965 0.193013 41.1245 0.570009C42.0526 0.947005 42.8959 1.4999 43.6061 2.19708V2.1963ZM41.444 4.32014C42.3034 5.16434 42.7862 6.30894 42.7862 7.50236C42.7862 8.69579 42.3034 9.84039 41.444 10.6846C40.584 11.5281 39.418 12.002 38.2022 12.002C36.9864 12.002 35.8203 11.5281 34.9603 10.6846C34.1009 9.84039 33.6182 8.69579 33.6182 7.50236C33.6182 6.30894 34.1009 5.16434 34.9603 4.32014C35.8203 3.47658 36.9864 3.00272 38.2022 3.00272C39.418 3.00272 40.584 3.47658 41.444 4.32014ZM22.1621 1.80791e-06C23.1649 0.000258878 24.1579 0.19442 25.0842 0.571398C26.0106 0.948376 26.8523 1.50079 27.5612 2.19708C30.5455 5.12495 30.5455 9.87505 27.5612 12.8029C26.1276 14.209 24.1839 14.9989 22.1572 14.9989C20.1306 14.9989 18.1869 14.209 16.7533 12.8029C13.7698 9.87427 13.7698 5.12495 16.7533 2.1963C17.4623 1.50014 18.3039 0.947876 19.2303 0.571034C20.1567 0.194193 21.1496 0.000155458 22.1524 1.80791e-06H22.1621ZM25.3991 4.31857C26.2587 5.1628 26.7416 6.30756 26.7416 7.50118C26.7416 8.6948 26.2587 9.83957 25.3991 10.6838C24.5391 11.5274 23.373 12.0012 22.1572 12.0012C20.9414 12.0012 19.7754 11.5274 18.9154 10.6838C18.056 9.8396 17.5733 8.695 17.5733 7.50158C17.5733 6.30815 18.056 5.16355 18.9154 4.31935C19.7754 3.47579 20.9414 3.00194 22.1572 3.00194C23.373 3.00194 24.5391 3.47579 25.3991 4.31935V4.31857Z" fill="#2D8CFF"/>
</g>
<defs>
<clipPath id="clip0_389_674">
<rect width="68" height="15" fill="white"/>
</clipPath>
</defs>
</svg>
