<svg width="52" height="22" viewBox="0 0 52 22" fill="none" xmlns="http://www.w3.org/2000/svg">
<g clip-path="url(#clip0_389_767)">
<path d="M3.65442 8.58256C3.65442 8.01245 4.11663 7.79308 4.88231 7.79308C5.98 7.79308 7.36663 8.12943 8.46442 8.72884V5.29308C7.26558 4.81066 6.08116 4.62059 4.88231 4.62059C1.95 4.62059 0 6.17035 0 8.75813C0 12.7931 5.48884 12.1499 5.48884 13.8897C5.48884 14.5621 4.91116 14.7815 4.10221 14.7815C2.90337 14.7815 1.37221 14.2843 0.158844 13.6119V17.0914C1.50221 17.6762 2.86 17.9247 4.10221 17.9247C7.10663 17.9247 9.17221 16.4189 9.17221 13.8019C9.15779 9.44522 3.65442 10.22 3.65442 8.58256ZM13.4188 1.69666L9.89442 2.45684L9.88 14.1674C9.88 16.3312 11.4834 17.9247 13.6212 17.9247C14.8056 17.9247 15.6722 17.7054 16.1488 17.4422V14.4744C15.6867 14.6645 13.4044 15.337 13.4044 13.1732V7.98315H16.1488V4.86915H13.4044L13.4188 1.69666ZM20.6412 5.95098L20.41 4.86915H17.29V17.6615H20.9012V8.99199C21.7533 7.86627 23.1978 8.07094 23.6456 8.23171V4.86915C23.1834 4.69368 21.4934 4.37203 20.6412 5.95098ZM24.5266 4.86915H28.1522V17.6615H24.5266V4.86915ZM24.5266 3.75803L28.1522 2.96856V0.000732422L24.5266 0.775609V3.75803ZM35.6922 4.62059C34.2766 4.62059 33.3666 5.29308 32.8612 5.76101L32.6733 4.85456H29.4956V21.9012L33.1066 21.1264L33.1212 16.989C33.6412 17.3692 34.4066 17.9101 35.6778 17.9101C38.2634 17.9101 40.6178 15.8048 40.6178 11.1703C40.6034 6.93052 38.22 4.62059 35.6922 4.62059ZM34.8256 14.6937C33.9734 14.6937 33.4677 14.3867 33.1212 14.0066L33.1066 8.58256C33.4822 8.15863 34.0022 7.86627 34.8256 7.86627C36.14 7.86627 37.05 9.35743 37.05 11.2726C37.05 13.2317 36.1544 14.6937 34.8256 14.6937ZM52 11.3165C52 7.57382 50.2088 4.62059 46.7856 4.62059C43.3477 4.62059 41.2677 7.57392 41.2677 11.2873C41.2677 15.6878 43.7234 17.9101 47.2477 17.9101C48.9666 17.9101 50.2666 17.5153 51.2488 16.9598V14.0358C50.2667 14.5329 49.14 14.84 47.71 14.84C46.3088 14.84 45.0666 14.3428 44.9078 12.6177H51.9712C51.9712 12.4275 52 11.6674 52 11.3165ZM44.8644 9.92764C44.8644 8.27561 45.8612 7.58842 46.7712 7.58842C47.6522 7.58842 48.5912 8.27561 48.5912 9.92764H44.8644Z" fill="#6772E5"/>
</g>
<defs>
<clipPath id="clip0_389_767">
<rect width="52" height="22" fill="white"/>
</clipPath>
</defs>
</svg>
