<svg width="36" height="36" viewBox="0 0 36 36" fill="none" xmlns="http://www.w3.org/2000/svg">
<path fill-rule="evenodd" clip-rule="evenodd" d="M31.7263 0H4.27942C3.14546 -1.03048e-06 2.05785 0.45036 1.25548 1.25217C0.453101 2.05398 0.00156324 3.14168 3.49805e-05 4.27637V31.7005C-0.00224306 32.2643 0.106765 32.823 0.320805 33.3446C0.534844 33.8661 0.8497 34.3402 1.24731 34.7397C1.64491 35.1391 2.11744 35.4561 2.63777 35.6724C3.1581 35.8887 3.71599 36 4.27942 36H31.7263C32.2893 35.9992 32.8466 35.8874 33.3662 35.6707C33.8859 35.4541 34.3577 35.137 34.7547 34.7376C35.1517 34.3382 35.4661 33.8644 35.6797 33.3432C35.8934 32.8221 36.0022 32.2639 36 31.7005V4.27637C35.9984 3.14268 35.5477 2.05585 34.7466 1.25421C33.9454 0.452562 32.8593 0.00152686 31.7263 0ZM15.5258 25.9295C15.525 26.1179 15.4871 26.3043 15.4142 26.4781C15.3412 26.6518 15.2347 26.8094 15.1008 26.9419C14.9668 27.0743 14.808 27.179 14.6335 27.2499C14.459 27.3207 14.2723 27.3564 14.084 27.3549H8.08589C7.70908 27.3534 7.34822 27.2025 7.08231 26.9354C6.81641 26.6682 6.66711 26.3065 6.66712 25.9295V8.06797C6.66711 7.69091 6.81641 7.32921 7.08231 7.06206C7.34822 6.7949 7.70908 6.64404 8.08589 6.64251H14.084C14.4613 6.64403 14.8228 6.7947 15.0896 7.0617C15.3564 7.3287 15.507 7.69038 15.5085 8.06797L15.5258 25.9295ZM29.3675 17.7288C29.3675 17.9174 29.3301 18.1042 29.2574 18.2783C29.1848 18.4524 29.0783 18.6103 28.9442 18.7429C28.81 18.8755 28.6509 18.9801 28.4761 19.0507C28.3013 19.1213 28.1142 19.1565 27.9256 19.1542H21.9276C21.5502 19.1527 21.1888 19.002 20.922 18.735C20.6551 18.468 20.5046 18.1063 20.503 17.7288V8.06797C20.5046 7.69038 20.6551 7.3287 20.922 7.0617C21.1888 6.7947 21.5502 6.64403 21.9276 6.64251H27.9256C28.3025 6.64404 28.6633 6.7949 28.9292 7.06206C29.1951 7.32921 29.3444 7.69091 29.3444 8.06797L29.3675 17.7288Z" fill="url(#paint0_linear_389_687)"/>
<defs>
<linearGradient id="paint0_linear_389_687" x1="5605.68" y1="2283.84" x2="5605.68" y2="0" gradientUnits="userSpaceOnUse">
<stop stop-color="#0052CC"/>
<stop offset="1" stop-color="#2684FF"/>
</linearGradient>
</defs>
</svg>
