<svg width="36" height="36" viewBox="0 0 36 36" fill="none" xmlns="http://www.w3.org/2000/svg">
<g clip-path="url(#clip0_433_492)">
<path d="M21.4062 0L30 8.75L25.7031 9.54545L21.4062 8.75L20.625 4.375L21.4062 0Z" fill="#188038"/>
<path d="M21.4062 8.75V0H7.34375C6.04883 0 5 1.0679 5 2.38636V32.6136C5 33.9321 6.04883 35 7.34375 35H27.6562C28.9512 35 30 33.9321 30 32.6136V8.75H21.4062Z" fill="#34A853"/>
<path d="M9.6875 13.5227V25.0568H25.3125V13.5227H9.6875ZM16.5234 23.0682H11.6406V20.2841H16.5234V23.0682ZM16.5234 18.2954H11.6406V15.5113H16.5234V18.2954ZM23.3594 23.0682H18.4766V20.2841H23.3594V23.0682ZM23.3594 18.2954H18.4766V15.5113H23.3594V18.2954Z" fill="white"/>
</g>
<defs>
<clipPath id="clip0_433_492">
<rect width="25" height="35" fill="white" transform="translate(5)"/>
</clipPath>
</defs>
</svg>
