<svg width="136" height="132" viewBox="0 0 136 132" fill="none" xmlns="http://www.w3.org/2000/svg">
<path d="M69.184 5.22701C35.451 5.22701 8.01801 32.65 8.00601 66.357C7.9894 77.867 11.2306 89.1467 17.355 98.892L18.81 101.205L12.631 123.763L35.777 117.694L38.012 119.018C47.399 124.589 58.162 127.535 69.138 127.541H69.161C102.868 127.541 130.301 100.115 130.314 66.406C130.339 58.3716 128.771 50.4119 125.699 42.9879C122.628 35.5638 118.114 28.8227 112.419 23.155C106.756 17.4563 100.019 12.9375 92.5974 9.8601C85.1761 6.78274 77.2181 5.20799 69.184 5.22701Z" fill="url(#paint0_linear_625_466)"/>
<path fill-rule="evenodd" clip-rule="evenodd" d="M50.772 35.603C49.394 32.542 47.944 32.48 46.635 32.427L43.111 32.384C41.885 32.384 39.893 32.844 38.209 34.684C36.525 36.524 31.774 40.971 31.774 50.016C31.774 59.061 38.362 67.801 39.28 69.029C40.198 70.257 51.998 89.41 70.685 96.779C86.214 102.903 89.374 101.685 92.746 101.379C96.118 101.073 103.623 96.932 105.154 92.639C106.685 88.346 106.686 84.668 106.227 83.899C105.768 83.13 104.542 82.673 102.702 81.753C100.862 80.833 91.825 76.386 90.14 75.772C88.455 75.158 87.23 74.853 86.003 76.693C84.776 78.533 81.257 82.672 80.184 83.899C79.111 85.126 78.04 85.28 76.2 84.361C74.36 83.442 68.44 81.5 61.416 75.237C55.951 70.364 52.262 64.346 51.188 62.507C50.114 60.668 51.074 59.672 51.996 58.756C52.821 57.932 53.834 56.609 54.755 55.536C55.676 54.463 55.979 53.696 56.591 52.471C57.203 51.246 56.898 50.17 56.438 49.251C55.978 48.332 52.406 39.239 50.772 35.603Z" fill="white"/>
<defs>
<linearGradient id="paint0_linear_625_466" x1="67.915" y1="12.567" x2="68.535" y2="117.092" gradientUnits="userSpaceOnUse">
<stop stop-color="#57D163"/>
<stop offset="1" stop-color="#23B33A"/>
</linearGradient>
</defs>
</svg>
