<svg width="36" height="36" viewBox="0 0 36 36" fill="none" xmlns="http://www.w3.org/2000/svg">
<g clip-path="url(#clip0_389_657)">
<path d="M27.4737 8.5262L18.9475 7.57886L8.52638 8.5262L7.57886 18L8.5262 27.4737L18 28.6579L27.4737 27.4737L28.4211 17.7633L27.4737 8.5262Z" fill="white"/>
<path d="M12.413 23.2247C11.7049 22.7462 11.2146 22.0477 10.9469 21.1239L12.5907 20.4466C12.7399 21.015 13.0003 21.4555 13.3722 21.7681C13.7418 22.0808 14.1918 22.2347 14.7175 22.2347C15.2552 22.2347 15.7171 22.0712 16.103 21.7444C16.4889 21.4175 16.6833 21.0006 16.6833 20.4962C16.6833 19.98 16.4796 19.5583 16.0722 19.2316C15.6649 18.9049 15.1533 18.7412 14.5422 18.7412H13.5925V17.1142H14.445C14.9708 17.1142 15.4138 16.9722 15.7738 16.688C16.1338 16.4038 16.3138 16.0153 16.3138 15.5203C16.3138 15.0799 16.1527 14.7292 15.8307 14.4664C15.5086 14.2036 15.1011 14.071 14.6061 14.071C14.123 14.071 13.7392 14.1989 13.455 14.4571C13.1708 14.7152 12.9647 15.0325 12.8346 15.4067L11.2075 14.7294C11.423 14.1183 11.8186 13.5783 12.3988 13.1117C12.9791 12.6452 13.7203 12.4106 14.6203 12.4106C15.2858 12.4106 15.885 12.5386 16.4157 12.7967C16.9461 13.0549 17.363 13.4125 17.6638 13.8672C17.9646 14.3242 18.1138 14.836 18.1138 15.4042C18.1138 15.9845 17.9741 16.4747 17.6946 16.8773C17.415 17.28 17.0716 17.5878 16.6642 17.8034V17.9005C17.1903 18.1173 17.6472 18.4736 17.9858 18.9308C18.3292 19.3927 18.502 19.9445 18.502 20.5888C18.502 21.233 18.3386 21.8084 18.0117 22.313C17.6848 22.8175 17.2325 23.2153 16.6594 23.5042C16.0839 23.7931 15.4374 23.94 14.7197 23.94C13.8885 23.9423 13.1211 23.7031 12.413 23.2247ZM22.5 15.068L20.7047 16.373L19.8024 15.0041L23.04 12.6688H24.2811V23.6842H22.5V15.068Z" fill="#1A73E8"/>
<path d="M27.4738 36L36 27.4738L31.7369 25.5791L27.4738 27.4738L25.5791 31.7369L27.4738 36Z" fill="#EA4335"/>
<path d="M6.63159 31.737L8.52627 36.0001H27.4736V27.4739H8.52627L6.63159 31.737Z" fill="#34A853"/>
<path d="M2.84202 0C1.27188 0 0 1.27188 0 2.84202V27.4736L4.26312 29.3683L8.52624 27.4736V8.52624H27.4736L29.3683 4.26312L27.4738 0H2.84202Z" fill="#4285F4"/>
<path d="M0 27.4739V33.1581C0 34.7284 1.27188 36.0001 2.84202 36.0001H8.52624V27.4739H0Z" fill="#188038"/>
<path d="M27.4738 8.52627V27.4736H36V8.52627L31.7369 6.63159L27.4738 8.52627Z" fill="#FBBC04"/>
<path d="M36 8.52624V2.84202C36 1.2717 34.7281 0 33.158 0H27.4738V8.52624H36Z" fill="#1967D2"/>
</g>
<defs>
<clipPath id="clip0_389_657">
<rect width="36" height="36" fill="white"/>
</clipPath>
</defs>
</svg>
