<svg width="36" height="32" viewBox="0 0 36 32" fill="none" xmlns="http://www.w3.org/2000/svg">
<g clip-path="url(#clip0_389_770)">
<path d="M24.6054 21.6819H11.4344L5.79443 31.4249C6.47293 31.7661 7.24343 31.9849 7.74177 31.9849C12.9229 31.9849 23.4968 31.909 28.7458 31.909C29.2855 31.909 29.7907 31.7271 30.2438 31.442L24.6054 21.6819Z" fill="#4185F3"/>
<path d="M5.79443 31.4252L11.4344 21.6821H0.00571493C-3.5078e-05 22.3592 0.243382 22.9787 0.624799 23.6853C1.6874 25.6514 3.48523 28.7942 4.54132 30.4357C4.8016 30.8402 5.83507 31.4456 5.79443 31.4252Z" fill="#1767D1"/>
<path d="M24.6055 21.6819L30.2458 31.4405C30.9769 30.981 31.5726 30.2531 31.9593 29.5829C32.8326 28.0714 34.3092 25.5545 35.3277 23.8504C35.8011 23.0581 35.9851 22.3465 35.9736 21.6812L24.6055 21.6819Z" fill="#E94235"/>
<path d="M11.4356 21.6825L18.0144 10.3715L12.1348 0.677002C11.4989 1.09061 10.9549 1.65206 10.7081 2.0797C8.14165 6.53116 2.97163 15.6544 0.371858 20.1635C0.105464 20.6248 -0.0220815 21.1519 0.00424129 21.6825H11.4356Z" fill="#30A753"/>
<path d="M24.6051 21.6825L18.0144 10.3715L23.7326 0.687988C24.3685 1.10197 25.0666 1.65206 25.3135 2.08007C27.8799 6.53116 33.0499 15.6544 35.6508 20.1634C35.9191 20.6271 36 21.1518 35.974 21.6825H24.6051Z" fill="#F9BC00"/>
<path d="M12.134 0.678614L18.0144 10.3716L23.7326 0.688091C23.1422 0.346896 22.3062 0.144832 21.4966 0.119432C19.2441 0.0451268 15.5925 0.0151774 13.6271 0.0997181C13.1426 0.120569 12.1402 0.674444 12.134 0.678614Z" fill="#0F8038"/>
</g>
<defs>
<clipPath id="clip0_389_770">
<rect width="36" height="32" fill="white"/>
</clipPath>
</defs>
</svg>
