<svg width="48" height="36" viewBox="0 0 48 36" fill="none" xmlns="http://www.w3.org/2000/svg">
<g clip-path="url(#clip0_389_667)">
<path d="M3.27273 36H10.9091V17.4545L0 9.27271V32.7272C0 34.5382 1.46727 36 3.27273 36Z" fill="#4285F4"/>
<path d="M37.0909 36H44.7273C46.5382 36 48 34.5327 48 32.7272V9.27271L37.0909 17.4545" fill="#34A853"/>
<path d="M37.0909 3.27273V17.4546L48 9.27273V4.9091C48 0.861825 43.38 -1.44545 40.1455 0.981825" fill="#FBBC04"/>
<path d="M10.9091 17.4545V3.27271L24 13.0909L37.0909 3.27271V17.4545L24 27.2727" fill="#EA4335"/>
<path d="M0 4.9091V9.27273L10.9091 17.4546V3.27273L7.85455 0.981825C4.61455 -1.44545 0 0.861825 0 4.9091Z" fill="#C5221F"/>
</g>
<defs>
<clipPath id="clip0_389_667">
<rect width="48" height="36" fill="white"/>
</clipPath>
</defs>
</svg>
