<svg width="36" height="36" viewBox="0 0 36 36" fill="none" xmlns="http://www.w3.org/2000/svg">
<g clip-path="url(#clip0_389_737)">
<path d="M35.1412 17.1186C35.5354 17.9888 35.7855 18.919 35.8878 19.868C35.9864 20.8169 35.9371 21.7771 35.7324 22.711C35.5316 23.645 35.1829 24.5414 34.6977 25.3666C34.3793 25.918 34.0041 26.4356 33.572 26.9119C33.1437 27.3845 32.6662 27.8121 32.1469 28.1872C31.6239 28.5623 31.0667 28.8773 30.4754 29.1361C29.888 29.3912 29.2739 29.5862 28.6448 29.7138C28.3491 30.6214 27.9095 31.4804 27.3409 32.253C26.7762 33.0257 26.0902 33.7046 25.3094 34.2635C24.5286 34.8261 23.6644 35.2612 22.7472 35.5537C21.83 35.85 20.8711 35.9963 19.9046 35.9963C19.264 36.0001 18.6197 35.9326 17.9905 35.805C17.3651 35.6737 16.7511 35.475 16.1636 35.2162C15.5762 34.9573 15.019 34.6348 14.4997 34.2597C13.9843 33.8846 13.5067 33.4533 13.0822 32.9769C12.1347 33.1795 11.1644 33.2282 10.2055 33.1307C9.24653 33.0294 8.30656 32.7819 7.42345 32.3918C6.54412 32.0055 5.72923 31.4804 5.01288 30.839C4.29653 30.1976 3.68631 29.4475 3.20495 28.6223C2.88279 28.0709 2.61747 27.4895 2.41659 26.8857C2.21571 26.2818 2.08306 25.6592 2.01483 25.0253C1.94661 24.3951 1.9504 23.7575 2.01862 23.1236C2.08685 22.4935 2.22708 21.8709 2.42796 21.267C1.78363 20.5581 1.253 19.7517 0.858821 18.8815C0.468431 18.0076 0.214487 17.0811 0.115942 16.1322C0.0136067 15.1832 0.0666695 14.223 0.26755 13.2891C0.468431 12.3551 0.817129 11.4587 1.30227 10.6335C1.62065 10.0822 1.99588 9.56081 2.42417 9.08821C2.85247 8.61561 3.33382 8.18802 3.85308 7.81294C4.37234 7.43787 4.93329 7.11905 5.52077 6.864C6.11204 6.60519 6.72605 6.4139 7.35522 6.28638C7.65086 5.37494 8.09052 4.51976 8.65526 3.7471C9.22379 2.97444 9.90982 2.29555 10.6906 1.73293C11.4714 1.17406 12.3355 0.738972 13.2528 0.44266C14.17 0.150099 15.1289 6.76105e-05 16.0954 0.00381839C16.736 6.76105e-05 17.3803 0.0638309 18.0095 0.195108C18.6386 0.326386 19.2527 0.521426 19.8401 0.78023C20.4276 1.04278 20.9848 1.3616 21.504 1.73668C22.0233 2.11551 22.5009 2.5431 22.9254 3.01945C23.8691 2.82066 24.8394 2.7719 25.7983 2.86942C26.7573 2.96694 27.6934 3.21824 28.5765 3.60457C29.4559 3.99465 30.2708 4.51601 30.9871 5.15739C31.7035 5.79502 32.3137 6.54143 32.795 7.37035C33.1172 7.91797 33.3825 8.49934 33.5834 9.10696C33.7843 9.71084 33.9207 10.3335 33.9852 10.9674C34.0534 11.6012 34.0534 12.2389 33.9814 12.8727C33.9131 13.5066 33.7729 14.1293 33.572 14.7331C34.2202 15.442 34.747 16.2447 35.1412 17.1186ZM22.5122 33.1307C23.3385 32.7931 24.089 32.2943 24.7219 31.6679C25.3549 31.0415 25.859 30.2989 26.2001 29.4775C26.5412 28.6598 26.7194 27.7821 26.7194 26.8969V18.5327C26.7168 18.5252 26.7143 18.5164 26.7118 18.5064C26.7092 18.4989 26.7055 18.4914 26.7004 18.4839C26.6953 18.4764 26.689 18.4702 26.6814 18.4652C26.6739 18.4577 26.6663 18.4527 26.6587 18.4502L23.6 16.7023V26.8069C23.6 26.9082 23.5849 27.0132 23.5583 27.1107C23.5318 27.212 23.4939 27.3058 23.4408 27.3958C23.3878 27.4858 23.3271 27.5683 23.2513 27.6396C23.1776 27.7123 23.0948 27.7753 23.005 27.8271L15.7619 31.9642C15.7012 32.0017 15.5989 32.0542 15.5458 32.0843C15.8453 32.3356 16.1712 32.5568 16.5123 32.7519C16.8573 32.9469 17.2135 33.112 17.585 33.247C17.9564 33.3783 18.3392 33.4795 18.7258 33.5471C19.1162 33.6146 19.5104 33.6483 19.9046 33.6483C20.7991 33.6483 21.686 33.472 22.5122 33.1307ZM5.26303 27.452C5.71407 28.2209 6.30913 28.8886 7.0179 29.4287C7.73045 29.9688 8.53777 30.3626 9.40193 30.5914C10.2661 30.8202 11.1682 30.8802 12.0551 30.764C12.942 30.6477 13.7948 30.3626 14.5718 29.92L21.8944 25.7379L21.9134 25.7192C21.9184 25.7142 21.9222 25.7067 21.9247 25.6967C21.9298 25.6892 21.9336 25.6817 21.9361 25.6742V22.1484L13.0974 27.2082C13.0064 27.2607 12.9117 27.2983 12.8131 27.3283C12.7108 27.3545 12.6084 27.3658 12.5023 27.3658C12.4 27.3658 12.2976 27.3545 12.1953 27.3283C12.0968 27.2983 11.9982 27.2607 11.9073 27.2082L4.66418 23.0674C4.59975 23.0299 4.50499 22.9736 4.45193 22.9398C4.38371 23.3262 4.34959 23.7163 4.34959 24.1063C4.34959 24.4964 4.3875 24.8865 4.45572 25.2728C4.52394 25.6554 4.63007 26.0342 4.76273 26.4018C4.89917 26.7694 5.06594 27.122 5.26303 27.4595V27.452ZM3.36035 11.8113C2.91311 12.5802 2.62505 13.4279 2.50756 14.3055C2.39006 15.1832 2.4507 16.0722 2.68191 16.9311C2.91311 17.7863 3.31108 18.5852 3.85687 19.2903C4.40266 19.9917 5.0811 20.5806 5.8543 21.0232L13.1732 25.2091C13.1808 25.2116 13.1896 25.2141 13.1997 25.2166H13.2262C13.2363 25.2166 13.2452 25.2141 13.2528 25.2091C13.2604 25.2066 13.2679 25.2028 13.2755 25.1978L16.3456 23.4425L7.50683 18.3939C7.41966 18.3414 7.33627 18.2776 7.26047 18.2064C7.18702 18.1334 7.12334 18.0515 7.07096 17.9626C7.02169 17.8725 6.97999 17.7788 6.95346 17.6775C6.92693 17.58 6.91177 17.4787 6.91556 17.3737V8.85566C6.54412 8.99069 6.18405 9.15572 5.84293 9.35077C5.50182 9.54956 5.17965 9.7746 4.87643 10.0259C4.57701 10.2772 4.29653 10.5548 4.04259 10.8548C3.78865 11.1511 3.56502 11.4737 3.36793 11.8113H3.36035ZM28.5007 17.6025C28.5917 17.655 28.6751 17.715 28.7509 17.79C28.8229 17.8613 28.8873 17.9438 28.9404 18.0338C28.9897 18.1238 29.0314 18.2214 29.0579 18.3189C29.0806 18.4202 29.0958 18.5214 29.092 18.6264V27.1445C30.3087 26.7019 31.3699 25.9255 32.1545 24.9053C32.9429 23.885 33.4166 22.666 33.5265 21.3908C33.6365 20.1155 33.3787 18.8327 32.7799 17.6963C32.181 16.5598 31.2676 15.6146 30.1457 14.9769L22.8268 10.7911C22.8192 10.7886 22.8104 10.7861 22.8003 10.7836H22.7738C22.7662 10.7861 22.7573 10.7886 22.7472 10.7911C22.7396 10.7936 22.7321 10.7973 22.7245 10.8023L19.6696 12.5502L28.5083 17.6025H28.5007ZM31.5519 13.064H31.5481V13.0678L31.5519 13.064ZM31.5481 13.0603C31.7679 11.8 31.6201 10.5023 31.1198 9.32076C30.6233 8.13926 29.7932 7.1228 28.7319 6.38765C27.6707 5.65625 26.4199 5.23616 25.1275 5.1799C23.8312 5.12739 22.5501 5.4387 21.4282 6.07633L14.1094 10.2585C14.1018 10.2635 14.0955 10.2697 14.0904 10.2772L14.0752 10.2997C14.0727 10.3072 14.0702 10.316 14.0677 10.326C14.0651 10.3335 14.0639 10.3422 14.0639 10.3522V13.848L22.9026 8.79565C22.9936 8.74314 23.0921 8.70563 23.1907 8.67562C23.293 8.64937 23.3953 8.63812 23.4977 8.63812C23.6038 8.63812 23.7061 8.64937 23.8085 8.67562C23.907 8.70563 24.0018 8.74314 24.0927 8.79565L31.3358 12.9365C31.4002 12.974 31.495 13.0265 31.5481 13.0603ZM12.3962 9.18948C12.3962 9.08821 12.4113 8.98694 12.4379 8.88567C12.4644 8.78815 12.5023 8.69063 12.5554 8.60061C12.6084 8.51434 12.6691 8.43182 12.7449 8.35681C12.8169 8.28554 12.9003 8.22178 12.9912 8.17302L20.2343 4.03591C20.3025 3.99465 20.3973 3.94214 20.4504 3.91588C19.4573 3.09446 18.2445 2.56935 16.9596 2.40807C15.6747 2.24303 14.3709 2.44558 13.1997 2.98944C12.0247 3.5333 11.0317 4.39973 10.3381 5.47996C9.6445 6.56393 9.27685 7.8167 9.27685 9.09946V17.4637C9.27938 17.4737 9.28191 17.4825 9.28443 17.49C9.28696 17.4975 9.29075 17.505 9.2958 17.5125C9.30086 17.52 9.30718 17.5275 9.31476 17.535C9.31981 17.54 9.32739 17.545 9.3375 17.55L12.3962 19.2978V9.18948ZM14.0563 20.243L17.9943 22.4935L21.9323 20.243V15.7458L17.9981 13.4954L14.0601 15.7458L14.0563 20.243Z" fill="black"/>
</g>
<defs>
<clipPath id="clip0_389_737">
<rect width="36" height="36" fill="white"/>
</clipPath>
</defs>
</svg>
