<svg width="36" height="36" viewBox="0 0 36 36" fill="none" xmlns="http://www.w3.org/2000/svg">
<g clip-path="url(#clip0_433_513)">
<path d="M11.751 35C14.9244 35 17.4999 32.4613 17.4999 29.3333V23.6667H11.751C8.57768 23.6667 6.0022 26.2053 6.0022 29.3333C6.0022 32.4613 8.57768 35 11.751 35Z" fill="#0ACF83"/>
<path d="M6.0022 18C6.0022 14.872 8.57768 12.3333 11.751 12.3333H17.4999V23.6667H11.751C8.57768 23.6667 6.0022 21.128 6.0022 18Z" fill="#A259FF"/>
<path d="M6.00293 6.66667C6.00293 3.53867 8.57841 1 11.7518 1H17.5006V12.3333H11.7518C8.57841 12.3333 6.00293 9.79467 6.00293 6.66667Z" fill="#F24E1E"/>
<path d="M17.5 1H23.2488C26.4222 1 28.9977 3.53867 28.9977 6.66667C28.9977 9.79467 26.4222 12.3333 23.2488 12.3333H17.5V1Z" fill="#FF7262"/>
<path d="M28.9977 18C28.9977 21.128 26.4222 23.6667 23.2488 23.6667C20.0755 23.6667 17.5 21.128 17.5 18C17.5 14.872 20.0755 12.3333 23.2488 12.3333C26.4222 12.3333 28.9977 14.872 28.9977 18Z" fill="#1ABCFE"/>
</g>
<defs>
<clipPath id="clip0_433_513">
<rect width="23" height="34" fill="white" transform="translate(6 1)"/>
</clipPath>
</defs>
</svg>
