<svg width="36" height="37" viewBox="0 0 36 37" fill="none" xmlns="http://www.w3.org/2000/svg">
<g clip-path="url(#clip0_389_778)">
<path d="M24.6755 23.9931C23.5116 25.0353 22.0594 26.3323 19.4186 26.3323H17.8439C15.935 26.3323 14.1994 25.6334 12.9574 24.3647C11.7442 23.1256 11.0759 21.4294 11.0759 19.5881V17.4119C11.0759 15.5707 11.7442 13.8744 12.9574 12.6354C14.1994 11.3667 15.935 10.6678 17.8439 10.6678H19.4186C22.0594 10.6678 23.5102 11.9648 24.6755 13.007C25.884 14.0878 26.9281 15.0209 29.7092 15.0209C30.1335 15.021 30.5571 14.9868 30.9759 14.9187C30.9759 14.9104 30.9704 14.9028 30.967 14.8945C30.8002 14.4772 30.6046 14.0721 30.3816 13.6824L28.522 10.4329C27.6836 8.96822 26.4778 7.7519 25.0257 6.90618C23.5737 6.06047 21.9265 5.61516 20.2498 5.61499H16.53C14.8533 5.61516 13.2062 6.06047 11.7541 6.90618C10.3021 7.7519 9.09623 8.96822 8.25782 10.4329L6.39825 13.6824C5.55997 15.1472 5.11865 16.8087 5.11865 18.5C5.11865 20.1914 5.55997 21.8529 6.39825 23.3176L8.25782 26.5671C9.09627 28.0318 10.3021 29.248 11.7542 30.0936C13.2062 30.9392 14.8534 31.3844 16.53 31.3844H20.2498C21.9265 31.3844 23.5736 30.9392 25.0257 30.0936C26.4777 29.248 27.6836 28.0318 28.522 26.5671L30.3816 23.3176C30.6046 22.9279 30.8002 22.5229 30.967 22.1056C30.967 22.0973 30.9731 22.0897 30.9759 22.0814C30.5571 22.0133 30.1335 21.9791 29.7092 21.9792C26.9281 21.9792 25.884 22.9122 24.6755 23.9931Z" fill="#006BFF"/>
<path d="M19.4186 12.6389H17.8439C14.9395 12.6389 13.0306 14.7316 13.0306 17.4106V19.5868C13.0306 22.2658 14.9395 24.3585 17.8439 24.3585H19.4186C23.6513 24.3585 23.3212 20.0074 29.7092 20.0074C30.3148 20.0069 30.9192 20.0626 31.5147 20.1739C31.7085 19.0668 31.7085 17.9341 31.5147 16.827C30.9193 16.9388 30.3149 16.9947 29.7092 16.9941C23.3192 16.9934 23.6513 12.6389 19.4186 12.6389Z" fill="#006BFF"/>
<path d="M35.1859 21.7643C34.0971 20.9615 32.8418 20.4184 31.5147 20.1759C31.5147 20.1869 31.5113 20.198 31.5092 20.2083C31.3953 20.8503 31.2166 21.4788 30.9759 22.0841C32.0723 22.2552 33.1127 22.687 34.011 23.3439C34.011 23.3535 34.0056 23.3632 34.0021 23.3735C33.493 25.0414 32.7236 26.6167 31.7229 28.0402C30.7336 29.4506 29.5324 30.6968 28.1626 31.7338C24.8465 34.2502 20.7074 35.4036 16.581 34.9612C12.4547 34.5187 8.64843 32.5133 5.93091 29.35C3.21339 26.1866 1.78703 22.1009 1.93986 17.9179C2.09268 13.7349 3.8133 9.76624 6.75428 6.81323C8.75224 4.79935 11.2321 3.34036 13.9535 2.57771C16.675 1.81507 19.5455 1.77465 22.287 2.46036C25.0285 3.14608 27.5478 4.53467 29.6007 6.49151C31.6536 8.44835 33.1704 10.907 34.0042 13.6292C34.0076 13.6396 34.0103 13.6492 34.0131 13.6589C33.1141 14.3158 32.073 14.7474 30.9759 14.918C31.2165 15.5238 31.3955 16.1528 31.5099 16.7951C31.5099 16.8055 31.5099 16.8159 31.5147 16.8255C32.842 16.5836 34.0974 16.0404 35.1859 15.237C36.2328 14.4559 36.0301 13.5733 35.8706 13.0511C33.5639 5.49202 26.5878 0 18.3396 0C8.21126 0 0 8.28292 0 18.4997C0 28.7164 8.21126 37 18.3396 37C26.5878 37 33.5639 31.508 35.8672 23.9509C36.0301 23.4288 36.2328 22.5462 35.1859 21.7643Z" fill="#006BFF"/>
<path d="M30.9759 14.9179C30.5571 14.986 30.1335 15.0202 29.7092 15.0201C26.9281 15.0201 25.884 14.0871 24.6755 13.0062C23.5116 11.964 22.0594 10.667 19.4186 10.667H17.8439C15.935 10.667 14.1994 11.3659 12.9574 12.6346C11.7442 13.8737 11.0759 15.5699 11.0759 17.4112V19.5874C11.0759 21.4286 11.7442 23.1249 12.9574 24.3639C14.1994 25.6326 15.935 26.3315 17.8439 26.3315H19.4186C22.0594 26.3315 23.5102 25.0345 24.6755 23.9923C25.884 22.9115 26.9281 21.9784 29.7092 21.9784C30.1335 21.9783 30.5571 22.0125 30.9759 22.0806C31.2166 21.4753 31.3953 20.8468 31.5092 20.2048C31.5092 20.1945 31.5134 20.1834 31.5147 20.1724C30.9192 20.0611 30.3149 20.0054 29.7092 20.0059C23.3192 20.0059 23.6513 24.357 19.4186 24.357H17.8439C14.9395 24.357 13.0307 22.2643 13.0307 19.5853V17.4118C13.0307 14.7328 14.9395 12.6402 17.8439 12.6402H19.4186C23.6513 12.6402 23.3213 16.9912 29.7092 16.9912C30.3149 16.9919 30.9193 16.9359 31.5147 16.8241C31.5147 16.8144 31.5147 16.8041 31.5099 16.7937C31.3954 16.1518 31.2165 15.5233 30.9759 14.9179Z" fill="#0AE9EF"/>
<path d="M30.9759 14.9179C30.5571 14.986 30.1335 15.0202 29.7092 15.0201C26.9281 15.0201 25.884 14.0871 24.6755 13.0062C23.5116 11.964 22.0594 10.667 19.4186 10.667H17.8439C15.935 10.667 14.1994 11.3659 12.9574 12.6346C11.7442 13.8737 11.0759 15.5699 11.0759 17.4112V19.5874C11.0759 21.4286 11.7442 23.1249 12.9574 24.3639C14.1994 25.6326 15.935 26.3315 17.8439 26.3315H19.4186C22.0594 26.3315 23.5102 25.0345 24.6755 23.9923C25.884 22.9115 26.9281 21.9784 29.7092 21.9784C30.1335 21.9783 30.5571 22.0125 30.9759 22.0806C31.2166 21.4753 31.3953 20.8468 31.5092 20.2048C31.5092 20.1945 31.5134 20.1834 31.5147 20.1724C30.9192 20.0611 30.3149 20.0054 29.7092 20.0059C23.3192 20.0059 23.6513 24.357 19.4186 24.357H17.8439C14.9395 24.357 13.0307 22.2643 13.0307 19.5853V17.4118C13.0307 14.7328 14.9395 12.6402 17.8439 12.6402H19.4186C23.6513 12.6402 23.3213 16.9912 29.7092 16.9912C30.3149 16.9919 30.9193 16.9359 31.5147 16.8241C31.5147 16.8144 31.5147 16.8041 31.5099 16.7937C31.3954 16.1518 31.2165 15.5233 30.9759 14.9179Z" fill="#0AE9EF"/>
</g>
<defs>
<clipPath id="clip0_389_778">
<rect width="36" height="37" fill="white"/>
</clipPath>
</defs>
</svg>
