<svg width="36" height="36" viewBox="0 0 36 36" fill="none" xmlns="http://www.w3.org/2000/svg">
<path d="M27.0329 12.1863V7.95849C27.5916 7.69737 28.0647 7.28294 28.397 6.76343C28.7293 6.24392 28.9073 5.64071 28.9101 5.02401V4.927C28.9101 3.12892 27.4525 1.67128 25.6545 1.67128H25.5574C23.7593 1.67128 22.3017 3.12892 22.3017 4.927V5.02401C22.3045 5.64071 22.4825 6.24392 22.8148 6.76343C23.1471 7.28294 23.6202 7.69737 24.1788 7.95849V12.1863C22.5731 12.4322 21.0608 13.098 19.7952 14.1163L8.20025 5.08505C8.28292 4.78658 8.32605 4.47967 8.33092 4.1716C8.33234 3.44602 8.11853 2.73631 7.71655 2.13226C7.31456 1.5282 6.74246 1.05694 6.0726 0.778071C5.40275 0.499204 4.66523 0.425265 3.95335 0.565607C3.24146 0.705948 2.58719 1.05427 2.07329 1.5665C1.5594 2.07873 1.20896 2.73187 1.06631 3.4433C0.923659 4.15472 0.995206 4.89247 1.2719 5.56323C1.54859 6.23399 2.018 6.80762 2.62075 7.21156C3.2235 7.6155 3.93251 7.83161 4.65809 7.83254C5.29285 7.82955 5.91571 7.66009 6.46449 7.34108L17.8822 16.2258C15.783 19.3968 15.8392 23.5296 18.0236 26.6426L14.5509 30.1163C14.2701 30.0266 13.9778 29.9789 13.6831 29.9748C12.0199 29.9763 10.6726 31.325 10.6731 32.9881C10.6735 34.6511 12.0217 35.9991 13.6846 35.9996C15.3477 36 16.6965 34.6527 16.6979 32.9896C16.694 32.6949 16.6463 32.4025 16.5564 32.1218L19.9918 28.6851C23.0614 31.0482 27.2773 31.2518 30.5603 29.1955C33.8433 27.1391 35.5001 23.2569 34.7135 19.4639C33.9268 15.6707 30.863 12.7677 27.0329 12.1863ZM25.609 26.0911C24.9743 26.1082 24.3426 25.9979 23.7513 25.7668C23.1599 25.5358 22.6209 25.1885 22.1659 24.7457C21.711 24.3028 21.3494 23.7733 21.1025 23.1883C20.8556 22.6034 20.7284 21.9749 20.7284 21.34C20.7284 20.7051 20.8556 20.0767 21.1025 19.4918C21.3494 18.9068 21.711 18.3773 22.1659 17.9344C22.6209 17.4916 23.1599 17.1443 23.7513 16.9133C24.3426 16.6822 24.9743 16.5719 25.609 16.589C28.1666 16.6785 30.1941 18.7772 30.1955 21.3366C30.1967 23.8957 28.1713 25.9965 25.6137 26.0887" fill="#FF7A59"/>
</svg>
