<svg width="36" height="41" viewBox="0 0 36 41" fill="none" xmlns="http://www.w3.org/2000/svg">
<g clip-path="url(#clip0_389_704)">
<path d="M34.5537 37.0843C34.4252 37.2138 34.2646 37.2785 34.0718 37.2785C33.879 37.2785 33.7184 37.2138 33.5899 37.0843C33.4614 36.9549 33.3971 36.7931 33.3971 36.5989C33.3971 36.4048 33.4614 36.2268 33.6059 36.0974C33.7345 35.9679 33.8951 35.9194 34.0718 35.9194C34.2646 35.9194 34.4252 35.9841 34.5537 36.1135C34.6822 36.243 34.7465 36.4048 34.7465 36.5989C34.7625 36.7931 34.6983 36.9549 34.5537 37.0843ZM33.6863 36.1944C33.5738 36.3077 33.5256 36.4371 33.5256 36.5828C33.5256 36.7446 33.5738 36.874 33.6863 36.9873C33.7987 37.1005 33.9272 37.1491 34.0879 37.1491C34.2485 37.1491 34.377 37.1005 34.4894 36.9873C34.6019 36.874 34.6501 36.7446 34.6501 36.5828C34.6501 36.4371 34.6019 36.2915 34.4894 36.1944C34.377 36.0812 34.2485 36.0165 34.0879 36.0165C33.9272 36.0326 33.7987 36.0812 33.6863 36.1944ZM34.2967 36.9387C34.2324 36.9873 34.1682 37.0034 34.1039 37.0034C34.0075 37.0034 33.9112 36.9711 33.8308 36.8902C33.7505 36.8093 33.7184 36.7122 33.7184 36.5989C33.7184 36.4857 33.7505 36.3886 33.8148 36.3077C33.879 36.2268 33.9754 36.1944 34.0879 36.1944C34.1521 36.1944 34.2164 36.2106 34.2806 36.243C34.3609 36.2915 34.4252 36.3724 34.4413 36.5019H34.2646C34.2485 36.4533 34.2324 36.4048 34.2003 36.3886C34.1682 36.3724 34.136 36.3562 34.1039 36.3562C34.0557 36.3562 34.0075 36.3724 33.9754 36.421C33.9433 36.4695 33.9272 36.5342 33.9272 36.6151C33.9272 36.696 33.9433 36.7607 33.9754 36.7931C34.0075 36.8255 34.0557 36.8578 34.1039 36.8578C34.1521 36.8578 34.1842 36.8416 34.2164 36.8255L34.2646 36.7284H34.4252C34.4091 36.8255 34.3609 36.8902 34.2967 36.9387ZM35.9994 29.7548C35.9994 29.6901 35.9834 29.6254 35.9834 29.5607C35.9834 29.5121 35.9673 29.4798 35.9673 29.4474C35.9512 29.3503 35.9352 29.2694 35.9031 29.1723C35.8388 28.9944 35.7424 28.8164 35.6139 28.6708C35.4854 28.5251 35.3408 28.4119 35.1963 28.331C35.0356 28.2501 34.875 28.2015 34.7465 28.1692C34.6983 28.1692 34.6661 28.153 34.634 28.153C34.8107 27.3764 34.5858 26.7777 34.4413 26.5027L34.4734 26.4703C34.6661 26.2761 34.8268 26.0982 34.9714 25.9202L35.0035 25.8878C35.1159 25.726 35.1802 25.5642 35.2284 25.4186C35.2605 25.2892 35.2926 25.1759 35.2926 25.0626V24.9656V24.9008V24.7552C35.2766 24.5125 35.2444 24.2051 35.0838 23.8653C35.0035 23.7035 34.891 23.5255 34.7465 23.3637C34.6019 23.2019 34.4252 23.0563 34.2164 22.9431C34.2003 22.9269 34.1842 22.9269 34.1682 22.9107C33.7345 22.2797 33.2525 21.7781 32.8188 21.406C32.5939 21.2118 32.3851 21.05 32.2084 20.9206C32.0317 20.7911 31.8871 20.6941 31.8068 20.6293C31.614 20.4837 31.4695 20.4028 31.4052 20.3705C31.2446 20.2734 31.1321 20.1925 31.0679 20.1439C31.0197 20.0954 30.9875 20.0792 30.9715 20.063C30.9715 20.063 30.9715 20.0469 30.9554 20.0145C30.9394 19.966 30.9394 19.9012 30.9394 19.788C30.9394 19.6262 30.9394 19.3835 30.9554 19.0599C30.9875 18.5421 31.0357 17.8464 31.1 16.8918C31.1161 16.5843 31.1161 16.2931 31.1161 16.0342C31.1 15.5974 31.0357 15.209 30.9554 14.8531C30.9394 14.7722 30.9072 14.6913 30.8912 14.6104C30.8751 14.5457 30.859 14.5133 30.843 14.4809C30.8269 14.4324 30.8108 14.3839 30.7787 14.3191C30.7627 14.2868 30.7627 14.2544 30.7305 14.2221C30.6984 14.1412 30.6663 14.0603 30.6181 13.9794L30.602 13.9632L30.586 13.9147L30.5699 13.8823C30.4896 13.7367 30.3932 13.6072 30.2968 13.494C30.2486 13.2675 30.1683 12.9439 30.0237 12.5717C29.8952 12.2481 29.7346 11.8922 29.4936 11.5362C29.4133 11.4068 29.3169 11.2935 29.2205 11.1802L29.2527 11.1479C29.3009 11.0993 30.4253 9.90202 31.3249 8.34875C32.9795 5.45254 32.4333 3.68892 31.6783 2.71812L31.6622 2.68576L31.6462 2.6534C30.9233 1.84441 29.9273 1.35901 28.7226 1.19721C26.2005 0.873609 23.3412 2.13565 22.5862 2.4916L21.2047 0.970689C21.0762 0.841249 20.9477 0.71181 20.8031 0.61473C20.6586 0.51765 20.4979 0.420571 20.3373 0.339671C20.016 0.194051 19.6626 0.0969716 19.2771 0.0484317C18.5221 -0.048648 17.6546 0.0484317 16.7229 0.291131C15.3254 0.64709 13.7672 1.35901 12.1287 2.34598C10.4902 3.33296 8.78744 4.61118 7.13287 6.13209C5.10884 7.97661 3.4382 9.93438 2.21736 11.8113C1.60694 12.7335 1.10896 13.6396 0.739494 14.5133C0.370027 15.3708 0.129071 16.196 0.0326883 16.9403C-0.0315667 17.4904 -0.0315667 18.0082 0.0808796 18.4774C0.129071 18.6877 0.193326 18.8819 0.289708 19.0761C0.402155 19.3188 0.546729 19.5453 0.72343 19.7394L2.1531 21.2442L2.31374 21.406L2.29768 21.4221L2.24949 21.5192C2.21736 21.5678 2.2013 21.6163 2.16917 21.6487L2.12098 21.7457C2.10491 21.7943 2.07279 21.8428 2.05672 21.8914L2.00853 21.9884C1.99247 22.037 1.96034 22.0855 1.94428 22.1341C1.92821 22.1664 1.91215 22.1988 1.91215 22.2311L1.86396 22.3768C1.84789 22.4091 1.84789 22.4415 1.83183 22.4738C1.81577 22.5224 1.7997 22.5709 1.78364 22.6356C1.78364 22.6518 1.76757 22.668 1.76757 22.6842C1.76757 22.7004 1.75151 22.7165 1.75151 22.7327C1.73545 22.7813 1.71938 22.846 1.70332 22.8945C1.70332 22.9269 1.68726 22.9592 1.68726 22.9916C1.68726 23.0078 1.67119 23.0401 1.67119 23.0563C1.67119 23.0887 1.65513 23.121 1.65513 23.1534C1.65513 23.1858 1.63906 23.2181 1.63906 23.2505C1.623 23.3152 1.623 23.3799 1.60694 23.4608C1.60694 23.477 1.60694 23.4932 1.59087 23.5255V23.5417C1.59087 23.5903 1.57481 23.6388 1.57481 23.6712C1.57481 23.7359 1.55875 23.8168 1.55875 23.8815V24.6905C1.55875 24.7229 1.55875 24.7552 1.57481 24.7876C1.57481 24.8199 1.57481 24.8685 1.59087 24.917V24.9656C1.59087 24.9979 1.60694 25.0465 1.60694 25.0788C1.60694 25.1112 1.623 25.1435 1.623 25.1921C1.623 25.2083 1.623 25.2244 1.63906 25.2406C1.63906 25.2568 1.65513 25.2892 1.65513 25.3053V25.3377C1.65513 25.3701 1.67119 25.4024 1.68726 25.4671C1.68726 25.4833 1.68726 25.4833 1.70332 25.4995C1.71938 25.5319 1.71938 25.5642 1.71938 25.5804L1.73545 25.6128C1.73545 25.6289 1.73545 25.6289 1.75151 25.6451L1.76757 25.6775V25.726C1.76757 25.7422 1.76757 25.7422 1.78364 25.7584L1.7997 25.7907C1.7997 25.8231 1.81577 25.8393 1.81577 25.8716C1.83183 25.904 1.83183 25.9364 1.84789 26.0011C1.84789 26.0173 1.84789 26.0173 1.86396 26.0334C1.88002 26.082 1.89608 26.1143 1.89608 26.1305C1.91215 26.1629 1.92821 26.1952 1.94428 26.26L1.96034 26.2761C1.9764 26.3085 1.9764 26.3409 1.99247 26.357L2.00853 26.3894C2.00853 26.4056 2.02459 26.4218 2.02459 26.4379C2.02459 26.4541 2.04066 26.4865 2.05672 26.5027L2.07279 26.535C2.08885 26.5512 2.08885 26.5836 2.10491 26.5997C2.12098 26.6159 2.12098 26.6321 2.12098 26.6483C2.13704 26.6806 2.1531 26.713 2.16917 26.7615L2.18523 26.7777C2.2013 26.7939 2.2013 26.8101 2.21736 26.8263C2.23342 26.8424 2.23342 26.8748 2.24949 26.891C2.26555 26.9072 2.28161 26.9395 2.29768 26.9881L2.31374 27.0042C2.32981 27.0204 2.32981 27.0366 2.34587 27.0528C2.36193 27.0851 2.378 27.1013 2.378 27.1175C2.39406 27.1337 2.41012 27.166 2.42619 27.1984V27.2146C2.44225 27.2307 2.44225 27.2469 2.45832 27.2631C2.47438 27.2955 2.49044 27.3116 2.50651 27.3278C2.52257 27.344 2.53863 27.3764 2.57076 27.4249C2.58683 27.4411 2.60289 27.4573 2.60289 27.4735C2.61895 27.5058 2.63502 27.522 2.65108 27.5382C2.66714 27.5543 2.68321 27.5867 2.69927 27.6191C2.71534 27.6352 2.7314 27.6676 2.74746 27.6838C2.76353 27.7161 2.77959 27.7323 2.81172 27.7485L2.85991 27.797L2.87597 27.8132C2.9081 27.8456 2.92416 27.8779 2.95629 27.9103L2.98842 27.9427L3.03661 27.9912L3.13299 28.0883L3.16512 28.1206L3.21331 28.1692L3.22938 28.1854C3.2615 28.2177 3.30969 28.2501 3.34182 28.2986L3.35789 28.3148C3.37395 28.331 3.39001 28.331 3.40608 28.3633C3.45427 28.4119 3.50246 28.4442 3.55065 28.4928L3.58278 28.509L3.59884 28.5251L3.63097 28.5413C3.67916 28.5737 3.71129 28.606 3.75948 28.6384L3.77554 28.6546C3.79161 28.6708 3.80767 28.6708 3.80767 28.6708L3.8398 28.7031C3.87193 28.7355 3.90405 28.7517 3.93618 28.784L3.96831 28.8002L4.00044 28.8326L4.0165 28.8487C4.04863 28.8649 4.09682 28.8973 4.12895 28.9135C4.14501 28.9296 4.16107 28.9458 4.1932 28.9458L4.22533 28.962L4.24139 28.9782H4.25746C4.32171 29.0105 4.3699 29.0429 4.41809 29.0753L4.45022 29.0914L4.64299 29.1885H4.65905L4.69118 29.2047L4.78756 29.2532C4.80362 29.2532 4.81969 29.2694 4.83575 29.2694C4.85182 29.2856 4.86788 29.2856 4.90001 29.3018H4.91607C4.9482 29.318 4.98033 29.3341 5.01245 29.3341H5.02852C5.06064 29.3503 5.09277 29.3665 5.14096 29.3827H5.15703L5.18915 29.3989C5.20522 29.3989 5.22128 29.415 5.23735 29.415H5.25341C5.3016 29.4312 5.34979 29.4474 5.41405 29.4636H5.43011C5.51043 29.4959 5.59075 29.5121 5.67107 29.5283H5.68713C5.75139 29.5445 5.8317 29.5607 5.89596 29.5768H5.96021C6.02447 29.593 6.08872 29.6092 6.15298 29.6092H6.21723C6.26543 29.6092 6.29755 29.6254 6.34574 29.6254C6.34574 29.6416 6.36181 29.6577 6.36181 29.6739C6.47425 29.9813 6.5867 30.2888 6.71521 30.58C8.61073 35.8708 13.8636 39.9806 19.8554 40.741C25.8471 41.4853 32.2566 37.4727 34.8589 32.0524C34.9714 31.842 35.0677 31.6479 35.1641 31.4375C35.4211 31.1625 35.63 30.8874 35.7585 30.5962C35.9673 30.4182 36.0155 30.0622 35.9994 29.7548Z" fill="#664F44"/>
<path d="M30.8751 3.28449C30.586 2.96089 30.2486 2.71819 29.8791 2.54021C29.8149 2.50785 29.7506 2.49167 29.6703 2.47549C29.6382 2.45932 29.6061 2.42696 29.5739 2.41078C29.2527 2.28134 28.9153 2.20044 28.5619 2.1519C26.827 1.92538 24.8351 2.57257 23.7107 3.02561C23.6464 3.05797 23.5822 3.07415 23.5179 3.10651C23.4215 3.15505 23.3251 3.18741 23.2288 3.23595C23.0681 3.30067 22.9075 3.38157 22.7308 3.46247C22.6986 3.47865 22.6826 3.47865 22.6505 3.49483L22.3452 3.13887L22.2007 2.97707L22.0722 2.83145L22.024 2.76673L20.8513 1.40762L20.7549 1.29436L20.6264 1.14874H20.6104L20.273 1.22964L19.8875 1.31054C19.6787 1.21346 19.4216 1.14874 19.1325 1.1002C18.5542 1.0193 17.8153 1.1002 16.98 1.31054C16.1446 1.52088 15.1969 1.89302 14.2009 2.3946C12.193 3.39775 9.97615 4.93485 7.82361 6.9088C7.06861 7.58836 6.37787 8.30028 5.73532 8.99602C5.10883 9.67557 4.5466 10.3713 4.03256 11.0347C2.98842 12.41 2.20129 13.7367 1.68725 14.9341C1.34991 15.7269 1.14109 16.455 1.06077 17.086C0.996511 17.539 1.01258 17.9435 1.09289 18.2671C1.12502 18.3804 1.15715 18.4613 1.18928 18.5584C1.2696 18.7525 1.36598 18.9143 1.49449 19.0599L2.79565 20.4352L2.94023 20.5809L2.95629 20.5647C2.98842 20.5161 3.03661 20.4676 3.0848 20.4352L3.10086 20.4191L3.14906 20.3705C3.18118 20.322 3.22937 20.2896 3.2615 20.2411C3.29363 20.2087 3.30969 20.1925 3.34182 20.1764C3.37395 20.1602 3.39001 20.1278 3.42214 20.1116L3.45427 20.0793C3.48639 20.0631 3.50246 20.0307 3.53459 20.0146C3.56671 19.9822 3.6149 19.9498 3.64703 19.9175C3.6631 19.9013 3.69522 19.8851 3.71129 19.8689H3.72735C3.77554 19.8366 3.80767 19.8042 3.85586 19.7719C3.88799 19.7557 3.90405 19.7395 3.93618 19.7071C3.98437 19.6748 4.0165 19.6424 4.06469 19.6101C4.09682 19.5939 4.11288 19.5777 4.14501 19.5615C4.1932 19.5292 4.24139 19.4968 4.28958 19.4806C4.32171 19.4644 4.33777 19.4483 4.3699 19.4321C4.41809 19.3997 4.46628 19.3835 4.51447 19.3512C4.5466 19.335 4.56267 19.3188 4.59479 19.3026L4.62692 19.2865C4.67511 19.2703 4.70724 19.2379 4.75543 19.2217C4.77149 19.2056 4.80362 19.2056 4.81969 19.1894C4.85181 19.1732 4.88394 19.157 4.93213 19.1408L5.02851 19.0923L5.06064 19.0761L5.3016 18.979C5.33373 18.9629 5.34979 18.9629 5.38192 18.9467C5.41405 18.9305 5.43011 18.9305 5.46224 18.9143L5.49436 18.8981C5.51043 18.8981 5.52649 18.882 5.54256 18.882C5.57468 18.8658 5.60681 18.8658 5.655 18.8496H5.68713C5.73532 18.8334 5.76745 18.8334 5.81564 18.8172C5.84777 18.8011 5.89596 18.8011 5.92809 18.7849C5.97628 18.7687 6.02447 18.7687 6.07266 18.7525C6.08872 18.7525 6.10479 18.7363 6.13691 18.7363C6.15298 18.7363 6.1851 18.7363 6.20117 18.7202C6.24936 18.704 6.29755 18.704 6.34574 18.704C6.39393 18.704 6.42606 18.6878 6.47425 18.6878C6.50638 18.6878 6.53851 18.6716 6.57064 18.6716H6.69915C6.85978 18.6716 7.05255 18.6716 7.24531 18.6878H7.27744C7.47021 18.704 7.6951 18.7363 7.91999 18.7849C7.96818 18.8011 8.03244 18.8011 8.08063 18.8172C8.09669 18.8011 8.09669 18.7687 8.11276 18.7525C8.24127 18.5422 8.35371 18.3157 8.48222 18.1053C9.20509 16.8918 9.97615 15.824 10.7633 14.8855C11.0364 14.5619 11.3094 14.2707 11.5825 13.9794C12.7231 12.7821 13.8636 11.8599 14.8917 11.148C15.1166 10.9862 15.3575 10.8405 15.5663 10.6949C15.8716 10.5008 16.1607 10.339 16.4338 10.1772C16.6587 10.0477 16.8675 9.93445 17.0763 9.83737C17.4137 9.65939 17.7189 9.51377 17.992 9.40051L18.2329 9.30344C18.3454 9.2549 18.4578 9.20636 18.5542 9.174C18.4739 9.15782 18.3775 9.15782 18.2972 9.15782H17.9759C17.8956 9.15782 17.7992 9.15782 17.7189 9.174C17.5582 9.19018 17.3815 9.20636 17.2048 9.22254C17.1406 9.23872 17.0924 9.23872 17.0281 9.2549C17.4619 9.02838 17.8956 8.86658 18.2972 8.73714C18.5703 8.65624 18.8433 8.59152 19.1004 8.54298C19.4538 8.47826 19.7911 8.42972 20.0963 8.41354C20.3051 8.39736 20.4979 8.39736 20.6746 8.39736C20.8513 8.39736 21.028 8.41354 21.1726 8.41354C21.7027 8.4459 22.024 8.5268 22.024 8.5268C21.9437 8.41354 21.8473 8.33264 21.7509 8.25174C21.5581 8.10612 21.3493 8.00904 21.1565 7.92814C21.0762 7.89578 21.012 7.8796 20.9477 7.84724C20.8995 7.83106 20.8513 7.81488 20.8192 7.81488C20.9156 7.7987 20.9959 7.78252 21.0762 7.78252C21.1726 7.76634 21.2529 7.76634 21.3493 7.75016C22.1043 7.68544 22.779 7.75016 23.2769 7.83106C23.8713 7.94432 24.2408 8.08994 24.2408 8.08994C24.1605 7.92814 24.0319 7.78252 23.8874 7.65308C23.791 7.57218 23.6785 7.49128 23.5822 7.42656C23.791 7.4751 23.9677 7.52364 24.1605 7.58836C24.6424 7.73398 25.044 7.91196 25.3652 8.05758L25.6544 8.2032C25.6865 8.21938 25.7026 8.23556 25.7186 8.23556C26.0078 8.39736 26.1684 8.51062 26.1684 8.51062C26.1202 8.33264 26.0238 8.17084 25.8953 8.02522C25.8632 7.99286 25.8311 7.94432 25.799 7.91196H25.815C25.8311 7.91196 25.8471 7.92814 25.8793 7.92814C25.8953 7.92814 25.9275 7.94432 25.9596 7.9605C26.0881 8.00904 26.2809 8.08994 26.5058 8.2032C26.5218 8.2032 26.5218 8.21938 26.5379 8.21938L26.6343 8.26792C26.7146 8.31646 26.7949 8.34882 26.8752 8.41354L27.1162 8.55916C27.1644 8.59152 27.1965 8.6077 27.2447 8.64006C27.325 8.70478 27.4214 8.7695 27.5017 8.8504C27.5981 8.9313 27.6784 9.0122 27.7587 9.0931L27.8069 9.14164C27.8712 9.20636 27.9354 9.27108 27.9836 9.3358C28.0961 9.46523 28.1925 9.61085 28.2888 9.75647C28.4013 9.93445 28.4816 10.1448 28.5619 10.3551C28.5619 10.3713 28.5619 10.3875 28.578 10.3875C28.6262 10.339 28.7226 10.2419 28.835 10.1124C29.7667 9.0122 32.5618 5.45261 30.8751 3.28449Z" fill="#132134"/>
<path d="M35.0356 29.8682C35.0356 29.8682 35.0677 29.6255 34.9392 29.399C34.9392 29.3828 34.9232 29.3666 34.9232 29.3666L34.9071 29.3505L34.8589 29.3019C34.8268 29.2696 34.7947 29.2372 34.7465 29.2048C34.7304 29.1887 34.6983 29.1725 34.6661 29.1563C34.5858 29.1239 34.5055 29.0916 34.3931 29.0754C34.3127 29.0592 34.2324 29.0592 34.136 29.0592H34.0075V29.0916C34.0075 29.1078 34.0236 29.1239 34.0236 29.1563C34.0236 29.1725 34.0236 29.1887 34.0397 29.1887C34.0557 29.2372 34.0718 29.3181 34.0878 29.3828C34.0878 29.3828 34.0878 29.399 34.0718 29.4314V29.4475C34.0236 29.5608 33.8951 29.8197 33.6059 30.1433C33.5577 30.208 33.5096 30.2565 33.4453 30.3213C32.6421 31.1626 30.9072 32.3438 27.2447 33.0071C26.0078 33.1851 24.8512 33.2013 23.8874 33.0719C22.4416 32.8939 21.3654 32.4247 20.8513 31.7936C20.8031 31.7451 20.771 31.6804 20.7228 31.6318C20.6907 31.5833 20.6746 31.5509 20.6425 31.5024C20.6264 31.4862 20.6264 31.47 20.6104 31.4539C20.4015 31.0655 20.3051 30.6449 20.3051 30.2404C20.3051 29.7388 20.4658 29.2696 20.7228 28.9136C20.9316 28.6224 21.2047 28.3958 21.5421 28.2988C21.7027 28.2502 21.8794 28.2179 22.0561 28.2341C22.0882 28.2341 22.1364 28.2341 22.2007 28.2502C22.3131 28.2664 22.4898 28.2826 22.6986 28.315C22.7147 28.315 22.7468 28.315 22.7629 28.3311C23.4536 28.412 24.546 28.5253 25.8632 28.4444C28.2728 28.2988 31.4373 27.5383 34.3127 24.9172V24.901C34.3288 24.6745 34.2967 24.2861 34.0236 23.9787C33.9754 23.9302 33.9272 23.8816 33.863 23.8331C33.8308 23.8007 33.7826 23.7846 33.7505 23.7522C33.7023 23.736 33.6702 23.7037 33.6381 23.6875L33.4935 23.5904V23.5742C33.4774 23.5419 33.4614 23.5095 33.4292 23.4771C32.6903 22.3445 31.6622 21.6812 31.2446 21.3738C31.0518 21.2281 30.9233 21.1634 30.9233 21.1634C30.0398 20.6133 29.9113 20.4353 29.9916 18.9629C30.0237 18.429 30.0719 17.7333 30.1362 16.7786C30.1362 16.6492 30.1522 16.5359 30.1522 16.4227V16.3418V15.9535C30.1522 15.8726 30.1362 15.7917 30.1362 15.7269C30.1362 15.6946 30.1362 15.6622 30.1201 15.6299C30.104 15.549 30.104 15.4681 30.088 15.3872C30.088 15.3548 30.0719 15.3063 30.0719 15.2739C30.0719 15.2254 30.0558 15.193 30.0398 15.1445C30.0237 15.1121 30.0237 15.0636 30.0077 15.0312C29.9916 14.9827 29.9755 14.9341 29.9755 14.8856C29.9755 14.8694 29.9595 14.8532 29.9595 14.837C29.9595 14.8209 29.9434 14.8047 29.9434 14.7885V14.7723L29.9273 14.7238C29.9113 14.6914 29.8952 14.6591 29.8952 14.6267V14.6105L29.8791 14.5782L29.8631 14.5458C29.8309 14.4811 29.8149 14.4164 29.7828 14.3678L29.7667 14.3193C29.7346 14.2708 29.7024 14.206 29.6703 14.1575L29.6542 14.1413L29.6382 14.1251C29.6061 14.0928 29.59 14.0604 29.5579 14.0281L29.5257 13.9795C29.4936 13.931 29.4615 13.8986 29.4294 13.8663V13.7368C29.4133 13.6721 29.3972 13.5912 29.3812 13.5103C29.3812 13.4941 29.3651 13.4618 29.3651 13.4456V13.4294C29.3651 13.397 29.349 13.3809 29.349 13.3485C29.333 13.2838 29.3169 13.2191 29.2848 13.1543C29.2848 13.1382 29.2687 13.1058 29.2687 13.0896L29.2205 12.944C29.2045 12.9116 29.2045 12.8793 29.1884 12.8631C29.1723 12.8146 29.1563 12.766 29.1241 12.7175L29.076 12.6204C29.0599 12.5719 29.0278 12.5233 29.0117 12.4748L28.9635 12.3777C28.9314 12.3292 28.9153 12.2806 28.8832 12.2321L28.835 12.135C28.8029 12.0865 28.7707 12.0379 28.7386 11.9732C28.7226 11.9408 28.7065 11.9247 28.6904 11.8923C28.6744 11.8761 28.6583 11.8438 28.6422 11.8276C28.594 11.779 28.5619 11.7305 28.5137 11.682L28.4816 11.6658C28.4173 11.6011 28.3691 11.5363 28.3049 11.4878L28.2888 11.4716C28.2567 11.4554 28.2246 11.4231 28.2085 11.4069H28.1924C28.1603 11.3907 28.1443 11.3745 28.1121 11.3584L28.0961 11.3422C28.0639 11.326 28.0157 11.2936 27.9515 11.2613C27.9354 11.2451 27.9033 11.2451 27.8712 11.2289C27.7266 11.1804 27.5499 11.1157 27.325 11.0509C27.3089 11.0509 27.2929 11.0509 27.2768 11.0348C27.1001 10.9862 26.8913 10.9377 26.6664 10.9053C26.5861 10.8891 26.5218 10.8891 26.4415 10.873C26.4094 10.873 26.3772 10.873 26.3291 10.8568H26.2809C26.1042 10.8406 25.9435 10.8244 25.7668 10.8244H25.7508C25.5259 10.8244 25.301 10.8406 25.0921 10.8891C25.1403 10.8082 25.2849 10.7112 25.4134 10.6303C25.5901 10.5332 25.7508 10.4685 25.7508 10.4685C25.6544 10.4685 25.558 10.4846 25.4616 10.5008C25.4295 10.5008 25.3974 10.517 25.3652 10.517C25.3492 10.517 25.317 10.517 25.301 10.5332H25.2849C25.2688 10.5332 25.2528 10.5332 25.2367 10.5494C24.7387 10.6626 24.2568 10.8406 23.9837 10.9539L23.8874 11.0024H23.8713C23.8392 11.0024 23.8231 11.0024 23.791 11.0186C23.9837 10.6464 24.2729 10.4523 24.4978 10.3552C24.5299 10.339 24.5781 10.3228 24.6102 10.3067C24.6263 10.3067 24.6263 10.3067 24.6424 10.2905C24.6745 10.2743 24.7066 10.2743 24.7227 10.2581C24.7709 10.2419 24.803 10.2419 24.803 10.2419H24.546C23.9998 10.3067 23.5018 10.4846 23.0842 10.7273C22.795 10.8891 22.538 11.0671 22.3131 11.2451C22.2489 11.2613 22.2007 11.2775 22.1364 11.2775C21.526 11.4069 20.8352 11.5687 20.1124 11.7952C19.8393 11.8761 19.5662 11.9732 19.2931 12.0703C19.0843 12.1512 18.8594 12.2321 18.6506 12.313C18.4899 12.3777 18.3454 12.4424 18.1847 12.5071C17.0763 13.0087 15.9679 13.6721 15.0523 14.562L14.9559 14.6591L14.715 14.9018L14.6186 14.9988C14.5864 15.0474 14.5383 15.0959 14.5061 15.1283C14.3294 15.3224 14.1688 15.5328 14.0082 15.7593C13.8957 15.9211 13.7833 16.0991 13.6869 16.2771L13.6708 16.2932C13.462 16.6654 13.2692 17.0537 13.1246 17.4906C13.0443 17.7009 12.9801 17.9274 12.9158 18.1539C12.8998 18.2187 12.8837 18.2672 12.8676 18.3319L12.8516 18.3643C12.7873 18.607 12.7391 18.8659 12.707 19.1247C12.707 19.1733 12.6909 19.2218 12.6909 19.2865C12.6749 19.416 12.6588 19.5454 12.6588 19.691C12.6427 19.8205 12.6427 19.9337 12.6427 20.0632V20.5648C12.6427 20.7104 12.6427 20.856 12.6588 21.0016V21.0178C12.6588 21.1634 12.6749 21.309 12.6909 21.4708C12.6909 21.5355 12.707 21.6003 12.707 21.665V21.7135C12.707 21.7459 12.707 21.7782 12.723 21.8268C12.7391 21.9886 12.7712 22.1666 12.7873 22.3445C12.7873 22.3931 12.8034 22.4416 12.8034 22.4902C12.8355 22.6358 12.8516 22.7976 12.8837 22.9432C12.8837 22.9432 12.8516 22.749 12.8676 22.4578C12.8676 22.3931 12.8837 22.3122 12.8837 22.2475C12.8998 22.0857 12.9319 21.8915 12.9961 21.7135L13.0443 21.5679C13.0443 21.5517 13.0604 21.5355 13.0765 21.5032C13.1086 21.4223 13.1568 21.3252 13.205 21.2443C13.221 21.309 13.221 21.3737 13.2371 21.4223V22.2798C13.2532 22.8299 13.3013 23.4933 13.4138 24.0596C13.4138 24.0596 13.4299 23.0403 13.6066 22.9108C13.6066 22.9108 13.9118 24.8201 14.1849 25.532C14.217 25.6291 14.2652 25.6938 14.2973 25.7423V25.5482L14.2652 24.4965V24.3832C14.474 24.8201 14.715 25.2569 14.988 25.7262C15.0684 25.8556 15.1326 25.985 15.2129 26.1145C14.6989 26.5675 14.217 27.2309 13.8636 28.0075C13.8154 28.137 13.7511 28.2664 13.7029 28.3959C13.6708 28.4768 13.6547 28.5415 13.6226 28.6224C13.6226 28.6385 13.6066 28.6709 13.6066 28.6871C13.5905 28.7356 13.5744 28.8004 13.5584 28.8489C13.5584 28.8812 13.5423 28.8974 13.5423 28.9298C13.5262 28.9783 13.5102 29.043 13.4941 29.0916C13.4941 29.1239 13.478 29.1401 13.478 29.1725L13.4299 29.4152C13.4138 29.4961 13.3977 29.577 13.3977 29.6579C13.3977 29.6902 13.3977 29.7064 13.3817 29.7388C13.3817 29.8035 13.3656 29.852 13.3656 29.9168C13.3656 29.9491 13.3656 29.9815 13.3495 30.0138C13.3495 30.0786 13.3335 30.1271 13.3335 30.1918V30.7581C13.3335 30.8228 13.3335 30.8876 13.3495 30.9685V31.017C13.3495 31.0979 13.3656 31.1788 13.3817 31.2759C13.3817 31.3082 13.3817 31.3244 13.3977 31.3568C13.3977 31.4215 13.4138 31.47 13.4299 31.5348C13.4299 31.5671 13.4459 31.5995 13.4459 31.6318C13.462 31.6804 13.462 31.7451 13.478 31.7936C13.478 31.826 13.4941 31.8584 13.4941 31.8907C13.5102 31.9393 13.5262 31.9878 13.5262 32.0525C13.5423 32.0849 13.5423 32.1172 13.5584 32.1658C13.5744 32.2143 13.5905 32.279 13.6066 32.3276C13.6226 32.3599 13.6226 32.3923 13.6387 32.4247C13.6547 32.4732 13.6708 32.5379 13.6869 32.5865C13.7029 32.6188 13.7029 32.6512 13.719 32.6835C13.7351 32.7483 13.7672 32.813 13.7833 32.8615C13.7993 32.8939 13.7993 32.9101 13.8154 32.9424L14.0563 33.4764C14.0724 33.5087 14.0885 33.5249 14.1045 33.5573L14.2009 33.7514C14.217 33.7838 14.233 33.8161 14.2652 33.8485C14.2973 33.897 14.3294 33.9618 14.3616 34.0103C14.3776 34.0427 14.4097 34.075 14.4258 34.1074C14.4579 34.1559 14.4901 34.2206 14.5383 34.2692C14.5704 34.3015 14.5864 34.3339 14.6186 34.3824C14.6507 34.431 14.6989 34.4957 14.731 34.5442C14.7631 34.5766 14.7792 34.609 14.8113 34.6575C14.8595 34.706 14.8917 34.7708 14.9398 34.8193C14.972 34.8517 14.988 34.884 15.0202 34.9164C15.0684 34.9811 15.1165 35.0296 15.1808 35.0944L15.2611 35.1753C15.3414 35.2562 15.4218 35.3532 15.5021 35.4341C15.5021 35.4341 15.4539 35.3694 15.3896 35.24C15.3736 35.2238 15.3575 35.1914 15.3575 35.1591L15.3093 35.062C15.2933 35.0296 15.2772 34.9973 15.2611 34.9487C15.1326 34.6575 15.0202 34.2368 15.0362 33.7838L15.1808 33.9779C15.229 34.0912 15.3093 34.2368 15.3896 34.3986C15.4218 34.4472 15.4539 34.5119 15.47 34.5604C15.5985 34.7869 15.727 35.0458 15.8876 35.2885C16.0804 35.5959 16.2731 35.8872 16.482 36.1622C16.482 36.1622 16.241 35.6445 16.1607 35.3047C16.1446 35.2076 16.1286 35.1267 16.1446 35.0782C16.1607 35.0944 16.1768 35.1267 16.2089 35.1429C16.2249 35.1591 16.241 35.1914 16.2731 35.2076C16.3053 35.2562 16.3535 35.3209 16.4177 35.4018L16.4498 35.4341C16.482 35.4665 16.498 35.515 16.5302 35.5474C16.5623 35.5959 16.5944 35.6445 16.6426 35.693C16.9799 36.1299 17.4458 36.7123 17.7671 37.0198C17.8795 37.1168 17.9759 37.1977 18.0402 37.2301L17.5743 36.3887C18.6345 37.2625 23.036 38.3789 27.3571 37.133C27.8872 36.9874 28.4013 36.7932 28.9153 36.5667C29.2205 36.4373 29.5257 36.2755 29.8309 36.1137L29.8791 36.0813C30.088 35.9681 30.2968 35.8386 30.5056 35.7092C30.6663 35.6121 30.8269 35.4989 30.9715 35.4018C31.2285 35.2238 31.4855 35.0296 31.7425 34.8193C31.7586 34.8031 31.7747 34.7869 31.7907 34.7869C32.0317 34.5766 32.2726 34.3501 32.4815 34.1236C32.7706 33.8161 33.0276 33.5087 33.2525 33.2013L33.2686 33.1851C33.3329 33.1042 33.381 33.0395 33.4292 32.9586L33.4453 32.9424C33.4614 32.9101 33.4774 32.8939 33.4935 32.8615C33.5738 32.7483 33.6381 32.6512 33.7184 32.5379C33.7344 32.5056 33.7505 32.4894 33.7666 32.457C33.7987 32.3923 33.8308 32.3438 33.879 32.279C33.9111 32.2305 33.9272 32.1981 33.9593 32.1496C33.9915 32.1011 34.0236 32.0525 34.0397 32.004C34.0878 31.9231 34.136 31.826 34.1842 31.7451L34.2324 31.648L34.3288 31.4539L34.377 31.3568L34.3931 31.3244C34.4252 31.2435 34.4734 31.1626 34.5055 31.0817V31.0655C34.6501 30.9361 34.7465 30.8067 34.8428 30.6934C34.8589 30.6772 34.875 30.661 34.875 30.6449C34.9714 30.3374 35.0356 30.0947 35.0356 29.8682ZM9.18902 26.7293C9.18902 26.7131 9.18902 26.697 9.17296 26.6646C9.12477 26.3895 9.07658 26.0983 9.06051 25.8071V25.7423C9.01232 25.7585 8.96413 25.8232 8.89988 25.9041C8.88381 25.9365 8.85168 25.9689 8.83562 26.0174C8.69105 26.2925 8.56254 26.6808 8.56254 26.6808C8.5786 26.5513 8.59466 26.4219 8.59466 26.2925V26.2439C8.61073 26.1145 8.62679 25.9689 8.64286 25.8394V25.7909C8.65892 25.6291 8.69105 25.4835 8.72317 25.3378C8.72317 25.3217 8.72317 25.3055 8.73924 25.2731V25.2569C8.73924 25.2408 8.73924 25.2246 8.7553 25.2084C8.7553 25.176 8.77137 25.1599 8.77137 25.1275C8.78743 25.0142 8.81956 24.901 8.83562 24.7877C8.85168 24.6906 8.86775 24.5936 8.88381 24.5127V24.4803C8.88381 24.4641 8.88381 24.4479 8.89988 24.4479V24.4156C8.89988 24.3994 8.91594 24.367 8.91594 24.3509C8.91594 24.3347 8.91594 24.3185 8.932 24.3023C8.932 24.27 8.94807 24.2376 8.94807 24.2214C8.94807 24.2052 8.96413 24.1729 8.96413 24.1567C8.96413 24.1243 8.98019 24.092 8.98019 24.0758C8.98019 24.0596 8.98019 24.0434 8.99626 24.0273C8.99626 24.0111 8.99626 23.9949 9.01232 23.9949C9.01232 23.9625 9.02839 23.9464 9.02839 23.9302V23.8816L8.99626 23.914C8.96413 23.9302 8.94807 23.9625 8.91594 23.9787L8.88381 24.0111C8.85168 24.0434 8.81956 24.0758 8.80349 24.1082L8.78743 24.1243L8.69105 24.27L8.67498 24.2861C8.67498 24.3023 8.65892 24.3023 8.65892 24.3185L8.61073 24.4156V24.4479C8.59466 24.4965 8.56254 24.545 8.54647 24.5936C8.49828 24.723 8.45009 24.8524 8.41796 24.9657C8.4019 24.9981 8.4019 25.0466 8.38584 25.0628C8.36977 25.1275 8.35371 25.1922 8.35371 25.2084C8.35371 25.1599 8.35371 25.1275 8.36977 25.079C8.36977 24.9981 8.38584 24.901 8.38584 24.8201C8.38584 24.7554 8.4019 24.6745 8.41796 24.6097C8.41796 24.5936 8.41796 24.5612 8.43403 24.545C8.43403 24.5127 8.45009 24.4803 8.45009 24.4479C8.45009 24.4156 8.46615 24.3832 8.46615 24.3509V24.3023C8.46615 24.27 8.48222 24.2214 8.48222 24.1891V24.1082V24.0758C8.48222 24.0596 8.48222 24.0434 8.49828 24.0273C8.51435 23.9787 8.53041 23.914 8.53041 23.8655V23.8493C8.54647 23.8169 8.54647 23.7684 8.56254 23.736V23.7198C8.5786 23.6389 8.61073 23.558 8.62679 23.4771V23.4448C8.62679 23.4286 8.62679 23.4124 8.64286 23.3962C8.67498 23.2668 8.72317 23.1374 8.7553 23.0241V23.0079C8.78743 22.9108 8.83562 22.7976 8.86775 22.7005V22.6843C8.88381 22.6358 8.89988 22.6034 8.91594 22.5549C8.94807 22.4902 8.96413 22.4254 8.99626 22.3607C8.99626 22.3445 9.01232 22.3122 9.04445 22.2475C9.06051 22.2313 9.06051 22.1989 9.07658 22.1827C9.09264 22.1504 9.1087 22.118 9.12477 22.0695L9.14083 22.0371L9.41392 21.5356C9.42998 21.5194 9.42998 21.487 9.44604 21.4708V21.4547L9.46211 21.4223C9.49424 21.3737 9.52636 21.309 9.55849 21.2605C9.60668 21.1796 9.63881 21.0987 9.687 21.034C9.76732 20.8884 9.83157 20.7589 9.87977 20.6942C9.89583 20.6457 9.91189 20.6295 9.92796 20.6133C9.91189 20.6133 9.83157 20.5486 9.70306 20.4677C9.54243 20.3706 9.31753 20.2412 9.04445 20.1117C8.94807 20.0632 8.86775 20.0308 8.77137 19.9823C8.65892 19.9337 8.53041 19.8852 8.4019 19.8367C8.36977 19.8205 8.33764 19.8205 8.30552 19.8043C8.19307 19.7719 8.09669 19.7396 7.98424 19.7072C7.90392 19.691 7.8236 19.6749 7.75935 19.6587C7.69509 19.6425 7.63084 19.6425 7.56658 19.6263C7.53446 19.6263 7.50233 19.6263 7.4702 19.6101C7.43807 19.6101 7.40595 19.6101 7.37382 19.594C7.2935 19.594 7.19712 19.5778 7.1168 19.5778H6.98829C6.79552 19.5778 6.61882 19.594 6.44212 19.6263H6.40999C6.08872 19.6749 5.78351 19.7558 5.4783 19.869C5.38191 19.9014 5.28553 19.9499 5.17308 19.9985C5.14096 20.0146 5.12489 20.0308 5.09277 20.0308L4.99638 20.0794C4.70723 20.225 4.43415 20.4191 4.17713 20.6295H4.16107C3.93617 20.8075 3.74341 21.0178 3.56671 21.2281L3.42213 21.4223C3.35788 21.5032 3.30969 21.5841 3.2615 21.665C3.16511 21.8106 3.06873 21.9724 2.98841 22.1342C2.95629 22.1989 2.92416 22.2475 2.90809 22.3122C2.90809 22.3284 2.89203 22.3284 2.89203 22.3445C2.73139 22.7329 2.60288 23.1374 2.55469 23.5742C2.53863 23.6551 2.53863 23.736 2.52256 23.8331V23.8655C2.52256 23.9302 2.5065 23.9949 2.5065 24.0758V24.367C2.5065 24.4318 2.5065 24.4965 2.52256 24.5612V24.6421C2.52256 24.6906 2.53863 24.7392 2.53863 24.7877V24.8039C2.53863 24.8363 2.53863 24.8524 2.55469 24.8848C2.55469 24.9333 2.57076 24.9819 2.57076 25.0142C2.57076 25.0466 2.58682 25.079 2.58682 25.1113C2.60288 25.1599 2.60288 25.1922 2.61895 25.2408C2.61895 25.2731 2.63501 25.3055 2.65107 25.3378V25.354L2.66714 25.3864V25.4187L2.6832 25.4511C2.69927 25.4835 2.69927 25.5158 2.71533 25.5482C2.73139 25.5805 2.73139 25.6291 2.74746 25.6614C2.76352 25.6938 2.77958 25.7262 2.77958 25.7747L2.79565 25.8071C2.81171 25.8394 2.81171 25.8556 2.82778 25.888C2.84384 25.9203 2.8599 25.9527 2.87597 26.0012L2.92416 26.0983C2.94022 26.1145 2.94022 26.1307 2.95629 26.1468C2.97235 26.163 2.97235 26.1792 2.98841 26.1954L3.0366 26.2925C3.05267 26.3248 3.06873 26.3734 3.10086 26.4057C3.11692 26.4381 3.13299 26.4704 3.14905 26.4866C3.16511 26.519 3.19724 26.5675 3.21331 26.5999C3.22937 26.6322 3.24543 26.6484 3.2615 26.6808C3.27756 26.7131 3.30969 26.7617 3.34182 26.794C3.35788 26.8264 3.37394 26.8426 3.39001 26.8588C3.42213 26.8911 3.4382 26.9397 3.47033 26.972C3.48639 26.9882 3.50245 27.0206 3.51852 27.0367C3.55064 27.0691 3.58277 27.1176 3.6149 27.15C3.63096 27.1662 3.64703 27.1824 3.66309 27.2147C3.69522 27.2471 3.72735 27.2956 3.75947 27.328L3.80766 27.3765C3.83979 27.4089 3.87192 27.4574 3.92011 27.4898L3.9683 27.5383L4.08075 27.6516C4.09681 27.6678 4.11288 27.6839 4.12894 27.6839C4.16107 27.7163 4.20926 27.7487 4.25745 27.7972C4.27351 27.8134 4.28958 27.8134 4.30564 27.8296C4.35383 27.8619 4.38596 27.8943 4.43415 27.9266C4.45021 27.9428 4.46628 27.9428 4.46628 27.959L4.61085 28.0561L4.64298 28.0723L4.78755 28.1693L4.81968 28.1855C4.86787 28.2179 4.93213 28.2502 4.98032 28.2826L5.01245 28.2988C5.06064 28.3311 5.12489 28.3635 5.17308 28.3797L5.20521 28.3959C5.26947 28.4282 5.31766 28.4444 5.38191 28.4768L5.39798 28.4929C5.46223 28.5253 5.52649 28.5415 5.57468 28.5738H5.59074C5.655 28.59 5.71925 28.6224 5.78351 28.6386H5.79957C5.8317 28.6547 5.86383 28.6547 5.89595 28.6709C5.92808 28.6871 5.96021 28.6871 6.0084 28.7033H6.02446C6.08872 28.7194 6.16904 28.7356 6.23329 28.7518C6.29755 28.768 6.37787 28.7842 6.44212 28.7842C6.66701 28.8165 6.89191 28.8327 7.1168 28.8489H7.27744C7.35775 28.8489 7.42201 28.8489 7.50233 28.8327C7.59871 28.8165 7.71116 28.8165 7.8236 28.8003C7.91999 28.7842 8.01637 28.768 8.09669 28.7518C8.24126 28.7194 8.38584 28.6871 8.51435 28.6386C8.932 28.5253 9.28541 28.3635 9.5103 28.1855C9.5103 28.1855 9.36572 27.5383 9.25328 26.8911C9.22115 26.8588 9.20509 26.794 9.18902 26.7293Z" fill="#90694C"/>
<path d="M19.502 2.6859L19.4538 2.0387L19.775 1.32678L19.9036 1.29443C19.6947 1.19735 19.4377 1.13263 19.1486 1.08409C18.5703 1.00319 17.8313 1.08409 16.996 1.29443C16.1607 1.50476 15.2129 1.8769 14.217 2.37848C12.209 3.38164 9.99222 4.91873 7.83968 6.89269C7.08468 7.57225 6.39394 8.28417 5.75139 8.9799C5.1249 9.65946 4.56267 10.3552 4.04863 11.0186C3.00448 12.3939 2.21736 13.7206 1.70332 14.9179C1.36598 15.7108 1.15715 16.4389 1.07683 17.0699C1.01258 17.5229 1.02864 17.9274 1.10896 18.251C1.14109 18.3643 1.17322 18.4452 1.20534 18.5423C1.28566 18.7364 1.38205 18.8982 1.51056 19.0438L2.81172 20.4191L2.95629 20.5647L2.97236 20.5486C3.00448 20.5 3.05268 20.4515 3.10087 20.4191L3.11693 20.4029L3.16512 20.3544C3.19725 20.3059 3.24544 20.2735 3.27757 20.225C3.3097 20.1926 3.32576 20.1764 3.35789 20.1603C3.39001 20.1441 3.40608 20.1117 3.43821 20.0955L3.47033 20.0632C3.50246 20.047 3.51853 20.0146 3.55065 19.9985C3.58278 19.9661 3.63097 19.9337 3.6631 19.9014C3.67916 19.8852 3.71129 19.869 3.72735 19.8528H3.74342C3.79161 19.8205 3.82374 19.7881 3.87193 19.7558C3.90406 19.7396 3.92012 19.7234 3.95225 19.691C4.00044 19.6587 4.03257 19.6263 4.08076 19.594C4.11288 19.5778 4.12895 19.5616 4.16108 19.5454C4.20927 19.5131 4.25746 19.4807 4.30565 19.4645C4.33778 19.4483 4.35384 19.4322 4.38597 19.416C4.43416 19.3836 4.48235 19.3674 4.53054 19.3351C4.56267 19.3189 4.57873 19.3027 4.61086 19.2865L4.64299 19.2704C4.9482 18.4128 5.41405 17.4582 6.02447 16.4874C6.7634 15.2901 7.71117 14.028 8.83563 12.766C9.54243 11.9732 10.3135 11.1804 11.1488 10.4199C12.2251 9.43294 13.3335 8.54304 14.4258 7.76641C15.1648 7.24865 15.8876 6.77943 16.5944 6.37493C16.6587 6.34257 16.7229 6.29403 16.8033 6.26167C16.996 6.14841 17.1727 6.05133 17.3655 5.95425C17.7671 5.74391 18.1687 5.54975 18.5542 5.38795L18.3614 5.16143L18.3293 5.12907L18.0884 4.85401L16.7551 3.23602L16.7711 2.07106L16.7551 2.05488L17.7028 1.76364L19.502 2.6859Z" fill="#2F83C1"/>
<path d="M35.0356 29.8682C35.0356 29.8682 35.0678 29.6255 34.9393 29.399C34.9393 29.3828 34.9232 29.3666 34.9232 29.3666L34.9071 29.3504L34.8589 29.3019C34.8268 29.2695 34.7947 29.2372 34.7465 29.2048C34.7304 29.1886 34.6983 29.1724 34.6662 29.1563C34.5859 29.1239 34.5055 29.0915 34.3931 29.0754C34.3128 29.0592 34.2324 29.0592 34.1361 29.0592H34.0076V29.0915C34.0076 29.1077 34.0236 29.1239 34.0236 29.1563C34.0236 29.1724 34.0236 29.1886 34.0397 29.1886C34.0557 29.2372 34.0718 29.3181 34.0879 29.3828C34.0879 29.3828 34.0879 29.399 34.0718 29.4313V29.4475C34.0236 29.5608 33.8951 29.8196 33.606 30.1432C33.5578 30.208 33.5096 30.2565 33.4453 30.3212C32.6421 31.1626 30.9073 32.3437 27.2447 33.0071C26.0078 33.1851 24.8512 33.2013 23.8874 33.0718C22.4416 32.8938 21.3654 32.4246 20.8513 31.7936C20.8031 31.7451 20.771 31.6803 20.7228 31.6318C20.6907 31.5833 20.6746 31.5509 20.6425 31.5024C20.6264 31.4862 20.6264 31.47 20.6104 31.4538C20.4016 31.0655 20.3052 30.6448 20.3052 30.2403C20.3052 29.7387 20.4658 29.2695 20.7228 28.9136C20.9317 28.6223 21.2047 28.3958 21.5421 28.2987C21.7027 28.2502 21.8794 28.2178 22.0561 28.234C22.0882 28.234 22.1364 28.234 22.2007 28.2502C22.3131 28.2664 22.4898 28.2826 22.6987 28.3149C22.7147 28.3149 22.7469 28.3149 22.7629 28.3311C23.4537 28.412 24.546 28.5253 25.8632 28.4444C28.2728 28.2987 31.4374 27.5383 34.3128 24.9171V24.9009C34.3288 24.6744 34.2967 24.2861 34.0236 23.9787C33.9754 23.9301 33.9272 23.8816 33.863 23.8331C33.8309 23.8007 33.7827 23.7845 33.7505 23.7522C33.7023 23.736 33.6702 23.7036 33.6381 23.6874L33.4935 23.5904V23.5742C33.4775 23.5418 33.4614 23.5095 33.4293 23.4771C32.6903 22.3445 31.6622 21.6811 31.2446 21.3737C31.0518 21.2281 30.9233 21.1634 30.9233 21.1634C30.0398 20.6133 29.9113 20.4353 29.9916 18.9629C30.0237 18.429 30.0719 17.7332 30.1362 16.7786C30.1362 16.6492 30.1523 16.5359 30.1523 16.4226V16.3417V15.9534C30.1523 15.8725 30.1362 15.7916 30.1362 15.7269C30.1362 15.6945 30.1362 15.6622 30.1201 15.6298C30.1041 15.5489 30.1041 15.468 30.088 15.3871C30.088 15.3548 30.0719 15.3062 30.0719 15.2739C30.0719 15.2253 30.0559 15.193 30.0398 15.1444C30.0237 15.1121 30.0237 15.0635 30.0077 15.0312C29.9916 14.9826 29.9756 14.9341 29.9756 14.8855C29.9756 14.8694 29.9595 14.8532 29.9595 14.837C29.9595 14.8208 29.9434 14.8047 29.9434 14.7885V14.7723L29.9274 14.7238C29.9113 14.6914 29.8952 14.659 29.8952 14.6267V14.6105L29.8792 14.5781L29.8631 14.5458C29.831 14.4811 29.8149 14.4163 29.7828 14.3678L29.7667 14.3193C29.7346 14.2707 29.7025 14.206 29.6703 14.1575L29.6543 14.1413L29.6382 14.1251C29.6061 14.0927 29.59 14.0604 29.5579 14.028L29.5258 13.9795C29.4936 13.9309 29.4615 13.8986 29.4294 13.8662L29.3009 13.7368C29.2527 13.7044 29.2045 13.6721 29.1563 13.6559C29.1402 13.6397 29.1242 13.6397 29.1081 13.6397L29.0117 13.5912C28.9957 13.5912 28.9796 13.575 28.9635 13.575C28.9314 13.5588 28.8993 13.5588 28.8832 13.5426C28.8672 13.5426 28.8511 13.5264 28.819 13.5264C28.7868 13.5264 28.7708 13.5103 28.7386 13.5103H28.3852C28.3692 13.5103 28.3531 13.5103 28.337 13.5264C28.321 13.5264 28.3049 13.5264 28.2889 13.5426C28.2567 13.5426 28.2246 13.5588 28.1764 13.575H28.1443C28.0479 13.6073 27.9676 13.6397 27.8712 13.6721L27.8391 13.6882C27.8069 13.7044 27.7748 13.7206 27.7266 13.7368L27.6784 13.753L27.5821 13.8015L27.5339 13.8339L27.4375 13.8824L27.3893 13.9148C27.3572 13.9309 27.325 13.9633 27.2929 13.9795L27.2608 13.9957C27.2286 14.028 27.1805 14.0442 27.1483 14.0766L27.1323 14.0927C27.0841 14.1251 27.0519 14.1575 27.0038 14.1736C26.9234 14.2222 26.8431 14.2869 26.7628 14.3354C26.6985 14.384 26.6343 14.4325 26.554 14.4811L26.5218 14.4972C26.4576 14.5458 26.3773 14.5943 26.313 14.6267L26.2809 14.6429C26.2166 14.6914 26.1363 14.7238 26.0721 14.7723L26.0399 14.7885C25.9757 14.837 25.8954 14.8694 25.815 14.9017L25.7829 14.9179C25.7026 14.9503 25.6383 14.9826 25.558 15.015L25.5259 15.0312C25.4456 15.0635 25.3653 15.0797 25.2849 15.1121H25.2689C25.1886 15.1282 25.0922 15.1444 25.0118 15.1606C24.8673 15.1768 24.7066 15.193 24.5621 15.193C24.3211 15.193 24.0802 15.1768 23.8231 15.1444L23.5822 15.0959C23.55 15.0959 23.5179 15.0797 23.5019 15.0797C23.293 15.0312 23.0681 14.9826 22.8593 14.9341C22.7629 14.9179 22.6826 14.8856 22.5862 14.8694C22.4416 14.837 22.2971 14.8047 22.1364 14.7723C22.1043 14.7723 22.0722 14.7561 22.0561 14.7561C22.0401 14.7561 22.0079 14.7399 21.9919 14.7399C21.9597 14.7399 21.9276 14.7238 21.8955 14.7238C21.8634 14.7238 21.8312 14.7076 21.7991 14.7076H21.767C21.7348 14.7076 21.7027 14.6914 21.6867 14.6914C21.6224 14.6752 21.5581 14.659 21.4778 14.659C21.4618 14.659 21.4296 14.659 21.4136 14.6429C21.3654 14.6429 21.3172 14.6267 21.269 14.6267C21.2369 14.6267 21.2208 14.6267 21.1887 14.6105C21.1405 14.6105 21.1084 14.5943 21.0602 14.5943H20.3212C20.2409 14.5943 20.1767 14.6105 20.0963 14.6105H20.0321C19.9839 14.6105 19.9357 14.6267 19.8875 14.6267H19.8714C19.8393 14.6267 19.8233 14.6429 19.7911 14.6429C19.7429 14.659 19.6947 14.659 19.6466 14.6752C19.6144 14.6752 19.5823 14.6914 19.5662 14.6914C19.518 14.7076 19.4699 14.7238 19.4217 14.7238C19.3895 14.7238 19.3735 14.7399 19.3413 14.7561C19.2932 14.7723 19.2289 14.7885 19.1807 14.8047C19.1486 14.8208 19.1325 14.8208 19.1165 14.837C19.0361 14.8694 18.9558 14.9017 18.8916 14.9341C18.2811 15.29 17.751 15.7754 17.3494 16.3256C17.2049 16.5197 17.0764 16.7139 16.9639 16.908C16.8354 17.1184 16.739 17.3449 16.6426 17.5714C16.6105 17.6361 16.5944 17.7009 16.5623 17.7656C16.5302 17.8788 16.482 17.9921 16.4499 18.1054C16.4499 18.1215 16.4499 18.1377 16.4338 18.1377C16.4017 18.2672 16.3695 18.3966 16.3374 18.5422C16.3053 18.6878 16.2892 18.8173 16.2732 18.9629C16.2571 19.0438 16.2571 19.1085 16.2571 19.1894C16.241 19.3998 16.241 19.5939 16.2571 19.8043V19.8528C16.2571 19.9013 16.2571 19.9499 16.2732 20.0146C16.2892 20.1602 16.3053 20.3058 16.3374 20.4515C16.3535 20.5 16.3695 20.5485 16.3695 20.6133C16.3856 20.6618 16.3856 20.7103 16.4017 20.7589C16.4981 21.131 16.6426 21.4708 16.8193 21.762C17.4779 22.9108 18.5703 23.6065 19.3735 23.9787C19.6787 24.1081 20 24.2376 20.3373 24.3508L20.3052 24.3832C20.2409 24.3994 20.1767 24.4155 20.0963 24.4317C19.9839 24.4641 19.8393 24.5126 19.6947 24.5612C19.5341 24.6097 19.3413 24.6906 19.1486 24.7715C18.6345 24.9818 18.0562 25.2893 17.5422 25.7099C17.4779 25.7585 17.4137 25.8232 17.3494 25.8717C17.237 25.9688 17.1406 26.0659 17.0442 26.1792L17.0121 26.2115L16.9639 26.2601C16.9318 26.3086 16.8836 26.341 16.8515 26.3895L16.8033 26.438C16.7551 26.5028 16.7069 26.5675 16.6748 26.6322C16.6266 26.6969 16.5944 26.7616 16.5462 26.8264C16.241 27.3603 16.0643 28.0075 16.1125 28.7841V28.7518C16.1125 28.7356 16.1125 28.7194 16.1286 28.7032V28.6871C16.1286 28.6709 16.1447 28.6547 16.1447 28.6223V28.6062C16.1447 28.59 16.1607 28.5576 16.1607 28.5253C16.1607 28.4929 16.1768 28.4767 16.1928 28.4444V28.4282C16.2089 28.3958 16.2089 28.3635 16.225 28.3311V28.3149C16.241 28.2826 16.241 28.2502 16.2571 28.2178V28.2017C16.2732 28.1693 16.2892 28.1369 16.3053 28.0884L16.3214 28.0722C16.3374 28.0399 16.3535 27.9913 16.3856 27.959C16.4177 27.8942 16.4499 27.8457 16.482 27.781C16.4981 27.7648 16.5141 27.7324 16.5302 27.7163L16.5462 27.7001L16.6426 27.5545C16.6748 27.5221 16.7069 27.4736 16.739 27.4412L16.7711 27.4088C16.8033 27.3765 16.8193 27.3441 16.8515 27.3279L16.8836 27.2956C16.9157 27.2632 16.9639 27.2309 16.996 27.1823C16.996 27.1823 16.3053 28.768 16.6105 30.0138V29.9976V29.9653V29.9167V29.852V29.7711C16.6105 29.7387 16.6105 29.7064 16.6266 29.674C16.6266 29.6417 16.6266 29.6093 16.6426 29.5769V29.5608C16.6426 29.5284 16.6587 29.4799 16.6587 29.4475V29.4151C16.6748 29.3666 16.6748 29.3342 16.6908 29.2857V29.2695C16.7069 29.221 16.723 29.1724 16.723 29.1401C16.723 29.1239 16.739 29.1077 16.739 29.0915L16.7551 29.0592C16.7711 29.0268 16.7872 28.9783 16.8033 28.9459C16.8193 28.8974 16.8515 28.8488 16.8836 28.8003C16.8836 28.7841 16.8997 28.768 16.8997 28.768L16.996 28.6223C16.996 28.6223 16.9639 29.0106 16.9639 29.4799C16.9639 29.5608 16.9639 29.6255 16.98 29.7064C16.98 29.7549 16.98 29.8035 16.996 29.852C16.98 30.1756 16.98 30.4992 17.0121 30.839C17.0603 31.4053 17.2049 32.0201 17.4458 32.6511C17.4458 32.6511 17.2209 31.923 17.5422 31.1949L17.6386 31.3891C17.6707 31.5994 17.7028 31.9069 17.7671 32.2466C17.8313 32.8129 18.0884 34.5118 19.245 35.693C19.245 35.693 18.8112 35.1267 18.8755 34.3986C18.9237 34.4957 18.9719 34.5766 19.004 34.6575C19.1968 35.0296 19.5823 35.7091 20.016 36.1945C20.016 36.1945 19.6787 35.5312 19.759 35.3856C19.759 35.3856 20.8835 36.7932 21.2369 36.9226L20.771 36.146L20.755 36.1298C22.3774 37.3271 24.6263 37.764 27.3893 36.9874C27.8712 36.8579 28.3531 36.6799 28.8672 36.4696C29.1724 36.3402 29.4776 36.1784 29.7828 36.0166L29.831 35.9842C30.0398 35.8709 30.2486 35.7415 30.4575 35.6121C30.6181 35.515 30.7787 35.4017 30.9233 35.3047C31.1803 35.1267 31.4374 34.9325 31.6944 34.7222C31.7104 34.706 31.7265 34.6898 31.7426 34.6898C31.9835 34.4795 32.2245 34.253 32.4333 34.0264C32.7225 33.719 32.9795 33.4116 33.2044 33.1042L33.2204 33.088C33.2847 33.0071 33.3329 32.9424 33.3811 32.8615L33.3971 32.8453C33.4132 32.8129 33.4293 32.7968 33.4453 32.7644C33.5256 32.6511 33.5899 32.5541 33.6702 32.4408C33.6863 32.4084 33.7023 32.3923 33.7184 32.3599C33.7505 32.2952 33.7827 32.2466 33.8309 32.1819C33.863 32.1334 33.879 32.101 33.9112 32.0525C33.9433 32.0039 33.9754 31.9554 33.9915 31.9069C34.0397 31.826 34.0879 31.7289 34.1361 31.648L34.1843 31.5509L34.2806 31.3567L34.3288 31.2597L34.3449 31.2273C34.377 31.1464 34.4252 31.0655 34.4573 30.9846V30.9684C34.6019 30.839 34.6983 30.7095 34.7947 30.5963C34.8107 30.5801 34.8268 30.5639 34.8268 30.5477C34.9714 30.3374 35.0356 30.0947 35.0356 29.8682ZM9.06054 25.7423C9.01235 25.7585 8.96416 25.8232 8.8999 25.9041C8.88384 25.9365 8.85171 25.9688 8.83565 26.0174C8.69107 26.2924 8.56256 26.6807 8.56256 26.6807C8.57863 26.5513 8.59469 26.4219 8.59469 26.2924V26.2439C8.61075 26.1144 8.62682 25.9688 8.64288 25.8394V25.7908C8.65894 25.629 8.69107 25.4834 8.7232 25.3378C8.7232 25.3216 8.7232 25.3054 8.73926 25.2731V25.2569C8.73926 25.2407 8.73926 25.2245 8.75533 25.2084C8.75533 25.176 8.77139 25.1598 8.77139 25.1275C8.78745 25.0142 8.81958 24.9009 8.83565 24.7877C8.85171 24.6906 8.86777 24.5935 8.88384 24.5126V24.4803C8.88384 24.4641 8.88384 24.4479 8.8999 24.4479V24.4155C8.8999 24.3994 8.91596 24.367 8.91596 24.3508C8.91596 24.3346 8.91596 24.3185 8.93203 24.3023C8.93203 24.2699 8.94809 24.2376 8.94809 24.2214C8.94809 24.2052 8.96416 24.1728 8.96416 24.1567C8.96416 24.1243 8.98022 24.0919 8.98022 24.0758C8.98022 24.0596 8.98022 24.0434 8.99628 24.0272C8.99628 24.011 8.99628 23.9949 9.01235 23.9949C9.01235 23.9625 9.02841 23.9463 9.02841 23.9301V23.8816L8.99628 23.914C8.96416 23.9301 8.94809 23.9625 8.91596 23.9787L8.88384 24.011C8.85171 24.0434 8.81958 24.0758 8.80352 24.1081L8.78745 24.1243L8.69107 24.2699L8.67501 24.2861C8.67501 24.3023 8.65894 24.3023 8.65894 24.3185L8.61075 24.4155V24.4479C8.59469 24.4964 8.56256 24.545 8.5465 24.5935C8.49831 24.723 8.45012 24.8524 8.41799 24.9657C8.40192 24.998 8.40192 25.0466 8.38586 25.0627C8.3698 25.1275 8.35373 25.1922 8.35373 25.2084C8.35373 25.1598 8.35373 25.1275 8.3698 25.0789C8.3698 24.998 8.38586 24.9009 8.38586 24.82C8.38586 24.7553 8.40192 24.6744 8.41799 24.6097C8.41799 24.5935 8.41799 24.5612 8.43405 24.545C8.43405 24.5126 8.45012 24.4803 8.45012 24.4479C8.45012 24.4155 8.46618 24.3832 8.46618 24.3508V24.3023C8.46618 24.2699 8.48224 24.2214 8.48224 24.189V24.1081V24.0758C8.48224 24.0596 8.48224 24.0434 8.49831 24.0272C8.51437 23.9787 8.53043 23.914 8.53043 23.8654V23.8492C8.5465 23.8169 8.5465 23.7683 8.56256 23.736V23.7198C8.57863 23.6389 8.61075 23.558 8.62682 23.4771V23.4447C8.62682 23.4286 8.62682 23.4124 8.64288 23.3962C8.67501 23.2668 8.7232 23.1373 8.75533 23.0241V23.0079C8.78745 22.9108 8.83565 22.7975 8.86777 22.7005V22.6843C8.88384 22.6357 8.8999 22.6034 8.91596 22.5548C8.94809 22.4901 8.96416 22.4254 8.99628 22.3607C8.99628 22.3445 9.01235 22.3121 9.04447 22.2474C9.06054 22.2312 9.06054 22.1989 9.0766 22.1827C9.09267 22.1504 9.10873 22.118 9.12479 22.0694L9.14086 22.0371C9.12479 22.0209 9.09267 22.0209 9.0766 22.0047H9.06054L9.02841 21.9885C8.88384 21.9238 8.7232 21.8591 8.56256 21.8106H8.53043C8.41799 21.7782 8.32161 21.762 8.20916 21.7458C8.1449 21.7458 8.08065 21.7297 8.01639 21.7297H7.85576C7.77544 21.7297 7.69512 21.7458 7.6148 21.7458C7.58267 21.7458 7.56661 21.7459 7.53448 21.762C7.50235 21.762 7.45416 21.7782 7.42204 21.7782C7.40597 21.7782 7.38991 21.7782 7.37384 21.7944C7.34172 21.7944 7.32565 21.8106 7.29353 21.8106C7.24533 21.8268 7.18108 21.8429 7.13289 21.8591C7.11682 21.8591 7.0847 21.8753 7.06863 21.8753C7.00438 21.9076 6.92406 21.9238 6.8598 21.9562C6.82768 21.9724 6.81161 21.9885 6.77948 21.9885L6.6831 22.0371L6.65097 22.0533C6.61885 22.0694 6.58672 22.0856 6.55459 22.118C6.52246 22.1342 6.49034 22.1504 6.45821 22.1827C6.42608 22.1989 6.39395 22.2312 6.36183 22.2474C6.34576 22.2636 6.31364 22.2798 6.29757 22.296C6.24938 22.3445 6.18513 22.393 6.13693 22.4416L6.05662 22.5225C6.00842 22.571 5.9763 22.6196 5.92811 22.6681L5.91204 22.6843C5.89598 22.7166 5.86385 22.7328 5.84779 22.7652L5.7996 22.8137C5.71928 22.927 5.63896 23.0564 5.5747 23.1859C5.55864 23.202 5.55864 23.2182 5.54258 23.2344C5.51045 23.2991 5.49438 23.3638 5.46226 23.4286C5.44619 23.4609 5.44619 23.4771 5.43013 23.5095C5.41407 23.5742 5.38194 23.6389 5.36587 23.7198V23.7845C5.34981 23.8331 5.34981 23.8816 5.33375 23.9301C5.33375 23.9625 5.33375 23.9787 5.31768 24.011C5.31768 24.0434 5.31768 24.0596 5.30162 24.0919V24.1567C5.30162 24.2376 5.28556 24.3185 5.30162 24.3994C5.30162 24.4641 5.30162 24.5288 5.31768 24.5935V24.6259C5.31768 24.6582 5.33375 24.6906 5.33375 24.723C5.34981 24.8524 5.38194 24.9657 5.41407 25.0951C5.44619 25.1922 5.47832 25.2731 5.51045 25.354C5.5747 25.5158 5.65502 25.6614 5.7514 25.807C5.94417 26.0983 6.20119 26.3571 6.5064 26.5513C6.66704 26.6646 6.8598 26.7455 7.05257 26.8102C7.22927 26.8749 7.42203 26.9234 7.63086 26.9396C7.67906 26.9396 7.72725 26.9558 7.75937 26.9558H7.9682C8.03246 26.9558 8.09671 26.9396 8.16097 26.9396C8.1931 26.9396 8.24129 26.9396 8.27341 26.9234C8.3698 26.9073 8.45012 26.8911 8.5465 26.8749H8.56256C8.59469 26.8587 8.62682 26.8587 8.67501 26.8425C8.78745 26.8102 8.8999 26.7616 8.99628 26.7131L9.01235 26.6969C9.04447 26.6807 9.0766 26.6646 9.09267 26.6646C9.04447 26.3895 8.99628 26.0983 8.98022 25.807C9.06054 25.7747 9.06054 25.7585 9.06054 25.7423Z" fill="#FCE9CD"/>
<path d="M34.0557 29.2047C34.0557 29.1885 34.0557 29.1724 34.0397 29.1724C34.0236 29.14 34.0236 29.1238 34.0236 29.1076C33.9433 28.8488 33.8469 28.6546 33.7505 28.509C33.6381 28.331 33.5417 28.2339 33.5417 28.2339L33.5899 28.0398C33.6059 27.9589 33.622 27.878 33.622 27.7971C33.6863 27.2146 33.5417 26.7615 33.4132 26.5027C33.3971 26.4541 33.381 26.4218 33.365 26.3894C33.2686 26.4541 33.1883 26.5188 33.0919 26.5836C31.357 27.7647 29.4133 28.5252 27.3089 28.8488C25.8632 29.0753 24.3372 29.0915 22.7468 28.8973L22.779 28.9135C22.779 28.9135 21.8151 29.0429 21.5581 29.9652L21.5742 29.9814L21.4939 30.5962C21.526 31.4375 21.8955 31.9553 22.3292 32.2304C22.779 32.4083 23.3251 32.5378 23.9356 32.6187C24.9797 32.7481 26.2005 32.7158 27.4214 32.5216C29.0599 32.2951 31.3731 31.4214 33.0276 30.2888C33.3971 30.0299 33.7505 29.7548 34.0397 29.4798L34.0557 29.4636L34.0718 29.4474C34.0718 29.3342 34.0557 29.2694 34.0557 29.2047Z" fill="white"/>
<path d="M30.9233 21.212C30.0398 20.6618 29.9113 20.4839 29.9916 19.0115C30.0237 18.4775 30.0719 17.7818 30.1362 16.8272C30.1362 16.6977 30.1522 16.5845 30.1522 16.4712V16.3903V16.002C30.1522 15.9211 30.1362 15.8402 30.1362 15.7755C30.1362 15.7431 30.1362 15.7108 30.1201 15.6784C30.104 15.5975 30.104 15.5166 30.088 15.4357C30.088 15.4034 30.0719 15.3548 30.0719 15.3224C30.0719 15.2739 30.0558 15.2416 30.0398 15.193C30.0237 15.1607 30.0237 15.1121 30.0076 15.0798C29.8791 14.8856 29.7346 14.7238 29.5579 14.5782L29.5257 14.5458L29.4936 14.5296H29.4775C29.4454 14.5135 29.4294 14.4973 29.3972 14.4811C29.3651 14.4649 29.333 14.4487 29.3169 14.4326C29.0599 14.2708 28.7547 14.1737 28.4495 14.1251C28.2728 14.0928 28.0961 14.0928 27.9194 14.0928C27.839 14.0928 27.7427 14.109 27.6623 14.109C27.4374 14.1413 27.2126 14.1899 26.9716 14.2546C26.8913 14.3031 26.811 14.3678 26.7306 14.4164C26.6664 14.4649 26.6021 14.5135 26.5218 14.562L26.4897 14.5782C26.4254 14.6267 26.3451 14.6753 26.2809 14.7076L26.2487 14.7238C26.1845 14.7723 26.1042 14.8047 26.0399 14.8532L26.0078 14.8694C25.9435 14.918 25.8632 14.9503 25.7829 14.9827L25.7508 14.9989C25.6704 15.0312 25.6062 15.0636 25.5259 15.0959L25.4937 15.1121C25.4134 15.1445 25.3331 15.1607 25.2528 15.193H25.2367C25.1564 15.2092 25.06 15.2254 24.9797 15.2415C24.8351 15.2577 24.6745 15.2739 24.5299 15.2739C24.289 15.2739 24.048 15.2577 23.791 15.2254L23.55 15.1768C23.5179 15.1768 23.4858 15.1607 23.4697 15.1607C23.2609 15.1121 23.036 15.0636 22.8271 15.015C22.7308 14.9989 22.6504 14.9665 22.5541 14.9503C22.4095 14.918 22.2649 14.8856 22.1043 14.8532C22.0722 14.8532 22.04 14.8371 22.024 14.8371C21.8955 14.8371 21.7669 14.8532 21.6545 14.8694H21.6224C21.2529 14.918 20.8995 14.9989 20.53 15.1283C20.514 15.1283 20.4979 15.1445 20.4658 15.1445C20.4015 15.1607 20.3533 15.193 20.2891 15.2092C20.2088 15.2416 20.1445 15.2739 20.0642 15.3063C19.5341 15.5328 19.0361 15.8564 18.5542 16.2609C18.3614 16.4227 18.1847 16.6007 18.008 16.7786C17.751 17.0537 17.5261 17.3449 17.3173 17.6524C17.3012 17.6685 17.3012 17.6847 17.2852 17.7009C17.1727 17.8627 17.0763 18.0407 16.996 18.2025C16.9639 18.2672 16.9317 18.3319 16.8996 18.3805V18.3966C16.8032 18.607 16.7229 18.8011 16.6587 19.0115C16.6587 19.0277 16.6587 19.0438 16.6426 19.0438C16.6265 19.0762 16.6265 19.1086 16.6105 19.1409C16.5783 19.238 16.5462 19.3351 16.5302 19.4322C16.498 19.5292 16.482 19.6263 16.4659 19.7396C16.4659 19.7558 16.4498 19.7881 16.4498 19.8043C16.4338 19.869 16.4338 19.9337 16.4177 19.9823C16.3856 20.2088 16.3695 20.4353 16.3535 20.6618V20.8236C16.4498 21.1958 16.5944 21.5356 16.7711 21.8268C17.4297 22.9756 18.5221 23.6713 19.3252 24.0434C19.6305 24.1729 19.9517 24.3023 20.2891 24.4156L20.3051 24.4318L20.3212 24.4156C20.3694 24.3832 20.4015 24.3509 20.4497 24.3185C20.4658 24.3023 20.4818 24.3023 20.4979 24.2861L20.6425 24.1891C20.6585 24.1729 20.6746 24.1729 20.6907 24.1567L20.8352 24.0596C20.8513 24.0434 20.8674 24.0434 20.8834 24.0273C20.9316 23.9949 20.9798 23.9625 21.0441 23.9302C21.0601 23.914 21.0762 23.914 21.0923 23.8978C21.1405 23.8655 21.2047 23.8331 21.2529 23.8007C21.269 23.7846 21.285 23.7846 21.3011 23.7684C21.3493 23.736 21.4135 23.7037 21.4617 23.6713C21.4778 23.6551 21.5099 23.6551 21.526 23.6389C21.5742 23.6066 21.6384 23.5742 21.6866 23.5419C21.7027 23.5257 21.7348 23.5095 21.7509 23.5095C21.7991 23.4771 21.8633 23.4448 21.9276 23.4124C21.9597 23.3962 21.9758 23.3801 22.0079 23.3801C22.0722 23.3477 22.1203 23.3153 22.1846 23.2992C22.2167 23.283 22.2328 23.2668 22.2649 23.2668C22.3292 23.2344 22.3774 23.2183 22.4416 23.1859L22.538 23.1374C22.6023 23.105 22.6504 23.0888 22.7147 23.0565C22.7468 23.0403 22.779 23.0241 22.8271 23.0079C22.8914 22.9917 22.9396 22.9594 23.0038 22.9432C23.036 22.927 23.0842 22.9108 23.1163 22.8947C23.1806 22.8785 23.2287 22.8461 23.293 22.8299C23.3412 22.8138 23.3733 22.7976 23.4215 22.7814C23.4858 22.7652 23.534 22.7329 23.5982 22.7167L23.7428 22.6681C23.791 22.652 23.8552 22.6358 23.9034 22.6034C23.9516 22.5872 24.0159 22.5711 24.0641 22.5549C24.1123 22.5387 24.1765 22.5225 24.2247 22.5063C24.289 22.4902 24.3532 22.474 24.4014 22.4578C24.4496 22.4416 24.4978 22.4254 24.562 22.4093C24.6263 22.3931 24.6905 22.3769 24.7709 22.3446C24.803 22.3284 24.8351 22.3284 24.8672 22.3122C25.1243 21.6488 25.9114 19.9985 27.2447 19.8205C27.3893 19.8043 27.5178 19.7881 27.6463 19.7881H27.7427C27.7266 19.691 27.7105 19.594 27.7105 19.4807C27.6623 18.7688 27.8872 18.1701 28.1924 18.1539C28.4334 18.1378 28.6262 18.4937 28.6583 18.607C28.7547 18.8173 28.8189 19.0924 28.835 19.3998C28.8511 19.6749 28.8189 19.9337 28.7707 20.1603C28.8029 20.1926 28.8189 20.225 28.8511 20.2412C29.1563 20.6295 29.2045 21.1472 29.1884 21.5356C29.3008 21.5194 29.4294 21.5194 29.5579 21.5032C29.59 21.5032 29.6221 21.5032 29.6542 21.487H29.7185C29.8631 21.4708 30.0237 21.4547 30.1843 21.4547C30.5378 21.4223 30.8912 21.4061 31.2606 21.3899C31.0518 21.2767 30.9233 21.212 30.9233 21.212ZM34.2806 31.1788C33.7023 31.6966 33.0919 32.1172 32.4815 32.457C32.1763 32.6188 31.871 32.7644 31.5819 32.8939C30.9233 33.1851 30.2968 33.3793 29.7346 33.5249C28.4977 33.8323 27.6463 33.8323 27.6463 33.8323C28.321 34.2045 29.1723 34.2045 29.7506 34.1559C30.1522 34.1236 30.4253 34.0427 30.4253 34.0427C30.4092 34.2854 30.3771 34.5119 30.345 34.7384C30.2968 34.9811 30.2325 35.1914 30.1522 35.3856V35.4018C30.0558 35.6445 29.9273 35.8548 29.7988 36.049C29.7828 36.0652 29.7667 36.0975 29.7506 36.1137L29.7988 36.0813C30.0076 35.9681 30.2165 35.8386 30.4253 35.7092C30.5859 35.6121 30.7466 35.4989 30.8912 35.4018C31.1482 35.2238 31.4052 35.0296 31.6622 34.8193C31.6783 34.8031 31.6943 34.7869 31.7104 34.7869C31.9514 34.5766 32.1923 34.3501 32.4011 34.1236C32.6903 33.8161 32.9473 33.5087 33.1722 33.2013L33.1883 33.1851C33.2525 33.1042 33.3007 33.0395 33.3489 32.9586L33.365 32.9424C33.381 32.9101 33.3971 32.8939 33.4132 32.8615C33.4935 32.7483 33.5577 32.6512 33.6381 32.5379C33.6541 32.5056 33.6702 32.4894 33.6862 32.457C33.7184 32.3923 33.7505 32.3438 33.7987 32.279C33.8308 32.2305 33.8469 32.1981 33.879 32.1496C33.9111 32.1011 33.9433 32.0525 33.9593 32.004C34.0075 31.9231 34.0557 31.826 34.1039 31.7451L34.1521 31.648L34.2485 31.4539L34.2967 31.3568L34.3127 31.3244C34.3449 31.2435 34.3931 31.1626 34.4252 31.0817C34.3609 31.0979 34.3288 31.1303 34.2806 31.1788ZM19.6305 24.6583C19.4698 24.7068 19.2771 24.7877 19.0843 24.8686C18.5703 25.079 17.992 25.3864 17.4779 25.8071C17.4137 25.8556 17.3494 25.9203 17.2852 25.9689C17.1727 26.0659 17.0763 26.163 16.9799 26.2763L16.9478 26.3086L16.8996 26.3572C16.8675 26.4057 16.8193 26.4381 16.7872 26.4866L16.739 26.5352C16.6908 26.5999 16.6426 26.6646 16.6105 26.7293C16.5623 26.794 16.5302 26.8588 16.482 26.9235C16.1768 27.4574 16.0001 28.1046 16.0482 28.8812V28.8489C16.0482 28.8327 16.0482 28.8165 16.0643 28.8004V28.7842C16.0643 28.768 16.0804 28.7518 16.0804 28.7195V28.7033C16.0804 28.6871 16.0964 28.6547 16.0964 28.6224C16.0964 28.59 16.1125 28.5738 16.1286 28.5415V28.5253C16.1446 28.4929 16.1446 28.4606 16.1607 28.4282V28.412C16.1768 28.3797 16.1768 28.3473 16.1928 28.315V28.2988C16.2089 28.2664 16.2249 28.2341 16.241 28.1855L16.2571 28.1693C16.2731 28.137 16.2892 28.0884 16.3213 28.0561C16.3535 27.9914 16.3856 27.9428 16.4177 27.8781C16.4338 27.8619 16.4498 27.8296 16.4659 27.8134L16.482 27.7972L16.5783 27.6516C16.6105 27.6192 16.6426 27.5707 16.6747 27.5383L16.7069 27.506C16.739 27.4736 16.755 27.4412 16.7872 27.4251L16.8193 27.3927C16.8514 27.3603 16.8996 27.328 16.9317 27.2794C16.9317 27.2794 16.241 28.8651 16.5462 30.1109V30.0947V30.0624V30.0138V29.9491V29.8682C16.5462 29.8359 16.5462 29.8035 16.5623 29.7711C16.5623 29.7388 16.5623 29.7064 16.5783 29.6741V29.6579C16.5783 29.6255 16.5944 29.577 16.5944 29.5446V29.5123C16.6105 29.4637 16.6105 29.4314 16.6265 29.3828V29.3666C16.6426 29.3181 16.6587 29.2696 16.6587 29.2372C16.6587 29.221 16.6747 29.2048 16.6747 29.1887L16.6908 29.1563C16.7069 29.1239 16.7229 29.0754 16.739 29.043C16.755 28.9945 16.7872 28.946 16.8193 28.8974C16.8193 28.8813 16.8354 28.8651 16.8354 28.8651L16.9317 28.7195C16.9317 28.7195 16.8996 29.1078 16.8996 29.577C16.8996 29.6579 16.8996 29.7226 16.9157 29.8035C16.9157 29.852 16.9157 29.9006 16.9317 29.9491C16.9639 29.4475 17.0603 28.9783 17.1888 28.5415C17.2209 28.4282 17.2691 28.2988 17.3012 28.1855C17.3012 28.1693 17.3173 28.1532 17.3173 28.137C17.3655 28.0237 17.3976 27.9266 17.4458 27.8134C17.4619 27.7972 17.4619 27.781 17.4779 27.7487C17.5261 27.6516 17.5743 27.5383 17.6225 27.4412C17.6386 27.4251 17.6386 27.4089 17.6386 27.3927C17.751 27.1824 17.8634 26.9882 17.9759 26.8102C17.992 26.794 17.992 26.7779 18.008 26.7617C18.0562 26.697 18.1044 26.6322 18.1526 26.5513C18.1687 26.5352 18.1687 26.519 18.1847 26.5028C18.2008 26.4866 18.2008 26.4704 18.2169 26.4543C18.2811 26.3734 18.3293 26.2925 18.3936 26.2116C18.4096 26.1954 18.4096 26.1792 18.4257 26.1792C18.4899 26.0983 18.5542 26.0174 18.6184 25.9527C18.6988 25.8556 18.7791 25.7747 18.8594 25.6776C18.9237 25.6129 18.9718 25.5482 19.0361 25.4996L19.1004 25.4349C19.2289 25.3055 19.3574 25.176 19.4859 25.0628C19.8393 24.7392 20.1284 24.5288 20.2248 24.4641C20.1606 24.4803 20.0963 24.4965 20.016 24.5127C19.9196 24.5612 19.7911 24.6097 19.6305 24.6583Z" fill="#F2D2AC"/>
<path d="M28.8832 21.1473C28.8832 21.1473 28.8832 21.1149 28.8671 21.0502C28.8029 20.8237 28.578 20.2736 27.6945 20.3545C26.7628 20.4516 26.4415 21.212 26.3612 21.4709C26.3451 21.5194 26.3451 21.5518 26.3451 21.5518L26.3772 21.568C26.4897 21.4709 26.7146 21.4709 26.9234 21.6165C27.0198 21.6812 27.084 21.746 27.1483 21.8269C27.2286 21.9563 27.2447 22.0857 27.1965 22.1828L27.1483 22.2314C27.1483 22.2314 27.1804 22.2475 27.2447 22.2637C27.5017 22.3446 28.2246 22.4902 28.6101 21.9887C28.6262 21.9563 28.6422 21.9401 28.6583 21.9078C28.578 21.8754 28.5458 21.7621 28.5458 21.6165C28.5458 21.5518 28.5619 21.4871 28.578 21.4062C28.6262 21.212 28.7707 21.0988 28.8832 21.1473ZM24.2408 28.0723C23.6303 28.2018 23.1002 28.2988 22.6986 28.3636C22.7147 28.3636 22.7468 28.3636 22.7629 28.3797C23.4536 28.4606 24.546 28.5739 25.8632 28.493C28.2728 28.3474 31.4373 27.5869 34.3127 24.9658V24.9496C34.3288 24.7231 34.2967 24.3348 34.0236 24.0273C33.9754 23.9788 33.9272 23.9303 33.863 23.8817C33.8469 23.8817 33.8469 23.8655 33.8308 23.8655C33.7505 23.817 33.6863 23.7846 33.622 23.7361L33.4774 23.639V23.6228C33.3007 23.8817 33.0919 24.1244 32.867 24.3509C32.7867 24.4318 32.7064 24.5127 32.61 24.5936C31.8229 25.3056 30.7948 25.9204 29.6864 26.4058C27.8551 27.2148 25.7989 27.7487 24.2408 28.0723ZM9.01232 23.8494C8.98019 23.8655 8.96413 23.8979 8.932 23.9141L8.89987 23.9464C8.86775 23.9788 8.83562 24.0112 8.81956 24.0435L8.80349 24.0597L8.70711 24.2053L8.69105 24.2215C8.69105 24.2377 8.67498 24.2377 8.67498 24.2539L8.62679 24.3509V24.3833C8.61073 24.4318 8.5786 24.4804 8.56254 24.5289C8.51434 24.6584 8.46615 24.7878 8.43403 24.9011C8.41796 24.9334 8.41796 24.982 8.4019 24.9981C8.38583 25.0629 8.36977 25.1276 8.36977 25.1438C8.36977 25.0952 8.36977 25.0629 8.38583 25.0143C8.38583 24.9334 8.4019 24.8363 8.4019 24.7554C8.4019 24.6907 8.41796 24.6098 8.43403 24.5451C8.43403 24.5289 8.43403 24.4966 8.45009 24.4804C8.45009 24.448 8.46615 24.4157 8.46615 24.3833C8.46615 24.3509 8.48222 24.3186 8.48222 24.2862V24.2377C8.48222 24.2053 8.49828 24.1568 8.49828 24.1244V24.0435V24.0112C8.49828 23.995 8.49828 23.9788 8.51434 23.9626C8.53041 23.9141 8.54647 23.8494 8.54647 23.8008V23.7846C8.56254 23.7523 8.56254 23.7037 8.5786 23.6714V23.6552C8.59466 23.5743 8.62679 23.4934 8.64285 23.4125V23.3801C8.64285 23.364 8.64285 23.3478 8.65892 23.3316C8.69105 23.2022 8.73924 23.0727 8.77136 22.9595V22.9433C8.80349 22.8462 8.85168 22.7329 8.88381 22.6359V22.6197C8.89987 22.5711 8.91594 22.5388 8.932 22.4902C8.96413 22.4255 8.98019 22.3608 9.01232 22.2961C9.01232 22.2799 9.02838 22.2475 9.06051 22.1828C9.07658 22.1666 9.07658 22.1343 9.09264 22.1181C9.1087 22.0857 9.12477 22.0534 9.14083 22.0048L9.15689 21.9725C9.14083 21.9563 9.1087 21.9563 9.09264 21.9401H9.07658L9.04445 21.9239C8.89987 21.8592 8.73924 21.7945 8.5786 21.746H8.54647C8.43403 21.7136 8.33764 21.6974 8.2252 21.6812C8.16094 21.6812 8.09669 21.6651 8.03243 21.6651H7.87179C7.79148 21.6651 7.71116 21.6812 7.63084 21.6812C7.59871 21.6812 7.58265 21.6812 7.55052 21.6974C7.51839 21.6974 7.4702 21.7136 7.43807 21.7136C7.42201 21.7136 7.40595 21.7136 7.38988 21.7298C7.35775 21.7298 7.34169 21.746 7.30956 21.746C7.26137 21.7621 7.19712 21.7783 7.14893 21.7945C7.13286 21.7945 7.10073 21.8107 7.08467 21.8107C7.02041 21.843 6.9401 21.8592 6.87584 21.8916C6.84371 21.9078 6.82765 21.9239 6.79552 21.9239L6.69914 21.9725L6.66701 21.9887C6.63488 22.0048 6.60276 22.021 6.57063 22.0534C6.5385 22.0696 6.50637 22.0857 6.47425 22.1181C6.44212 22.1343 6.40999 22.1666 6.37786 22.1828C6.3618 22.199 6.32967 22.2152 6.31361 22.2314C6.26542 22.2799 6.20116 22.3284 6.15297 22.377L6.07265 22.4579C6.02446 22.5064 5.99233 22.555 5.94414 22.6035L5.92808 22.6197C5.91202 22.652 5.87989 22.6682 5.86382 22.7006L5.81563 22.7491C5.73531 22.8624 5.655 22.9918 5.59074 23.1213C5.57468 23.1374 5.57468 23.1536 5.55861 23.1698C5.52649 23.2345 5.51042 23.2992 5.47829 23.364C5.46223 23.3963 5.46223 23.4125 5.44617 23.4449C5.44617 23.461 5.46223 23.4772 5.46223 23.4934C5.47829 23.5581 5.49436 23.6067 5.51042 23.6714V23.7037C5.52649 23.7523 5.55861 23.817 5.57468 23.8655C5.63893 24.0273 5.70319 24.173 5.78351 24.3024C5.79957 24.3186 5.79957 24.3348 5.81563 24.3509V24.3671L5.8317 24.3833C5.87989 24.4804 5.92808 24.5613 5.97627 24.626C6.05659 24.7393 6.12084 24.8202 6.16904 24.8849L6.20116 24.9172C6.20116 24.9334 6.21723 24.9334 6.21723 24.9334L6.24935 24.9658C6.24935 24.9334 6.23329 24.9011 6.23329 24.8849C6.1851 24.6745 6.16904 24.4804 6.16904 24.27V24.2377C6.16904 24.1082 6.16904 23.9788 6.1851 23.8655L6.23329 24.0112C6.24935 24.0759 6.28148 24.1406 6.29755 24.2053V24.2377C6.39393 24.5127 6.50637 24.7393 6.61882 24.9172C6.74733 25.1438 6.85978 25.2894 6.9401 25.3865C6.95616 25.4026 6.97222 25.4188 6.97222 25.435L7.00435 25.4674C6.95616 25.2408 6.92403 25.0305 6.92403 24.8202V24.6098C6.92403 24.5127 6.92403 24.4318 6.9401 24.3509C6.97222 24.4966 7.02041 24.6422 7.06861 24.7716V24.7878C7.24531 25.257 7.45414 25.5968 7.59871 25.8071L7.61477 25.8233C7.6469 25.8557 7.66297 25.888 7.67903 25.9204C7.69509 25.9366 7.71116 25.9527 7.71116 25.9689L7.74328 26.0013L7.75935 26.0175V25.9851C7.75935 25.9528 7.74328 25.9204 7.74328 25.888C7.72722 25.7748 7.71116 25.6615 7.69509 25.5644C7.69509 25.4997 7.67903 25.4188 7.67903 25.3541V25.1599V25.1276V24.9981C7.67903 24.9172 7.69509 24.8202 7.69509 24.7393C7.71116 24.7878 7.72722 24.8525 7.74328 24.9011C7.75935 24.9334 7.77541 24.982 7.79148 25.0143V25.0305L7.80754 25.0467C7.8236 25.0952 7.83967 25.1438 7.85573 25.1761C7.88786 25.257 7.91999 25.3379 7.96818 25.4026C8.01637 25.4997 8.0485 25.5806 8.09669 25.6453C8.12881 25.6939 8.14488 25.7262 8.16094 25.7586C8.19307 25.8071 8.2252 25.8557 8.24126 25.888C8.27339 25.9204 8.28945 25.9528 8.30552 25.9851L8.32158 26.0013C8.33764 26.0336 8.36977 26.0498 8.38583 26.0822C8.4019 26.0984 8.41796 26.1145 8.41796 26.1307C8.45009 26.1631 8.46615 26.1954 8.48222 26.1954L8.49828 26.2116V26.1631C8.51434 26.0336 8.53041 25.888 8.54647 25.7586V25.71C8.56254 25.5482 8.59466 25.4026 8.62679 25.257C8.62679 25.2408 8.62679 25.2247 8.64285 25.1923V25.1761C8.64285 25.1599 8.64285 25.1438 8.65892 25.1276C8.65892 25.0952 8.67498 25.079 8.67498 25.0467C8.69105 24.9334 8.72317 24.8202 8.73924 24.7069C8.7553 24.6098 8.77136 24.5127 8.78743 24.4318V24.3995C8.78743 24.3833 8.78743 24.3671 8.80349 24.3671V24.3348C8.80349 24.3186 8.81956 24.2862 8.81956 24.27C8.81956 24.2539 8.81956 24.2377 8.83562 24.2215C8.83562 24.1891 8.85168 24.1568 8.85168 24.1406C8.85168 24.1244 8.86775 24.0921 8.86775 24.0759C8.86775 24.0435 8.88381 24.0112 8.88381 23.995C8.88381 23.9788 8.88381 23.9626 8.89987 23.9464C8.89987 23.9303 8.89987 23.9141 8.91594 23.9141C8.91594 23.8817 8.932 23.8655 8.932 23.8494V23.8008L9.01232 23.8494ZM28.4816 30.6126C28.7065 30.5317 28.8993 30.467 29.0599 30.4022C29.3651 30.2728 29.5257 30.1757 29.5257 30.1434C29.5097 30.111 29.333 30.1272 29.0117 30.2081C28.8511 30.2404 28.6583 30.2728 28.4173 30.3375C28.3049 30.3699 28.1764 30.3861 28.0479 30.4022C27.9194 30.4184 27.7748 30.4508 27.6302 30.467C27.3411 30.5155 27.0198 30.5479 26.6664 30.5802L26.1363 30.6288C25.9596 30.6449 25.7668 30.6449 25.5741 30.6611C24.803 30.6773 23.9516 30.6449 23.0842 30.4831C22.6344 30.4022 22.0079 30.1919 21.5742 29.9492L21.5581 29.933C21.8151 29.0108 22.779 28.8813 22.779 28.8813L22.7468 28.8651H22.6986C22.5541 28.849 22.4416 28.8328 22.3292 28.8166C22.2489 28.8004 22.1846 28.8004 22.1364 28.7842C22.0882 28.7842 22.04 28.7681 22.024 28.7681C21.4457 28.7357 21.1244 29.2211 21.028 29.4314L20.9798 29.5285C20.8995 29.7227 20.8352 29.933 20.8192 30.1757C20.7871 30.6126 20.8995 31.0818 21.2368 31.4863C21.4617 31.7614 21.8473 32.0041 22.3452 32.1982C21.9115 31.9232 21.526 31.3892 21.5099 30.564C22.0079 30.7744 22.5701 30.9038 23.0039 30.9847C23.9195 31.1627 24.8191 31.1789 25.6062 31.1303C25.7989 31.1142 26.0078 31.098 26.1845 31.0818C26.3772 31.0494 26.5539 31.0333 26.7306 31.0171C27.084 30.9524 27.3893 30.9038 27.6945 30.8391C27.839 30.8067 27.9836 30.7744 28.1121 30.7258C28.2567 30.6935 28.3691 30.6611 28.4816 30.6126Z" fill="#F2D2AC"/>
<path d="M27.7266 19.8043C28.2086 19.8205 28.5298 19.9661 28.7547 20.1927C28.8029 19.9823 28.835 19.7234 28.819 19.4322C28.8029 19.1248 28.7387 18.8497 28.6423 18.6394C28.6102 18.5099 28.4174 18.1702 28.1764 18.1863C27.8712 18.2025 27.6463 18.8012 27.6945 19.5131C27.6945 19.6102 27.7106 19.7073 27.7266 19.8043ZM28.5298 21.6327C28.5298 21.7621 28.578 21.8754 28.6423 21.9239C28.7547 21.9886 28.8993 21.8592 28.9636 21.6489C28.9636 21.6327 28.9796 21.6165 28.9796 21.6003C29.0278 21.4062 28.9796 21.212 28.8672 21.1635C28.7547 21.0987 28.6102 21.2282 28.5459 21.4385C28.5459 21.5032 28.5298 21.568 28.5298 21.6327ZM26.3452 21.9886C26.3934 22.0695 26.4737 22.1504 26.5701 22.2152C26.7789 22.3446 27.0038 22.3608 27.1323 22.2475L27.1805 22.199C27.2287 22.1019 27.2126 21.9725 27.1323 21.843C27.0841 21.7621 27.0038 21.6812 26.9074 21.6327C26.6986 21.5032 26.4737 21.4871 26.3612 21.5841C26.3452 21.6003 26.3291 21.6165 26.313 21.6489C26.2648 21.7298 26.2809 21.8592 26.3452 21.9886ZM34.3289 24.9496C34.3128 24.9496 34.3128 24.9496 34.3289 24.9496ZM34.0718 29.4314C33.7666 29.7227 33.4293 29.9977 33.0437 30.2566C31.3892 31.3892 29.076 32.2791 27.4375 32.4894C26.2006 32.6836 24.9958 32.7159 23.9517 32.5865C23.3412 32.5056 22.8111 32.3762 22.3453 32.1982C21.8473 32.004 21.4618 31.7613 21.2369 31.4863C20.8995 31.0818 20.8032 30.5964 20.8192 30.1757C20.8353 29.9492 20.8835 29.7227 20.9799 29.5285L21.0281 29.4314C21.1405 29.2211 21.4457 28.7195 22.024 28.768C22.0401 28.768 22.0883 28.768 22.1365 28.7842C22.1847 28.7842 22.265 28.8004 22.3292 28.8166C22.4417 28.8328 22.5541 28.8489 22.6987 28.8651H22.7469C24.3372 29.0593 25.8633 29.0431 27.309 28.8166C29.4133 28.493 31.3571 27.7325 33.0919 26.5514C33.1883 26.4867 33.2686 26.4219 33.365 26.3572L34.3128 24.9334C31.4374 27.5707 28.2728 28.3312 25.8633 28.4768C24.546 28.5577 23.4537 28.4606 22.7629 28.3635C22.7308 28.3635 22.7148 28.3635 22.6987 28.3474C22.4899 28.315 22.3292 28.2988 22.2007 28.2826C22.1365 28.2826 22.0883 28.2665 22.0561 28.2665C21.8794 28.2503 21.7027 28.2826 21.5421 28.3312C21.2208 28.4283 20.9317 28.6548 20.7228 28.946C20.4658 29.302 20.3052 29.7874 20.3052 30.2728C20.3052 30.6773 20.4016 31.098 20.6104 31.4863C20.6265 31.5025 20.6265 31.5186 20.6425 31.5348C20.6747 31.5833 20.6907 31.6157 20.7228 31.6642C20.755 31.7128 20.8032 31.7775 20.8514 31.826C21.3493 32.4571 22.4417 32.9101 23.8874 33.1043C24.8673 33.2337 26.0078 33.2175 27.2447 33.0395C30.9073 32.3762 32.6422 31.1789 33.4453 30.3537C33.5096 30.289 33.5578 30.2404 33.606 30.1757C33.8951 29.8359 34.0236 29.577 34.0718 29.48V29.4638C34.0879 29.4314 34.0879 29.4152 34.0879 29.4152L34.0718 29.4314Z" fill="#664F44"/>
<path d="M22.4256 16.6492C22.3132 16.5845 22.1847 16.5359 22.0562 16.5036C21.9758 16.4874 21.8955 16.4712 21.7991 16.455C21.767 16.455 21.7349 16.455 21.7027 16.4388C21.269 16.4065 20.8996 16.4712 20.8996 16.4712C20.8192 16.4874 20.7389 16.5036 20.6747 16.5359C20.0964 16.7139 19.6948 17.0213 19.4056 17.3773C19.1807 17.6685 19.0201 17.9759 18.9398 18.2834C18.9237 18.3157 18.9237 18.3319 18.9237 18.3643C18.9077 18.4452 18.8755 18.5261 18.8595 18.5908C18.8113 18.8497 18.7791 19.0762 18.7791 19.2703C18.7791 19.5292 18.7952 19.691 18.7952 19.691C18.8916 19.4645 19.004 19.2703 19.1165 19.0762C19.3896 18.607 19.6787 18.2186 19.9839 17.9112C20.5622 17.3126 21.1566 16.989 21.6064 16.8272C22.0883 16.6654 22.4256 16.6492 22.4256 16.6492ZM29.3812 15.824L29.3652 15.7916C29.3009 15.7107 29.2206 15.6298 29.1242 15.5651C28.8993 15.4195 28.5941 15.3386 28.1764 15.4195C28.1764 15.4195 27.6785 15.5328 27.3893 15.8725C27.3893 15.8725 28.2568 15.5004 29.1885 16.1638C29.2688 16.2285 29.3652 16.2932 29.4455 16.3741C29.5258 16.455 29.6222 16.5359 29.7025 16.6492C29.7025 16.6492 29.6704 16.2447 29.4294 15.8887C29.4134 15.8564 29.3973 15.8402 29.3812 15.824Z" fill="#E9B784"/>
<path d="M22.538 22.2637C22.8754 22.1666 23.2288 22.0695 23.6304 21.9724C23.6946 21.665 23.7107 21.2929 23.6625 20.8884C23.55 19.9499 23.1324 19.2218 22.7147 19.2704C22.2971 19.3189 22.0561 20.1279 22.1686 21.0663C22.2328 21.5517 22.3613 21.9724 22.538 22.2637Z" fill="#664F44"/>
<path d="M20.6264 1.11646L19.759 1.31061L19.9357 2.89625L17.6386 1.71511L16.6908 2.00635L16.7069 2.02253L19.502 5.22616L19.5341 5.20998L19.5662 5.1938C19.6465 5.14526 19.7429 5.08054 19.8232 5.032C19.8554 5.01582 19.8875 4.99964 19.9196 4.96728C20.0481 4.88638 20.1766 4.80548 20.3051 4.74076L19.1164 3.36547L21.028 4.30391C21.0923 4.27155 21.1405 4.23919 21.2047 4.20683L21.028 2.83153L21.8955 3.85087H21.9115C21.9918 3.81851 22.0561 3.76997 22.1364 3.73761L22.1685 3.72143L22.2007 3.70525C22.2167 3.70525 22.2328 3.68907 22.2328 3.68907L22.3292 3.64053C22.3292 3.64053 22.3452 3.64053 22.3452 3.62435C22.4416 3.57581 22.5541 3.52727 22.6505 3.47873L20.6264 1.11646Z" fill="#FFD250"/>
<path d="M19.7751 1.31067L19.9036 1.27831C19.6947 1.18123 19.4377 1.11651 19.1486 1.06797C18.5703 0.987073 17.8313 1.06797 16.996 1.27831C16.1607 1.48865 15.213 1.86079 14.217 2.36237C12.209 3.36553 9.99224 4.90262 7.83969 6.87658C7.0847 7.55613 6.39395 8.26805 5.7514 8.96379L8.35373 12.1998C9.06054 11.4231 9.81554 10.6465 10.6509 9.88605C11.7592 8.86671 12.8837 7.96063 13.9921 7.18399C15.0684 6.42354 16.1447 5.77634 17.1567 5.25858L16.7069 3.18755L16.723 2.02259L16.7069 2.00641L17.6546 1.71517L19.502 2.66979L19.4538 2.02259L19.7751 1.31067Z" fill="#4D9ED7"/>
<path d="M19.7751 1.31055L19.4538 2.02246L19.502 2.68584L19.9518 2.91236L19.7751 1.31055ZM19.1165 3.3654L21.0441 4.32002L20.3052 4.7407L19.1165 3.3654ZM21.0441 2.83146L21.2208 4.20676L21.9116 3.8508L21.0441 2.83146Z" fill="#132134"/>
<path d="M28.3049 2.32991H28.6583C28.9796 2.32991 29.2848 2.37845 29.5739 2.44317C29.59 2.44317 29.6061 2.44317 29.6221 2.45935H29.6382L29.6703 2.47553H29.7024C29.6703 2.45935 29.6382 2.42699 29.6061 2.41081C29.2848 2.28137 28.9475 2.20047 28.5941 2.15193C26.8592 1.92541 24.8673 2.57261 23.7428 3.02564C23.6785 3.058 23.6143 3.07418 23.55 3.10654C23.4537 3.15508 23.3573 3.18744 23.2609 3.23598C23.1002 3.3007 22.9396 3.3816 22.7629 3.4625C22.7308 3.47868 22.7147 3.47868 22.6826 3.49486C22.5862 3.5434 22.4738 3.59194 22.3774 3.64048C22.3774 3.64048 22.3613 3.64048 22.3613 3.65666L22.2649 3.7052C22.2489 3.7052 22.2328 3.72138 22.2328 3.72138H22.1685L22.1525 3.73756C22.0722 3.76992 22.0079 3.80228 21.9276 3.85082H21.9115C21.8955 3.867 21.8794 3.867 21.8633 3.88318H21.8473C21.8312 3.88318 21.8151 3.89936 21.8151 3.89936C21.7027 3.96408 21.5903 4.01262 21.4778 4.07734C21.3975 4.12588 21.3172 4.15824 21.2369 4.20678H21.2208C21.1565 4.23914 21.1083 4.2715 21.0441 4.30386C20.8513 4.40094 20.6746 4.5142 20.4819 4.62746C20.4658 4.64364 20.4497 4.64364 20.4176 4.65982C20.4015 4.676 20.3855 4.676 20.3694 4.69218C20.3533 4.70836 20.3373 4.70836 20.3212 4.72454L20.3052 4.74072C20.1766 4.82162 20.0481 4.88634 19.9196 4.96724C19.8875 4.98342 19.8554 4.9996 19.8232 5.03196C19.7429 5.0805 19.6465 5.14522 19.5662 5.19376L19.5341 5.20994L19.502 5.22612L18.7791 5.71152C18.3775 5.98658 17.992 6.26163 17.6064 6.55287C17.5583 6.58523 17.5101 6.63377 17.4619 6.66613C16.4499 7.42659 15.486 8.25177 14.5543 9.09313C13.5744 9.9992 12.6267 10.9215 11.7432 11.8599C11.2613 12.3453 10.8436 12.7822 10.5223 13.1381C9.84765 13.8662 9.47818 14.3193 9.49424 14.3354C9.49424 14.3354 9.5585 14.2869 9.67095 14.1736C9.59063 14.2707 9.49424 14.384 9.41393 14.4811C10.8918 12.8954 12.5142 11.2774 14.2652 9.7565C15.3254 8.83425 16.4338 7.94435 17.5743 7.11917C18.0723 6.76321 18.5863 6.40725 19.1004 6.06748C19.261 5.95422 19.4377 5.85714 19.5983 5.74388C19.6787 5.69534 19.759 5.6468 19.8554 5.59826C19.9036 5.5659 19.9518 5.53354 19.9999 5.51736C20.0963 5.46882 20.1766 5.4041 20.273 5.35556C20.3533 5.30702 20.4497 5.25848 20.53 5.19376C20.5782 5.1614 20.6264 5.14522 20.6746 5.11286L21.012 4.9187C21.0762 4.88634 21.1405 4.8378 21.2047 4.80544C21.4136 4.69218 21.6224 4.57892 21.8473 4.46566C21.8633 4.44948 21.8794 4.44948 21.8955 4.4333L21.9918 4.38476C22.04 4.36858 22.0722 4.33622 22.1204 4.32004C22.1364 4.30386 22.1525 4.30386 22.1685 4.28768L22.2649 4.23914C22.2649 4.23914 22.281 4.23914 22.281 4.22296H22.2971C22.3934 4.17442 22.4898 4.12588 22.5701 4.09352C22.5862 4.09352 22.6023 4.07734 22.6183 4.06116L22.7147 4.01262C22.8272 3.96408 22.9235 3.91554 23.036 3.867C23.0681 3.85082 23.1002 3.83464 23.1163 3.81846C23.1324 3.81846 23.1484 3.80228 23.1645 3.80228C23.1966 3.7861 23.2288 3.76992 23.2609 3.76992C23.3894 3.72138 23.5018 3.65666 23.6304 3.60812C23.7428 3.55958 23.8392 3.51104 23.9516 3.4625C24.562 3.20362 25.1243 2.99328 25.6544 2.8153C26.6503 2.54025 27.5338 2.36227 28.3049 2.32991Z" fill="white"/>
</g>
<defs>
<clipPath id="clip0_389_704">
<rect width="36" height="41" fill="white"/>
</clipPath>
</defs>
</svg>
