<svg width="212" height="99" viewBox="0 0 212 99" fill="none" xmlns="http://www.w3.org/2000/svg">
<path d="M74.1774 51.6587C76.8712 49.9436 82.4868 43.3464 82.8062 42.7751C83.1261 42.2032 84.2672 41.0595 83.0804 39.9163C81.8932 38.7726 80.706 39.3445 79.1994 40.1798C77.7385 40.7517 71.4836 45.3255 69.1096 47.3489C66.7352 49.0639 60.8002 54.2095 60.8002 54.2095C60.8002 54.2095 57.5128 56.8043 58.7 58.2115C59.8867 59.6187 61.0739 59.0912 62.5805 58.5194C64.3613 57.9475 71.5293 53.3737 74.1774 51.6587ZM206.169 84.0274C207.083 84.2909 209.137 84.9066 209.137 86.8857C209.137 86.8857 207.037 90.8881 206.443 91.196C205.53 91.46 204.069 91.46 201.101 90.3163C198.134 89.1731 183.569 85.7425 179.689 84.8628C175.808 83.9831 167.225 82.5759 167.225 82.5759C167.225 82.5759 166.037 82.004 164.257 84.5988C162.476 87.4575 156.815 95.1979 156.815 95.1979C156.632 95.8574 156.039 96.3416 155.354 96.3416C154.167 96.3416 149.693 96.0338 147.912 95.1979C146.132 94.3625 145.538 94.3182 146.725 92.6032C147.912 90.8881 151.793 83.1477 153.573 81.7405C155.034 80.3328 152.386 80.5968 151.473 80.3328C150.56 80.0693 133.348 79.1896 128.28 79.4536C123.212 79.4536 105.406 79.4536 98.8316 80.025C92.3029 80.289 69.1096 82.6197 62.8547 83.4556C56.5998 84.5988 31.6257 87.7654 28.3842 88.6012C25.1426 89.4366 18.2941 90.3163 18.2941 90.3163C16.0113 90.8 13.6372 90.6241 11.4457 89.7444C8.15846 88.3372 2.81672 86.3143 7.29101 84.8628C11.7653 83.4117 34.0455 79.1458 40.8939 78.2661C47.7424 77.1224 69.4291 74.2641 78.3321 73.9563C87.2352 73.648 111.935 72.2408 121.158 72.2408C130.38 72.2408 142.844 72.8126 148.506 73.3844C153.847 73.648 157.409 73.9558 158.596 74.2641C159.783 74.572 159.783 73.6923 160.97 72.5486C162.157 71.4054 165.444 67.0951 165.444 67.0951C165.444 67.0951 166.631 65.3801 164.257 66.8316C162.157 68.2388 158.595 68.2388 156.815 66.8316C155.034 65.1161 154.441 63.665 153.528 64.2368C151.61 65.2481 149.647 66.1277 147.593 66.8316C145.812 67.403 138.096 69.1185 133.622 66.2597C129.147 63.0932 128.873 61.9499 128.28 60.5423C127.686 58.5632 127.367 58.5632 125.906 59.399C124.399 60.2344 119.377 62.8292 117.277 63.7088C115.405 64.7644 113.213 65.1604 111.022 64.8525C108.054 64.5885 104.767 63.7088 103.306 61.4219C102.119 59.135 101.845 57.42 100.338 58.5632C98.8316 59.7069 90.5221 64.2807 86.0937 65.4239C81.619 66.8754 80.4323 67.1394 78.0579 66.8754C75.3646 66.6114 72.7165 65.4239 71.803 64.0167C70.89 62.6095 70.6163 62.3016 69.4291 62.8735C68.2419 63.7527 64.9549 66.0396 62.5805 66.0396C60.2066 65.7761 53.9516 64.3245 50.7099 58.2997C47.4682 52.2743 49.7969 49.7234 52.8101 46.5569C55.7777 43.6986 61.1196 39.1248 61.1196 39.1248C61.1196 39.1248 67.9681 34.2429 70.0227 33.4073C72.3966 32.2638 75.9577 30.2408 78.3321 30.2408C81.5738 29.845 84.8151 30.7685 87.2804 32.8355C90.5678 35.4303 92.6223 37.9811 92.9422 39.1248C93.2616 40.268 94.7225 43.6986 92.3486 46.2933C89.9742 48.8881 83.1261 54.8691 83.1261 54.8691C83.1261 54.8691 80.4323 56.3206 81.6191 58.0357C82.8063 59.7507 87.2804 56.892 88.7418 56.0566C90.2027 54.9129 97.9643 48.6241 100.338 46.6012C102.713 44.3143 117.596 30.2848 119.057 28.8334C120.245 27.3822 132.754 15.6397 134.489 14.4963C136.27 13.3528 136.863 12.4732 140.425 13.0889C142.296 13.3968 144.077 13.9685 145.766 14.8041C145.766 14.8041 149.327 16.2554 146.36 18.2345C143.666 20.2136 134.17 27.9539 131.795 30.2408C129.421 32.5277 122.573 39.1248 120.518 41.4117C118.418 44.27 112.483 51.439 111.615 52.5822C110.702 54.0337 110.109 55.4409 111.615 56.5841C113.122 57.4638 115.77 56.5841 118.464 54.2972C121.158 52.0103 129.467 45.4136 132.161 42.5549C135.128 39.6962 150.606 25.667 152.067 24.2157C153.573 23.0722 160.696 17.6188 160.696 17.6188C160.696 17.6188 161.609 16.4753 163.664 16.4753C165.718 16.4753 167.818 16.7392 169.005 17.3549L172.566 19.0701C172.566 19.0701 174.027 19.6418 171.653 21.357C169.279 23.0722 156.221 32.7916 152.934 36.5298C149.373 40.268 142.525 47.7005 139.831 50.8671C137.137 54.2972 135.356 55.7488 137.457 58.0357C139.557 60.3226 141.931 59.7507 143.118 59.4867C146.086 57.8598 148.78 55.8364 151.154 53.4619C154.121 50.6031 163.024 41.1477 164.257 40.268C165.17 39.1248 168.731 35.9581 168.731 35.9581C168.731 35.9581 169.325 34.5507 171.425 34.5507C173.525 34.5507 174.393 34.8146 176.493 35.1225C178.273 35.3864 182.428 36.2659 180.373 38.5529C177.999 40.8398 172.338 46.5569 171.151 47.7005C169.964 49.1078 165.216 54.2972 164.302 55.7049C163.389 57.1121 162.203 58.871 163.389 59.7069C164.577 60.5423 167.864 59.4429 170.831 57.684C174.941 55.5729 178.73 52.9782 182.108 49.9436C185.989 46.513 192.198 41.0595 192.198 41.0595C192.198 41.0595 193.385 38.7726 197.86 39.6523C202.334 40.796 203.521 41.0595 203.521 41.0595C203.521 41.0595 207.083 41.9392 204.708 43.9183C202.334 45.8973 194.618 52.8019 191.651 55.3528C188.683 58.2115 179.46 67.0951 177.954 68.8106C176.447 70.5257 172.019 74.5277 173.799 74.8355C175.58 75.1433 189.276 77.4302 192.244 78.3099C194.573 80.025 205.302 83.4556 206.169 84.0274ZM52.4907 12.7371C49.8426 12.3853 47.1488 12.3853 44.455 12.7371C39.9808 13.3088 26.9231 14.4523 24.549 15.5957C22.1749 16.7392 20.0747 14.1444 19.2073 13.3088C18.0202 12.4292 15.6461 9.87844 15.6461 9.87844C15.6461 9.87844 14.4591 8.42714 16.5592 7.85539C18.9333 7.28369 32.3106 5.26065 36.4653 4.6889C40.6201 4.42504 60.8459 3.23761 66.5072 3.23761C71.8487 3.23761 90.5678 4.38106 95.6355 5.52451C95.6355 5.52451 96.549 5.26065 97.7358 7.54755C98.2837 8.99884 98.6035 10.5821 98.6488 12.1214C98.6488 12.1214 99.5623 13.8365 96.2748 13.5727C92.3943 13.3088 86.7782 13.001 82.8976 12.6931C79.0166 12.3853 69.8399 11.8135 68.3332 11.8135C67.146 11.8135 66.5529 11.8135 65.9593 12.957C65.0458 14.1005 61.4847 18.6743 60.6174 19.8178C59.7501 20.9612 55.8691 25.8429 52.5821 30.1528C49.2947 34.4628 45.14 39.872 41.3047 45.3255C37.7435 51.043 34.4564 56.1886 32.9954 58.5194C32.0823 59.8827 31.3062 61.3343 30.6213 62.8292C30.3474 63.401 30.0278 64.2807 28.2472 64.2807C26.4666 64.2807 18.7507 64.0167 18.7507 64.0167C18.7507 64.0167 15.4635 64.2807 17.5636 60.8501C19.6638 57.1121 24.0925 49.9874 25.8731 47.3927C27.6537 44.534 37.4697 31.6481 39.5243 29.3612C41.2137 27.3382 52.4907 12.7371 52.4907 12.7371Z" fill="#ED1C24"/>
<path d="M72.9907 48.7995C75.6845 47.0844 81.3458 40.4872 81.6195 39.9158C81.8937 39.344 83.1262 38.2003 81.8937 37.057C80.6608 35.9136 79.5193 36.4853 78.0127 37.3209C76.5518 37.8925 70.2969 42.7741 67.9229 44.4896C65.5485 46.2047 59.6135 51.3503 59.6135 51.3503C59.6135 51.3503 56.3261 53.9451 57.5589 55.3523C58.7918 56.7595 59.9329 56.232 61.4395 55.6601C63.1746 55.0883 70.3425 50.5145 72.9907 48.7995ZM65.2748 0.422394H63.8139C56.6916 0.422394 39.4334 1.56584 35.5526 1.87369C31.398 2.13759 18.0207 4.46848 15.6465 5.04022C13.2724 5.61193 14.4595 7.01928 14.4595 7.01928C14.4595 7.01928 16.8336 9.61402 18.0207 10.4496C19.2077 11.3292 20.9883 13.88 23.3625 12.7365C26.0562 11.5931 39.114 10.4496 43.2687 9.87793C45.9164 9.52606 48.6102 9.52606 51.304 9.87793C51.304 9.87793 40.027 24.1711 38.2462 26.7659C36.4658 29.0528 26.6497 41.9387 24.5495 44.7975C22.7689 47.6558 18.0207 54.8248 15.9205 58.2549C14.1399 61.6855 17.3815 61.4215 17.3815 61.4215C17.3815 61.4215 25.0974 61.6855 26.878 61.6855C28.339 61.6855 28.6585 60.5418 28.9781 59.9699C29.663 58.475 30.4392 57.0674 31.3523 55.6601C32.8589 53.3732 36.1005 48.2276 39.6619 42.4663C43.223 36.7052 47.6972 31.2958 50.9389 26.9858C54.1801 22.6758 58.0612 17.8381 58.9742 16.6947C59.8872 15.5512 63.4488 10.9774 64.3161 9.83395C65.1834 8.6905 65.5033 8.69045 66.69 8.69045C68.1966 8.69045 77.3739 9.2622 81.2544 9.57004C85.4092 9.87793 91.0705 10.1418 94.6316 10.4496C98.1928 10.7575 97.006 8.99834 97.006 8.99834C97.1426 7.50301 96.8232 6.00774 96.0925 4.6884C94.9058 2.40145 93.9923 2.66531 93.9923 2.66531C89.3354 1.30199 70.6167 0.422394 65.2748 0.422394ZM204.983 81.1682C205.896 81.7401 207.95 82.3114 207.677 84.0269C207.677 84.0269 205.896 88.0289 204.983 88.3367C204.069 88.6446 202.608 88.6007 199.641 87.4571C196.673 86.3138 182.109 82.8833 178.228 82.0036C174.667 81.4322 166.038 80.0245 166.038 80.0245C166.038 80.0245 164.851 79.4531 163.07 82.3114C161.29 84.9062 155.628 92.9105 155.628 92.9105C155.446 93.5701 154.852 94.0538 154.122 94.0538C152.934 94.0538 148.46 93.7902 146.68 92.9105C144.899 92.0309 144.306 92.0309 145.493 90.3158C146.68 88.6007 150.561 80.8604 152.341 79.4532C154.122 78.0455 151.428 78.3095 150.561 78.0455C149.648 78.0455 132.435 76.9022 127.367 77.1658C122.3 77.1658 104.493 77.1658 97.919 77.7376C91.3447 78.3095 67.8772 80.3324 61.9417 81.1682C55.6872 82.0479 30.7131 85.478 27.4715 86.3138C24.1843 86.8852 17.3815 88.0289 17.3815 88.0289C15.0987 88.5126 12.7246 88.3367 10.5331 87.4571C7.24583 86.0498 1.90405 84.027 6.37833 82.5754C10.8527 81.1244 33.1329 76.8579 39.9813 75.9787C46.8299 75.099 68.5165 71.9763 77.4196 71.6684C86.3222 71.0971 111.022 69.9534 120.199 69.9534C129.422 69.9534 141.886 70.5252 147.547 71.0971C152.889 71.3606 156.45 71.6684 157.637 71.9763C158.824 72.2841 158.824 71.4049 160.011 70.2612C161.198 69.118 164.486 64.8077 164.486 64.8077C164.486 64.8077 165.673 63.3567 163.298 64.5442C160.924 65.9514 157.637 65.9514 155.857 64.2802C154.076 62.5652 153.482 61.4215 152.569 61.6855C151.656 61.949 148.415 63.6645 146.634 64.2802C144.853 64.8959 137.411 66.5671 132.937 63.4005C128.463 60.5418 128.189 59.0907 127.595 57.947C127.002 56.5398 126.682 56.5398 125.221 57.3752C123.715 58.5189 118.693 60.8058 116.592 61.6855C114.675 62.6967 112.529 63.1808 110.338 63.0927C107.37 62.8287 104.083 61.949 102.622 59.6621C101.161 57.3752 101.115 55.6601 99.6541 56.8038C98.1928 57.947 89.8376 62.5208 85.4091 63.6645C80.3414 64.2359 79.1542 64.8077 76.7803 64.2359C74.0865 63.6645 71.4383 62.7848 70.5253 61.3776C69.6123 59.9699 69.3381 59.6621 68.1509 60.4979C66.9642 61.3333 63.6768 63.6645 61.3029 63.3567C58.9285 63.0488 52.6735 61.6412 49.1124 55.6163C45.8255 49.591 48.1994 47.0401 51.1669 44.1818C54.1349 41.0152 59.7963 36.7492 59.7963 36.7492C59.7963 36.7492 66.6443 32.1753 68.6988 31.0319C71.0732 29.8884 74.6344 27.8654 77.0083 27.8654C79.3827 27.8654 82.6696 27.8654 85.9114 30.4602C89.1531 33.0549 90.9791 35.6057 91.5727 36.7492C91.8469 37.6288 93.3535 41.3231 90.9791 43.9178C88.6052 46.5125 82.0765 52.4936 82.0765 52.4936C82.0765 52.4936 79.3827 53.9451 80.5694 55.9241C81.7566 57.6392 86.2308 54.7805 87.418 53.6372C88.9246 52.7576 96.6404 46.2047 99.0148 44.1818C101.389 41.8949 116.273 27.8654 117.734 26.7219C118.921 25.2706 131.385 13.5282 133.485 12.3847C135.266 11.2413 135.859 10.4056 139.421 10.9774C141.292 11.2852 143.073 11.857 144.762 12.6926C144.762 12.6926 148.323 14.0999 145.356 16.1229C142.662 18.4098 133.166 25.8423 130.791 28.1292C128.417 30.4162 121.615 37.013 119.56 39.3002C117.186 41.5871 111.251 48.7556 110.338 50.1628C109.425 51.57 108.831 53.0216 110.338 54.1648C111.844 55.3085 114.492 54.1648 117.186 51.8779C119.879 49.591 128.189 42.9943 130.883 40.1355C133.576 37.2769 149.328 23.2475 150.789 22.1041C152.25 20.9606 159.418 15.2434 159.418 15.2434C159.418 15.2434 160.331 14.0999 162.385 14.0999C164.44 14.0999 166.54 14.3638 167.727 14.9795L171.288 16.6947C171.288 16.6947 172.795 17.2664 170.375 18.9816C167.955 20.6968 154.898 30.4162 151.336 34.1544C148.049 37.8925 140.927 45.325 138.279 48.4478C135.585 51.8779 133.805 53.5934 135.905 55.6163C137.959 57.9032 140.379 57.3314 141.566 57.0235C142.753 56.7157 146.908 53.8569 149.602 50.9982C152.569 48.1399 161.472 38.948 162.66 37.8048C163.573 36.6612 167.134 33.4947 167.134 33.4947C167.134 33.4947 167.727 32.0874 169.828 32.0874C171.928 32.0874 172.795 32.3513 174.895 32.6591C176.676 33.2308 180.83 33.8025 178.776 36.0895C176.402 38.3762 170.741 43.8297 169.553 45.2373C168.367 46.6446 163.618 51.834 162.705 53.2412C161.792 54.6485 160.65 56.4078 161.792 57.2437C162.933 58.079 166.266 56.9797 169.234 55.2203C173.434 53.1536 177.315 50.5588 180.83 47.4799C184.711 44.0498 190.921 38.5963 190.921 38.5963C190.921 38.5963 191.834 36.3094 196.582 37.189C201.056 38.0683 202.243 38.5963 202.243 38.5963C202.243 38.5963 205.804 39.476 203.43 41.4551C201.056 43.4341 193.34 50.0308 190.327 52.8896C187.359 55.4843 178.137 64.6319 176.63 66.347C175.123 68.0625 170.695 72.0644 172.476 72.3723C174.256 72.6801 187.907 75.231 190.921 76.1107C193.66 77.1219 204.069 80.8604 204.983 81.1682Z" fill="black"/>
</svg>
